<svg width="49" height="48" viewBox="0 0 49 48" fill="none" xmlns="http://www.w3.org/2000/svg">
<rect x="0.5" width="48" height="48" rx="24" fill="#B0EBFF"/>
<g clip-path="url(#clip0_3433_18645)">
<path d="M13.2965 18.2113C13.2965 15.1303 15.845 12.6328 18.989 12.6328C22.1345 12.6328 24.683 15.1303 24.683 18.2113C24.683 21.2923 22.133 23.7898 18.989 23.7898C15.845 23.7898 13.2965 21.2923 13.2965 18.2113ZM21.122 33.5953V33.2098C21.122 30.3658 22.604 27.8668 24.839 26.3938C23.8294 25.9049 22.7223 25.6506 21.6005 25.6498H16.8545C12.7925 25.6498 9.5 28.8748 9.5 32.8543V33.3193C9.5 34.9468 12.7925 34.9468 16.8545 34.9468H21.392C21.2074 34.5205 21.1153 34.0598 21.122 33.5953ZM31.229 16.4233C28.6205 16.4233 26.504 18.4963 26.504 21.0538C26.504 23.6113 28.6205 25.6843 31.229 25.6843C33.839 25.6843 35.954 23.6113 35.954 21.0538C35.954 18.4963 33.8405 16.4233 31.229 16.4233ZM31.229 16.4233C28.6205 16.4233 26.504 18.4963 26.504 21.0538C26.504 23.6113 28.6205 25.6843 31.229 25.6843C33.839 25.6843 35.954 23.6113 35.954 21.0538C35.954 18.4963 33.8405 16.4233 31.229 16.4233ZM29.459 27.2293C26.087 27.2293 23.354 29.9068 23.354 33.2098V33.5953C23.354 34.9453 26.087 34.9453 29.459 34.9453H33.398C36.7685 34.9453 39.5 34.8958 39.5 33.5953V33.2098C39.5 29.9068 36.7685 27.2293 33.398 27.2293H29.459Z" fill="black"/>
</g>
<defs>
<clipPath id="clip0_3433_18645">
<rect width="30" height="30" fill="white" transform="translate(9.5 9)"/>
</clipPath>
</defs>
</svg>
