<svg width="48" height="48" viewBox="0 0 48 48" fill="none" xmlns="http://www.w3.org/2000/svg">
<rect width="48" height="48" rx="24" fill="#B0EBFF"/>
<path d="M29.6885 28.5508C33.0458 28.5508 35.8354 27.8238 37.6523 26.603V28.5508C37.6523 30.4359 34.0868 31.9639 29.6885 31.9639C25.2901 31.9639 21.7246 30.4359 21.7246 28.5508V26.603C23.5415 27.8238 26.3311 28.5508 29.6885 28.5508ZM29.6885 34.2393C33.0458 34.2393 35.8354 33.5123 37.6523 32.2915V34.2393C37.6523 36.1244 34.0868 37.6523 29.6885 37.6523C25.2901 37.6523 21.7246 36.1244 21.7246 34.2393V32.2915C23.5415 33.5123 26.3311 34.2393 29.6885 34.2393ZM29.6885 26.2754C25.2901 26.2754 21.7246 24.7473 21.7246 22.8623C21.7246 20.9773 25.2901 19.4492 29.6885 19.4492C34.0868 19.4492 37.6523 20.9773 37.6523 22.8623C37.6523 24.7473 34.0868 26.2754 29.6885 26.2754ZM18.3115 17.1738C13.9132 17.1738 10.3477 15.6457 10.3477 13.7607C10.3477 11.8758 13.9132 10.3477 18.3115 10.3477C22.7099 10.3477 26.2754 11.8758 26.2754 13.7607C26.2754 15.6457 22.7099 17.1738 18.3115 17.1738ZM19.4492 30.7955V34.2006C19.0772 34.2233 18.6983 34.2393 18.3115 34.2393C13.9132 34.2393 10.3477 32.7113 10.3477 30.8262V28.8784C12.1646 30.0992 14.9542 30.8262 18.3115 30.8262C18.6995 30.8262 19.0772 30.8136 19.4492 30.7955ZM19.4492 25.107V28.5121C19.0772 28.5348 18.6983 28.5508 18.3115 28.5508C13.9132 28.5508 10.3477 27.0229 10.3477 25.1377V23.19C12.1646 24.4107 14.9542 25.1377 18.3115 25.1377C18.6995 25.1377 19.0772 25.1252 19.4492 25.107ZM21.6336 19.183C20.257 20.1387 19.4663 21.3867 19.4526 22.8236C19.0783 22.8464 18.6995 22.8623 18.3115 22.8623C13.9132 22.8623 10.3477 21.3344 10.3477 19.4492V17.5015C12.1646 18.7222 14.9542 19.4492 18.3115 19.4492C19.497 19.4492 20.6074 19.3536 21.6336 19.183Z" fill="#24282B"/>
</svg>
