<svg width="48" height="48" viewBox="0 0 48 48" fill="none" xmlns="http://www.w3.org/2000/svg">
<rect width="48" height="48" rx="24" fill="#FFDADC"/>
<path d="M20.0988 24.0014H22.9901C24.5802 24.0014 26.1053 24.6331 27.2297 25.7575C28.3541 26.8819 28.9858 28.407 28.9858 29.9971H19.6578L19.6591 31.3295H30.3182V29.9971C30.314 28.5794 29.9044 27.1925 29.1377 26H32.9829C34.2424 25.9996 35.4761 26.3563 36.5411 27.0287C37.6061 27.701 38.4587 28.6614 39 29.7986C35.8489 33.957 30.7472 36.6591 24.9886 36.6591C21.3099 36.6591 18.1935 35.873 15.6619 34.4939V22.0974C17.2829 22.3296 18.8137 22.9865 20.0988 24.0014ZM14.3295 33.9943C14.3295 34.3477 14.1892 34.6866 13.9393 34.9364C13.6894 35.1863 13.3505 35.3267 12.9972 35.3267H10.3324C9.97902 35.3267 9.64012 35.1863 9.39025 34.9364C9.14038 34.6866 9 34.3477 9 33.9943V22.0028C9 21.6495 9.14038 21.3106 9.39025 21.0607C9.64012 20.8108 9.97902 20.6704 10.3324 20.6704H12.9972C13.3505 20.6704 13.6894 20.8108 13.9393 21.0607C14.1892 21.3106 14.3295 21.6495 14.3295 22.0028V33.9943ZM31.6506 15.3409C32.7107 15.3409 33.7274 15.762 34.477 16.5116C35.2266 17.2613 35.6477 18.278 35.6477 19.3381C35.6477 20.3982 35.2266 21.4149 34.477 22.1645C33.7274 22.9141 32.7107 23.3352 31.6506 23.3352C30.5904 23.3352 29.5738 22.9141 28.8241 22.1645C28.0745 21.4149 27.6534 20.3982 27.6534 19.3381C27.6534 18.278 28.0745 17.2613 28.8241 16.5116C29.5738 15.762 30.5904 15.3409 31.6506 15.3409ZM22.3239 11.3438C23.384 11.3438 24.4007 11.7649 25.1503 12.5145C25.8999 13.2641 26.321 14.2808 26.321 15.3409C26.321 16.401 25.8999 17.4177 25.1503 18.1673C24.4007 18.9169 23.384 19.3381 22.3239 19.3381C21.2637 19.3381 20.2471 18.9169 19.4974 18.1673C18.7478 17.4177 18.3267 16.401 18.3267 15.3409C18.3267 14.2808 18.7478 13.2641 19.4974 12.5145C20.2471 11.7649 21.2637 11.3438 22.3239 11.3438Z" fill="#24282B"/>
</svg>
