<svg width="48" height="48" viewBox="0 0 48 48" fill="none" xmlns="http://www.w3.org/2000/svg">
<rect width="48" height="48" rx="24" fill="#E1FA95"/>
<path d="M18.2371 28.1829L19.2634 27.6302L22.5901 29.4932C22.8678 29.6487 23.2103 29.4479 23.2103 29.1296V24.6348C23.2103 24.4847 23.1296 24.3463 22.9991 24.2723L19.096 22.0603C18.8182 21.9028 18.4739 22.1035 18.4739 22.4228V26.2103L17.6053 26.6839L14.9036 25.1399C14.5227 24.9222 14.0556 24.9202 13.6727 25.1345L10.9821 26.6409C10.5873 26.862 10.3428 27.2791 10.3428 27.7316V30.845C10.3428 31.2974 10.5872 31.7145 10.9819 31.9356L13.6789 33.4462C14.0584 33.6587 14.5211 33.6587 14.9005 33.4462L17.5979 31.9356C17.9926 31.7145 18.2371 31.2974 18.2371 30.845V28.1829ZM30.3156 26.683L29.5261 26.2094V22.4249C29.5261 22.1056 29.1818 21.9049 28.904 22.0623L25.0013 24.274C24.8708 24.348 24.7901 24.4864 24.7901 24.6365V29.1296C24.7901 29.4479 25.1326 29.6487 25.4103 29.4932L28.737 27.6302L29.7633 28.1829V30.845C29.7633 31.2974 30.0078 31.7145 30.4025 31.9356L33.0995 33.4462C33.4789 33.6587 33.9416 33.6587 34.3211 33.4462L37.0184 31.9356C37.4132 31.7145 37.6576 31.2974 37.6576 30.845V27.7315C37.6576 27.2791 37.4132 26.862 37.0184 26.6409L34.32 25.1297C33.9411 24.9175 33.4792 24.9172 33.1 25.1288L30.3156 26.683ZM30.9325 12.8132C30.6548 12.661 30.3156 12.8619 30.3156 13.1786V15.6101C30.3156 15.9146 30.4817 16.1949 30.7489 16.3411L34.4993 18.3933V22.0163C34.4993 22.3146 34.6587 22.5901 34.9173 22.7388L37.0329 23.9552C37.3106 24.1149 37.6572 23.9144 37.6572 23.594V17.2397C37.6572 16.7832 37.4084 16.363 37.0081 16.1435L30.9325 12.8132ZM28.3476 33.4617C28.0986 33.322 27.7953 33.3196 27.544 33.4553L24.0006 35.3689L20.4573 33.4553C20.206 33.3196 19.9027 33.322 19.6536 33.4617L17.4713 34.6859C17.1861 34.8459 17.1879 35.257 17.4745 35.4145L23.3987 38.6693C23.7736 38.8752 24.2277 38.8752 24.6025 38.6693L30.5268 35.4145C30.8133 35.257 30.8152 34.8459 30.53 34.6859L28.3476 33.4617ZM13.0827 22.7412C13.3415 22.5926 13.5011 22.317 13.5011 22.0185V18.3959L17.2519 16.3436C17.5191 16.1974 17.6853 15.9171 17.6853 15.6126V13.1786C17.6853 12.8619 17.346 12.661 17.0683 12.8132L10.992 16.1435C10.5916 16.363 10.3428 16.7832 10.3428 17.2397V23.5949C10.3428 23.9152 10.6892 24.1157 10.9669 23.9562L13.0827 22.7412ZM19.9091 20.0083C19.626 20.167 19.625 20.5742 19.9074 20.7343L23.7948 22.9372C23.9222 23.0094 24.0782 23.0095 24.2056 22.9372L28.0931 20.7344C28.3756 20.5743 28.3746 20.167 28.0913 20.0084L24.7897 18.1591V17.6064L27.3203 16.1511C27.7081 15.9281 27.9471 15.5149 27.9471 15.0675V12.0093C27.9471 11.5636 27.7099 11.1517 27.3244 10.9281L24.6283 9.36388C24.2404 9.13885 23.7617 9.13883 23.3738 9.36382L20.6769 10.9281C20.2914 11.1517 20.0541 11.5637 20.0541 12.0094V15.0658C20.0541 15.5132 20.2932 15.9264 20.681 16.1495L23.2116 17.6047V18.1574L19.9091 20.0083Z" fill="#24282B"/>
</svg>
