<svg width="121" height="85" viewBox="0 0 121 85" fill="none" xmlns="http://www.w3.org/2000/svg">
<path d="M60.4817 0.5L66.072 9.57102L75.975 7.41562L73.9753 18.0896L82.3911 24.115L73.9753 30.1404L75.975 40.8144L66.072 38.659L60.4817 47.73L54.8915 38.659L44.9885 40.8144L46.9882 30.1404L38.5723 24.115L46.9882 18.0896L44.9885 7.41562L54.8915 9.57102L60.4817 0.5Z" fill="#FAE6A2"/>
<g style="mix-blend-mode:multiply">
<path d="M60.4821 5.64648L64.8162 12.6823L72.4991 11.0107L70.9482 19.2917L77.4759 23.9631L70.9482 28.6375L72.4991 36.9156L64.8162 35.2439L60.4821 42.2798L56.1481 35.2439L48.4652 36.9156L50.0161 28.6375L43.4884 23.9631L50.0161 19.2917L48.4652 11.0107L56.1481 12.6823L60.4821 5.64648Z" fill="#FAE6A2"/>
</g>
<path d="M52.9398 35.0406C53.5208 34.7988 53.9942 34.3269 54.2632 33.7215C54.5322 33.116 54.5766 32.4227 54.3872 31.7832C54.3187 31.5384 54.2298 31.3008 54.1216 31.0733C46.9884 19.7782 28.2818 21.8935 20.32 27.4237C14.0845 31.8347 11.4129 34.8861 9.22725 40.2388C8.02422 43.1842 7.36827 46.2241 8.09061 49.5417C8.13311 49.8107 8.21012 50.2201 8.30041 50.6552C8.35545 50.9201 8.46114 51.1697 8.61074 51.3881C8.76034 51.6065 8.95055 51.7888 9.16922 51.9235C9.3879 52.0582 9.63024 52.1423 9.88075 52.1703C10.1313 52.1983 10.3845 52.1697 10.6241 52.0864C17.0243 49.8708 45.0339 38.3095 52.9398 35.0406Z" fill="#E1FA95"/>
<g style="mix-blend-mode:multiply" opacity="0.5">
<path d="M9.58307 51.9351C9.89378 46.9373 12.6716 42.3546 15.9116 38.8853C23.7963 30.3839 37.4598 25.5379 48.1782 30.1235C50.3151 31.0431 52.2614 32.4111 53.9038 34.148C46.938 30.7933 39.1833 31.4115 32.1484 33.9877C27.1982 35.7052 22.503 38.5104 18.2911 41.8422C14.8174 44.6216 11.7953 47.7903 9.58307 51.9294V51.9351Z" fill="#E1FA95"/>
</g>
<g style="mix-blend-mode:screen" opacity="0.5">
<path d="M8.81018 48.0139C11.5429 39.1776 18.8381 32.6828 26.7839 29.5169C31.5641 27.6106 36.7746 26.7118 41.8522 27.164C35.1387 27.5447 28.5287 29.3681 22.6357 32.8517C16.7507 36.2866 11.7633 41.4647 8.81018 48.0225V48.0139Z" fill="#E1FA95"/>
</g>
<path d="M58.0574 39.1207C57.7334 36.8966 56.6738 35.6228 55.1813 34.495C39.3029 22.5186 12.3291 36.0493 8.80768 54.0082C8.41995 55.9746 9.52737 59.2407 10.4542 60.2454C11.1925 61.0469 12.2176 61.3302 13.4525 60.7921C16.6818 59.089 17.2395 58.0499 20.1129 55.7886C27.7879 49.6029 38.8063 44.3389 47.8144 43.2311C51.2827 42.7817 58.7027 45.1575 58.0627 39.1636L58.0574 39.1207Z" fill="white"/>
<path d="M57.7679 29.3015C60.2304 29.3015 62.2268 27.1497 62.2268 24.4955C62.2268 21.8412 60.2304 19.6895 57.7679 19.6895C55.3053 19.6895 53.309 21.8412 53.309 24.4955C53.309 27.1497 55.3053 29.3015 57.7679 29.3015Z" fill="#E1FA95"/>
<mask id="mask0_2339_16823" style="mask-type:luminance" maskUnits="userSpaceOnUse" x="53" y="19" width="10" height="11">
<path d="M58.5409 29.2276C60.9646 28.767 62.5827 26.2745 62.1551 23.6606C61.7275 21.0466 59.416 19.301 56.9923 19.7616C54.5686 20.2223 52.9504 22.7147 53.378 25.3287C53.8057 27.9427 56.1171 29.6883 58.5409 29.2276Z" fill="white"/>
</mask>
<g mask="url(#mask0_2339_16823)">
<g style="mix-blend-mode:screen" opacity="0.5">
<path d="M55.1519 21.4515C54.7669 21.7206 54.4216 22.233 54.5385 22.419C54.6553 22.6051 55.0909 22.4992 55.383 22.2644C55.7548 21.9782 55.9141 21.3914 55.776 21.2512C55.6379 21.1109 55.1971 21.42 55.1519 21.4515Z" fill="#E1FA95"/>
</g>
<g style="mix-blend-mode:multiply">
<path d="M63.0261 24.1516C61.8684 23.6173 60.6098 23.3858 59.3533 23.4761C55.8371 23.7623 53.7259 26.5418 53.3275 27.0913L54.2836 28.2821C55.0431 29.1895 57.0375 30.1656 59.0771 29.5645C61.2016 28.9433 62.1391 26.9883 62.3861 26.4673C62.7323 25.7456 62.9494 24.96 63.0261 24.1516Z" fill="#E1FA95"/>
</g>
</g>
<mask id="mask1_2339_16823" style="mask-type:luminance" maskUnits="userSpaceOnUse" x="8" y="29" width="51" height="33">
<path d="M58.0572 39.1187C57.7332 36.8946 56.6736 35.6209 55.1811 34.4931C39.3027 22.5167 12.3289 36.0474 8.8075 54.0062C8.41977 55.9727 9.52719 59.2387 10.454 60.2434C11.1923 61.0449 12.2174 61.3283 13.4523 60.7901C16.6816 59.087 17.2393 58.0479 20.1128 55.7866C27.7877 49.6009 38.8061 44.3369 47.8142 43.2292C51.2825 42.7798 58.7025 45.1556 58.0625 39.1617L58.0572 39.1187Z" fill="white"/>
</mask>
<g mask="url(#mask1_2339_16823)">
<path d="M11.9231 62.9357C15.1259 46.3337 42.5405 34.1455 56.2173 42.8329L11.9231 62.9357Z" fill="#E5E5E5"/>
<path d="M16.929 52.9727C16.7192 53.4764 14.5017 55.9667 13.3943 56.8741C12.9667 57.2291 10.8661 57.75 9.52232 56.4763C9.01616 55.9696 8.6784 55.2978 8.56097 54.5642C8.36609 55.3589 8.22147 56.167 8.12809 56.9829C7.90236 58.9408 7.78285 59.9942 8.37241 60.9502C8.86195 61.6853 9.59687 62.187 10.4226 62.35C10.9729 62.4147 11.5296 62.3392 12.0479 62.1295C13.5855 61.5027 15.5375 57.7844 16.929 52.9727Z" fill="#E5E5E5"/>
</g>
<path d="M13.6013 67.7687C21.6108 80.5923 65.3022 65.0837 58.0176 44.8092C47.1532 31.3558 2.00123 53.9918 13.5827 67.7429L13.6013 67.7687Z" fill="#E1FA95"/>
<g style="mix-blend-mode:multiply">
<path d="M14.0288 68.313C22.5509 78.818 53.8773 68.0725 58.5965 52.4866C58.6389 51.9826 58.5828 51.4745 58.4318 50.9953C58.0255 49.5641 57.0429 48.4792 55.8001 47.7121C54.8934 47.1689 53.9183 46.7707 52.9054 46.5299C37.3882 43.3068 18.3071 52.6183 14.0261 68.2843L14.0288 68.313Z" fill="#E1FA95"/>
</g>
<g style="mix-blend-mode:multiply">
<path d="M51.2772 58.9815C49.6147 62.7026 44.8371 65.3132 43.9634 65.774C41.5733 67.0449 38.1448 68.8168 33.3274 69.0773C30.7726 69.2147 26.5368 69.4408 25.7428 67.48C24.6805 64.8294 30.5735 59.8889 31.2905 59.2964C31.2905 59.2964 39.0504 52.896 48.98 54.9827C51.0302 55.412 51.4631 56.3423 51.556 56.5742C51.811 57.1982 51.718 57.9768 51.2772 58.9815Z" fill="#E1FA95"/>
</g>
<g style="mix-blend-mode:screen" opacity="0.5">
<path d="M38.5674 44.2106C39.38 43.7154 40.2591 43.5064 41.0956 43.1973C41.18 43.1613 41.2705 43.1448 41.3612 43.1486C41.4346 43.1527 41.5075 43.1642 41.5789 43.183C41.6081 43.183 41.5657 43.1658 41.5125 43.1601C41.3452 43.1601 41.4807 43.1429 41.5125 43.1286C44.9714 42.1708 48.6106 42.2829 52.0131 43.452C53.4631 43.9759 55.0034 44.7287 55.9621 46.0282C54.459 45.5502 53.1498 45.4357 51.6387 45.2668C48.2978 44.8689 44.9756 44.7687 41.6267 44.5827C41.5551 44.5877 41.4833 44.5877 41.4116 44.5827C41.3421 44.5742 41.2742 44.5549 41.2098 44.5254C41.1939 44.5254 41.2417 44.5254 41.2948 44.5254C41.4488 44.5111 41.3266 44.5083 41.2948 44.5111C40.3733 44.5111 39.4995 44.3222 38.586 44.2249L38.5674 44.2106Z" fill="#E1FA95"/>
</g>
<path d="M5.18784 66.8679C7.65042 66.8679 9.64674 64.7162 9.64674 62.0619C9.64674 59.4076 7.65042 57.2559 5.18784 57.2559C2.72526 57.2559 0.728943 59.4076 0.728943 62.0619C0.728943 64.7162 2.72526 66.8679 5.18784 66.8679Z" fill="#E1FA95"/>
<mask id="mask2_2339_16823" style="mask-type:luminance" maskUnits="userSpaceOnUse" x="0" y="57" width="10" height="10">
<path d="M5.96273 66.796C8.38646 66.3354 10.0046 63.8429 9.577 61.2289C9.14937 58.615 6.8379 56.8694 4.41418 57.33C1.99045 57.7906 0.372292 60.2831 0.799914 62.8971C1.22754 65.511 3.53901 67.2566 5.96273 66.796Z" fill="white"/>
</mask>
<g mask="url(#mask2_2339_16823)">
<g style="mix-blend-mode:screen" opacity="0.5">
<path d="M2.57211 59.0257C2.18703 59.2948 1.8418 59.8072 1.95865 59.9932C2.0755 60.1793 2.50837 60.0734 2.80315 59.8387C3.17229 59.5524 3.33429 58.9656 3.19354 58.8254C3.05279 58.6851 2.61726 58.9943 2.57211 59.0257Z" fill="#E1FA95"/>
</g>
<g style="mix-blend-mode:multiply">
<path d="M10.446 61.7226C9.28668 61.1912 8.02769 60.9608 6.77056 61.05C3.25709 61.3362 1.14582 64.1128 0.744812 64.6652L1.70351 65.8531C2.46304 66.7634 4.45481 67.7366 6.48375 67.1383C8.6083 66.5143 9.54841 64.5622 9.79539 64.0412C10.1445 63.3189 10.3652 62.5325 10.446 61.7226Z" fill="#E1FA95"/>
</g>
</g>
<path d="M68.0242 35.0406C67.4456 34.7961 66.9752 34.3231 66.7088 33.7179C66.4424 33.1128 66.3999 32.4209 66.5901 31.7832C66.6586 31.5384 66.7475 31.3008 66.8557 31.0733C74.0021 19.7782 92.7087 21.8935 100.67 27.4237C106.906 31.8347 109.578 34.8861 111.763 40.2388C112.966 43.1842 113.622 46.2241 112.9 49.5417C112.857 49.8107 112.78 50.2201 112.69 50.6552C112.635 50.9201 112.529 51.1697 112.38 51.3881C112.23 51.6065 112.04 51.7888 111.821 51.9235C111.603 52.0582 111.36 52.1423 111.11 52.1703C110.859 52.1983 110.606 52.1697 110.366 52.0864C103.94 49.8708 75.9301 38.3095 68.0242 35.0406Z" fill="#FACBC1"/>
<g style="mix-blend-mode:multiply" opacity="0.5">
<path d="M111.381 51.9388C109.169 47.7998 106.146 44.6311 102.673 41.8517C98.4582 38.5198 93.7656 35.7089 88.8154 33.9914C81.7805 31.4153 74.0153 30.7912 67.0601 34.146C68.7025 32.409 70.6487 31.041 72.7857 30.1214C83.5041 25.5416 97.1649 30.3791 105.052 38.8833C108.292 42.3526 111.07 46.9353 111.381 51.9331V51.9388Z" fill="#FACBC1"/>
</g>
<g style="mix-blend-mode:screen" opacity="0.5">
<path d="M112.153 48.0127C109.2 41.4635 104.213 36.2768 98.328 32.8419C92.435 29.3583 85.825 27.535 79.1115 27.1543C84.1891 26.702 89.389 27.6008 94.1798 29.5072C102.126 32.6558 109.423 39.1679 112.153 48.0042V48.0127Z" fill="#FACBC1"/>
</g>
<path d="M62.9066 39.1207C63.2306 36.8966 64.2903 35.6228 65.7828 34.495C81.6611 22.5186 108.635 36.0493 112.156 54.0082C112.544 55.9746 111.437 59.2407 110.51 60.2454C109.772 61.0469 108.746 61.3302 107.512 60.7921C104.282 59.089 103.725 58.0499 100.851 55.7886C93.1762 49.6029 82.1577 44.3389 73.1496 43.2311C69.6813 42.7817 62.2613 45.1575 62.9013 39.1636L62.9066 39.1207Z" fill="white"/>
<path d="M63.1956 29.3015C65.6582 29.3015 67.6545 27.1497 67.6545 24.4955C67.6545 21.8412 65.6582 19.6895 63.1956 19.6895C60.733 19.6895 58.7367 21.8412 58.7367 24.4955C58.7367 27.1497 60.733 29.3015 63.1956 29.3015Z" fill="#FACBC1"/>
<mask id="mask3_2339_16823" style="mask-type:luminance" maskUnits="userSpaceOnUse" x="58" y="19" width="10" height="11">
<path d="M67.5851 25.3336C68.0127 22.7196 66.3945 20.2271 63.9708 19.7665C61.5471 19.3059 59.2356 21.0515 58.808 23.6654C58.3803 26.2794 59.9985 28.7719 62.4222 29.2325C64.846 29.6931 67.1574 27.9475 67.5851 25.3336Z" fill="white"/>
</mask>
<g mask="url(#mask3_2339_16823)">
<g style="mix-blend-mode:screen" opacity="0.5">
<path d="M65.8122 21.4515C66.1973 21.7206 66.5425 22.233 66.4257 22.419C66.3088 22.6051 65.8733 22.4992 65.5812 22.2644C65.2094 21.9782 65.05 21.3914 65.1881 21.2512C65.3262 21.1109 65.7671 21.42 65.8122 21.4515Z" fill="#FACBC1"/>
</g>
<g style="mix-blend-mode:multiply">
<path d="M57.9379 24.1516C59.0955 23.6173 60.3541 23.3858 61.6107 23.4761C65.1268 23.7623 67.2381 26.5418 67.6364 27.0913L66.6804 28.2821C65.9209 29.1895 63.9264 30.1656 61.8869 29.5645C59.7623 28.9433 58.8249 26.9883 58.5779 26.4673C58.2316 25.7456 58.0145 24.96 57.9379 24.1516Z" fill="#FACBC1"/>
</g>
</g>
<mask id="mask4_2339_16823" style="mask-type:luminance" maskUnits="userSpaceOnUse" x="62" y="29" width="51" height="33">
<path d="M62.9063 39.1187C63.2303 36.8946 64.2899 35.6209 65.7824 34.4931C81.6607 22.5167 108.635 36.0474 112.156 54.0062C112.544 55.9727 111.436 59.2387 110.509 60.2434C109.771 61.0449 108.746 61.3283 107.511 60.7901C104.282 59.087 103.724 58.0479 100.851 55.7866C93.1758 49.6009 82.1573 44.3369 73.1493 43.2292C69.6809 42.7798 62.2609 45.1556 62.901 39.1617L62.9063 39.1187Z" fill="white"/>
</mask>
<g mask="url(#mask4_2339_16823)">
<path d="M109.041 62.9357C105.838 46.3337 78.4236 34.1455 64.7468 42.8329L109.041 62.9357Z" fill="#E5E5E5"/>
<path d="M104.035 52.9727C104.245 53.4764 106.462 55.9667 107.57 56.8741C107.997 57.2291 110.098 57.75 111.442 56.4763C111.948 55.9696 112.285 55.2978 112.403 54.5642C112.598 55.3589 112.742 56.167 112.836 56.9829C113.061 58.9408 113.181 59.9942 112.591 60.9502C112.102 61.6853 111.367 62.187 110.541 62.35C109.991 62.4147 109.434 62.3392 108.916 62.1295C107.378 61.5027 105.426 57.7844 104.035 52.9727Z" fill="#E5E5E5"/>
</g>
<path d="M107.363 67.7687C99.3532 80.5923 55.6618 65.0837 62.9464 44.8092C73.8108 31.3558 118.963 53.9918 107.381 67.7429L107.363 67.7687Z" fill="#FACBC1"/>
<g style="mix-blend-mode:multiply">
<path d="M106.935 68.313C98.4132 78.818 67.1 68.0725 62.3676 52.4866C62.3252 51.9826 62.3813 51.4745 62.5323 50.9953C62.9386 49.5641 63.9212 48.4792 65.1641 47.7121C66.0707 47.1689 67.0458 46.7707 68.0587 46.5299C83.5759 43.3068 102.657 52.6183 106.938 68.2843L106.935 68.313Z" fill="#FACBC1"/>
</g>
<g style="mix-blend-mode:multiply">
<path d="M69.6866 58.9815C71.349 62.7026 76.1266 65.3132 77.0003 65.774C79.3904 67.0449 82.8189 68.8168 87.6363 69.0773C90.1911 69.2147 94.4269 69.4408 95.221 67.48C96.2832 64.8294 90.3903 59.8889 89.6732 59.2964C89.6732 59.2964 81.9133 52.896 71.9837 54.9827C69.9335 55.412 69.5006 56.3423 69.4077 56.5742C69.1528 57.1982 69.2457 57.9768 69.6866 58.9815Z" fill="#FACBC1"/>
</g>
<g style="mix-blend-mode:screen" opacity="0.5">
<path d="M82.396 44.2106C81.4825 44.3079 80.6088 44.4968 79.6872 44.4968C79.6501 44.4968 79.5279 44.4968 79.6872 44.5111C79.7403 44.5111 79.7881 44.5111 79.7722 44.5111C79.7078 44.5406 79.6399 44.5598 79.5704 44.5684C79.4988 44.5734 79.4269 44.5734 79.3553 44.5684C75.9932 44.7659 72.6709 44.8546 69.3301 45.2668C67.8216 45.4357 66.5097 45.553 65.0066 46.0282C65.9653 44.7258 67.5056 43.973 68.9556 43.452C72.3581 42.2829 75.9973 42.1708 79.4562 43.1286C79.4827 43.1429 79.6182 43.1515 79.4562 43.1601C79.4031 43.1601 79.3606 43.1887 79.3898 43.183C79.4596 43.1655 79.5307 43.1549 79.6022 43.1515C79.6929 43.1479 79.7833 43.1644 79.8678 43.2001C80.7044 43.5093 81.5834 43.7182 82.396 44.2134V44.2106Z" fill="#FACBC1"/>
</g>
<path d="M115.776 66.8679C118.238 66.8679 120.234 64.7162 120.234 62.0619C120.234 59.4076 118.238 57.2559 115.776 57.2559C113.313 57.2559 111.317 59.4076 111.317 62.0619C111.317 64.7162 113.313 66.8679 115.776 66.8679Z" fill="#FACBC1"/>
<mask id="mask5_2339_16823" style="mask-type:luminance" maskUnits="userSpaceOnUse" x="111" y="57" width="10" height="10">
<path d="M120.164 62.9058C120.591 60.2919 118.973 57.7994 116.549 57.3388C114.126 56.8781 111.814 58.6238 111.386 61.2377C110.959 63.8517 112.577 66.3441 115.001 66.8048C117.424 67.2654 119.736 65.5198 120.164 62.9058Z" fill="white"/>
</mask>
<g mask="url(#mask5_2339_16823)">
<g style="mix-blend-mode:screen" opacity="0.5">
<path d="M118.391 59.0238C118.776 59.2929 119.122 59.8052 119.005 59.9913C118.888 60.1773 118.455 60.0714 118.16 59.8367C117.791 59.5505 117.629 58.9637 117.77 58.8234C117.911 58.6832 118.346 58.9923 118.391 59.0238Z" fill="#FACBC1"/>
</g>
<g style="mix-blend-mode:multiply">
<path d="M110.517 61.7207C111.677 61.1892 112.936 60.9588 114.193 61.048C117.706 61.3343 119.818 64.1108 120.219 64.6633L119.26 65.8512C118.5 66.7614 116.509 67.7346 114.48 67.1364C112.355 66.5124 111.415 64.5602 111.168 64.0393C110.819 63.3169 110.598 62.5305 110.517 61.7207Z" fill="#FACBC1"/>
</g>
</g>
<path d="M79.5312 31.0567C81.0556 31.174 81.2866 32.2818 82.9836 32.5938C84.3964 32.8543 85.1612 32.1759 87.4664 32.5165C87.8467 32.5511 88.2224 32.6298 88.5871 32.7512C90.531 33.5241 91.6278 36.5182 90.7833 38.8224C89.7689 41.5875 86.1996 42.6867 83.8786 42.8441C80.8909 43.0416 77.8687 41.8223 76.1771 39.6497C75.8079 39.1802 73.7259 36.521 75.0564 33.8561C75.9301 32.09 77.6961 30.9136 79.5312 31.0567Z" fill="#624E5B"/>
<path d="M94.796 37.136C94.5499 37.1331 94.3107 37.0482 94.1112 36.8929C93.9117 36.7376 93.7616 36.5196 93.6816 36.2687C93.6016 36.0178 93.5956 35.7464 93.6643 35.4917C93.7331 35.237 93.8733 35.0115 94.0657 34.8461C95.1483 33.9423 96.4509 33.3964 97.8155 33.2746C99.3528 33.1472 100.887 33.5589 102.189 34.4482C102.328 34.5357 102.448 34.6522 102.543 34.7909C102.639 34.9296 102.707 35.0876 102.745 35.2555C102.782 35.4233 102.788 35.5976 102.762 35.7679C102.735 35.9382 102.677 36.101 102.591 36.2466C102.505 36.3923 102.393 36.5177 102.261 36.6155C102.129 36.7133 101.98 36.7814 101.823 36.8158C101.666 36.8502 101.504 36.8501 101.347 36.8157C101.19 36.7812 101.041 36.713 100.909 36.6151C100.097 36.0537 99.1422 35.7776 98.1778 35.8248C97.2133 35.872 96.2861 36.24 95.5237 36.8784C95.3143 37.0488 95.0584 37.1394 94.796 37.136Z" fill="#624E5B"/>
<path d="M71.6171 34.2421C71.3922 34.2422 71.1719 34.1736 70.9816 34.0445C70.7912 33.9153 70.6387 33.7308 70.5415 33.5122C70.4133 33.2186 70.2328 32.9551 70.0104 32.7365C69.7775 32.5153 69.5069 32.3452 69.2137 32.2356C69.0658 32.1807 68.9294 32.0949 68.8123 31.9832C68.6952 31.8715 68.5996 31.7361 68.531 31.5846C68.4625 31.4331 68.4223 31.2685 68.4127 31.1002C68.4032 30.932 68.4245 30.7634 68.4754 30.604C68.5263 30.4446 68.6059 30.2976 68.7095 30.1713C68.8131 30.0451 68.9388 29.9421 69.0794 29.8682C69.3633 29.719 69.6905 29.6974 69.9891 29.8082C70.5831 30.0287 71.1296 30.3762 71.5958 30.8301C72.0533 31.2713 72.4244 31.8066 72.6873 32.4044C72.7553 32.557 72.7947 32.7225 72.8032 32.8915C72.8117 33.0605 72.7892 33.2296 72.7368 33.3892C72.6845 33.5488 72.6035 33.6957 72.4984 33.8214C72.3933 33.9471 72.2661 34.0493 72.1243 34.1219C71.9653 34.2011 71.7922 34.2421 71.6171 34.2421Z" fill="#624E5B"/>
<path d="M41.4328 31.0567C39.9084 31.174 39.6773 32.2818 37.9804 32.5938C36.5675 32.8543 35.8027 32.1759 33.4976 32.5165C33.1173 32.5511 32.7415 32.6298 32.3769 32.7512C30.4329 33.5241 29.3361 36.5182 30.1806 38.8224C31.1951 41.5875 34.7643 42.6867 37.0854 42.8441C40.073 43.0416 43.0952 41.8223 44.7869 39.6497C45.156 39.1802 47.2381 36.521 45.9076 33.8561C45.0339 32.09 43.2678 30.9136 41.4328 31.0567Z" fill="#624E5B"/>
<path d="M26.1677 37.1393C26.4138 37.1363 26.653 37.0514 26.8526 36.8961C27.0521 36.7408 27.2022 36.5228 27.2822 36.2719C27.3622 36.0211 27.3682 35.7497 27.2994 35.495C27.2307 35.2403 27.0904 35.0147 26.898 34.8493C25.8155 33.9456 24.5129 33.3997 23.1482 33.2779C21.6157 33.1528 20.0866 33.5633 18.7876 34.4486C18.6495 34.5361 18.5291 34.6526 18.4337 34.7913C18.3383 34.93 18.2699 35.088 18.2324 35.2558C18.1949 35.4237 18.1891 35.598 18.2155 35.7683C18.2418 35.9385 18.2998 36.1014 18.3858 36.247C18.4718 36.3926 18.5842 36.5181 18.7162 36.6159C18.8482 36.7137 18.9971 36.7818 19.1541 36.8162C19.3111 36.8506 19.4729 36.8505 19.6298 36.816C19.7868 36.7816 19.9357 36.7133 20.0676 36.6155C20.8805 36.0541 21.8348 35.778 22.7993 35.8252C23.7637 35.8723 24.6909 36.2404 25.4533 36.8788C25.6588 37.0472 25.9096 37.1387 26.1677 37.1393Z" fill="#624E5B"/>
<path d="M49.3466 34.2421C49.5715 34.2422 49.7918 34.1736 49.9821 34.0445C50.1724 33.9153 50.3249 33.7308 50.4221 33.5122C50.5504 33.2186 50.7308 32.9551 50.9533 32.7365C51.1861 32.5153 51.4567 32.3452 51.75 32.2356C51.8978 32.1807 52.0342 32.0949 52.1514 31.9832C52.2685 31.8715 52.364 31.7361 52.4326 31.5846C52.5012 31.4331 52.5414 31.2685 52.5509 31.1002C52.5605 30.932 52.5392 30.7634 52.4882 30.604C52.4373 30.4446 52.3578 30.2976 52.2541 30.1713C52.1505 30.0451 52.0248 29.9421 51.8843 29.8682C51.7437 29.7943 51.591 29.751 51.4349 29.7407C51.2788 29.7304 51.1224 29.7533 50.9745 29.8082C50.3805 30.0287 49.834 30.3762 49.3678 30.8301C48.9104 31.2713 48.5393 31.8066 48.2763 32.4044C48.2083 32.557 48.1689 32.7225 48.1604 32.8915C48.1519 33.0605 48.1745 33.2296 48.2268 33.3892C48.2791 33.5488 48.3602 33.6957 48.4653 33.8214C48.5704 33.9471 48.6975 34.0493 48.8393 34.1219C48.9983 34.2011 49.1714 34.2421 49.3466 34.2421Z" fill="#624E5B"/>
<path d="M35.9168 84.5006C48.3104 84.5006 58.3573 83.0178 58.3573 81.1888C58.3573 79.3597 48.3104 77.877 35.9168 77.877C23.5232 77.877 13.4763 79.3597 13.4763 81.1888C13.4763 83.0178 23.5232 84.5006 35.9168 84.5006Z" fill="#E1E2DF"/>
<path d="M85.047 84.5006C97.4406 84.5006 107.488 83.0178 107.488 81.1888C107.488 79.3597 97.4406 77.877 85.047 77.877C72.6534 77.877 62.6064 79.3597 62.6064 81.1888C62.6064 83.0178 72.6534 84.5006 85.047 84.5006Z" fill="#E1E2DF"/>
</svg>
