<svg width="171" height="119" viewBox="0 0 171 119" fill="none" xmlns="http://www.w3.org/2000/svg">
<path d="M85.4819 0.0761719L93.3722 12.8795L107.35 9.83722L104.527 24.903L116.406 33.4076L104.527 41.9121L107.35 56.9779L93.3722 53.9357L85.4819 66.739L77.5916 53.9357L63.6139 56.9779L66.4364 41.9121L54.5579 33.4076L66.4364 24.903L63.6139 9.83722L77.5916 12.8795L85.4819 0.0761719Z" fill="#FAE6A2"/>
<g style="mix-blend-mode:multiply">
<path d="M85.4821 7.33984L91.5995 17.2706L102.443 14.9111L100.254 26.5993L109.468 33.1929L100.254 39.7905L102.443 51.4746L91.5995 49.1152L85.4821 59.0459L79.3648 49.1152L68.5208 51.4746L70.7098 39.7905L61.4963 33.1929L70.7098 26.5993L68.5208 14.9111L79.3648 17.2706L85.4821 7.33984Z" fill="#FAE6A2"/>
</g>
<path d="M74.8366 48.828C75.6566 48.4867 76.3248 47.8207 76.7045 46.9661C77.0842 46.1115 77.1468 45.1329 76.8794 44.2303C76.7827 43.8848 76.6573 43.5495 76.5046 43.2283C66.4365 27.2858 40.033 30.2715 28.7954 38.0771C19.9943 44.303 16.2234 48.6099 13.1385 56.165C11.4405 60.3223 10.5147 64.613 11.5342 69.2955C11.5942 69.6753 11.7029 70.253 11.8303 70.8671C11.908 71.2411 12.0572 71.5934 12.2684 71.9016C12.4795 72.2099 12.748 72.4673 13.0566 72.6574C13.3653 72.8475 13.7073 72.9661 14.0609 73.0057C14.4145 73.0453 14.7719 73.0049 15.1102 72.8872C24.1437 69.7601 63.6777 53.4419 74.8366 48.828Z" fill="#E1FA95"/>
<g style="mix-blend-mode:multiply" opacity="0.5">
<path d="M13.6406 72.6752C14.0792 65.6211 18 59.1528 22.573 54.2561C33.7019 42.2568 52.9872 35.4168 68.1156 41.8892C71.1318 43.1871 73.8788 45.118 76.1971 47.5696C66.3651 42.8346 55.4199 43.7072 45.4905 47.3434C38.5035 49.7675 31.8764 53.7269 25.9315 58.4296C21.0286 62.3526 16.763 66.8251 13.6406 72.6672V72.6752Z" fill="#E1FA95"/>
</g>
<g style="mix-blend-mode:screen" opacity="0.5">
<path d="M12.5498 67.14C16.4069 54.668 26.7036 45.5009 37.9187 41.0325C44.6658 38.3417 52.0201 37.0731 59.187 37.7114C49.7111 38.2488 40.3814 40.8224 32.0638 45.7393C23.7574 50.5875 16.718 57.8961 12.5498 67.1521V67.14Z" fill="#E1FA95"/>
</g>
<path d="M82.0597 54.5872C81.6024 51.448 80.1068 49.6501 78.0003 48.0583C55.5888 31.1542 17.5167 50.2521 12.5463 75.6001C11.9991 78.3757 13.5621 82.9855 14.8703 84.4036C15.9124 85.5349 17.3592 85.9349 19.1022 85.1753C23.6602 82.7714 24.4474 81.3048 28.5031 78.1131C39.3359 69.3823 54.8879 61.9524 67.6023 60.3889C72.4977 59.7546 82.9706 63.1079 82.0672 54.6478L82.0597 54.5872Z" fill="white"/>
<path d="M81.6512 40.729C85.127 40.729 87.9447 37.6919 87.9447 33.9456C87.9447 30.1992 85.127 27.1621 81.6512 27.1621C78.1754 27.1621 75.3577 30.1992 75.3577 33.9456C75.3577 37.6919 78.1754 40.729 81.6512 40.729Z" fill="#E1FA95"/>
<mask id="mask0_2214_18032" style="mask-type:luminance" maskUnits="userSpaceOnUse" x="75" y="27" width="13" height="14">
<path d="M82.7422 40.6249C86.1632 39.9748 88.4471 36.4568 87.8436 32.7673C87.24 29.0779 83.9775 26.614 80.5565 27.2642C77.1355 27.9143 74.8516 31.4323 75.4552 35.1218C76.0587 38.8113 79.3213 41.2751 82.7422 40.6249Z" fill="white"/>
</mask>
<g mask="url(#mask0_2214_18032)">
<g style="mix-blend-mode:screen" opacity="0.5">
<path d="M77.9588 29.6485C77.4153 30.0283 76.928 30.7515 77.0929 31.0141C77.2578 31.2767 77.8726 31.1272 78.2849 30.7959C78.8097 30.3919 79.0346 29.5637 78.8396 29.3657C78.6447 29.1677 78.0225 29.6041 77.9588 29.6485Z" fill="#E1FA95"/>
</g>
<g style="mix-blend-mode:multiply">
<path d="M89.0726 33.4589C87.4386 32.7047 85.6622 32.3779 83.8886 32.5054C78.9257 32.9095 75.9458 36.8325 75.3835 37.6082L76.733 39.2889C77.805 40.5696 80.62 41.9473 83.4988 41.0989C86.4974 40.2222 87.8206 37.4627 88.1692 36.7274C88.6579 35.7087 88.9644 34.5999 89.0726 33.4589Z" fill="#E1FA95"/>
</g>
</g>
<mask id="mask1_2214_18032" style="mask-type:luminance" maskUnits="userSpaceOnUse" x="12" y="41" width="71" height="45">
<path d="M82.0595 54.5833C81.6022 51.4441 80.1066 49.6462 78 48.0544C55.5886 31.1503 17.5164 50.2482 12.5461 75.5962C11.9988 78.3718 13.5619 82.9816 14.8701 84.3997C15.9121 85.531 17.359 85.931 19.102 85.1714C23.66 82.7675 24.4471 81.3009 28.5029 78.1092C39.3356 69.3784 54.8876 61.9485 67.6021 60.385C72.4974 59.7507 82.9704 63.104 82.067 54.6439L82.0595 54.5833Z" fill="white"/>
</mask>
<g mask="url(#mask1_2214_18032)">
<path d="M16.9434 88.2013C21.4639 64.7684 60.1582 47.5653 79.4623 59.8272L16.9434 88.2013Z" fill="#E5E5E5"/>
<path d="M24.009 74.1387C23.7128 74.8497 20.583 78.3647 19.0199 79.6454C18.4164 80.1464 15.4514 80.8817 13.5548 79.0838C12.8404 78.3688 12.3636 77.4206 12.1979 76.385C11.9228 77.5068 11.7187 78.6474 11.5869 79.7989C11.2683 82.5624 11.0996 84.0492 11.9317 85.3986C12.6227 86.4361 13.66 87.1443 14.8255 87.3743C15.6022 87.4656 16.3879 87.359 17.1195 87.0632C19.2898 86.1784 22.0448 80.9302 24.009 74.1387Z" fill="#E5E5E5"/>
</g>
<path d="M19.3122 95.0217C30.6173 113.122 92.2854 91.2321 82.0036 62.6156C66.6691 43.6268 2.93938 75.5764 19.286 94.9854L19.3122 95.0217Z" fill="#E1FA95"/>
<g style="mix-blend-mode:multiply">
<path d="M19.9156 95.7909C31.9441 110.618 76.1598 95.4516 82.8206 73.4528C82.8805 72.7414 82.8013 72.0243 82.5882 71.3479C82.0147 69.3278 80.6279 67.7966 78.8736 66.7138C77.594 65.9471 76.2177 65.385 74.7879 65.0452C52.8862 60.496 25.9542 73.6387 19.9119 95.7505L19.9156 95.7909Z" fill="#E1FA95"/>
</g>
<g style="mix-blend-mode:multiply">
<path d="M72.4898 82.6192C70.1433 87.8714 63.4 91.556 62.1668 92.2065C58.7933 94.0003 53.9542 96.5012 47.1546 96.8689C43.5487 97.0628 37.5701 97.382 36.4493 94.6145C34.95 90.8733 43.2676 83.8999 44.2796 83.0636C44.2796 83.0636 55.2323 74.0298 69.2475 76.9751C72.1412 77.5811 72.7522 78.8942 72.8834 79.2214C73.2432 80.1022 73.112 81.2011 72.4898 82.6192Z" fill="#E1FA95"/>
</g>
<g style="mix-blend-mode:screen" opacity="0.5">
<path d="M54.5505 61.7704C55.6975 61.0715 56.9382 60.7765 58.119 60.3402C58.2381 60.2895 58.3658 60.2661 58.4938 60.2715C58.5975 60.2772 58.7004 60.2935 58.8012 60.32C58.8424 60.32 58.7824 60.2958 58.7075 60.2877C58.4713 60.2877 58.6625 60.2634 58.7075 60.2432C63.5895 58.8914 68.7261 59.0497 73.5285 60.6998C75.5751 61.4391 77.7492 62.5017 79.1023 64.3359C76.9807 63.6612 75.1328 63.4996 73 63.2612C68.2845 62.6997 63.5953 62.5583 58.8687 62.2956C58.7676 62.3027 58.6661 62.3027 58.565 62.2956C58.467 62.2836 58.371 62.2564 58.2802 62.2148C58.2577 62.2148 58.3251 62.2148 58.4001 62.2148C58.6175 62.1946 58.4451 62.1906 58.4001 62.1946C57.0994 62.1946 55.8662 61.928 54.5768 61.7906L54.5505 61.7704Z" fill="#E1FA95"/>
</g>
<path d="M7.43706 93.7505C10.9129 93.7505 13.7306 90.7134 13.7306 86.967C13.7306 83.2206 10.9129 80.1836 7.43706 80.1836C3.96125 80.1836 1.14355 83.2206 1.14355 86.967C1.14355 90.7134 3.96125 93.7505 7.43706 93.7505Z" fill="#E1FA95"/>
<mask id="mask2_2214_18032" style="mask-type:luminance" maskUnits="userSpaceOnUse" x="1" y="80" width="13" height="14">
<path d="M8.53079 93.6464C11.9517 92.9963 14.2357 89.4783 13.6321 85.7888C13.0286 82.0993 9.76604 79.6355 6.34508 80.2857C2.92412 80.9358 0.640167 84.4538 1.24373 88.1433C1.8473 91.8328 5.10983 94.2966 8.53079 93.6464Z" fill="white"/>
</mask>
<g mask="url(#mask2_2214_18032)">
<g style="mix-blend-mode:screen" opacity="0.5">
<path d="M3.74491 82.6778C3.2014 83.0576 2.71411 83.7808 2.87904 84.0434C3.04397 84.306 3.65495 84.1565 4.07102 83.8252C4.59204 83.4212 4.82069 82.593 4.62203 82.395C4.42336 82.197 3.80863 82.6334 3.74491 82.6778Z" fill="#E1FA95"/>
</g>
<g style="mix-blend-mode:multiply">
<path d="M14.8588 86.4837C13.2224 85.7336 11.4454 85.4083 9.67105 85.5342C4.71197 85.9383 1.73202 89.8572 1.16602 90.637L2.51917 92.3136C3.59121 93.5984 6.40248 94.9721 9.26623 94.1277C12.2649 93.2469 13.5918 90.4915 13.9404 89.7562C14.4333 88.7367 14.7447 87.6267 14.8588 86.4837Z" fill="#E1FA95"/>
</g>
</g>
<path d="M96.1273 48.828C95.3106 48.4829 94.6467 47.8153 94.2707 46.9611C93.8947 46.1069 93.8347 45.1304 94.1031 44.2303C94.1999 43.8848 94.3253 43.5495 94.478 43.2283C104.565 27.2858 130.968 30.2715 142.206 38.0771C151.007 44.303 154.778 48.6099 157.863 56.165C159.561 60.3223 160.487 64.613 159.467 69.2955C159.407 69.6753 159.298 70.253 159.171 70.8671C159.093 71.2411 158.944 71.5934 158.733 71.9016C158.522 72.2099 158.253 72.4673 157.945 72.6574C157.636 72.8475 157.294 72.9661 156.94 73.0057C156.587 73.0453 156.229 73.0049 155.891 72.8872C146.82 69.7601 107.286 53.4419 96.1273 48.828Z" fill="#FACBC1"/>
<g style="mix-blend-mode:multiply" opacity="0.5">
<path d="M157.323 72.6805C154.201 66.8384 149.935 62.3659 145.032 58.4429C139.084 53.7402 132.46 49.7727 125.473 47.3486C115.544 43.7125 104.584 42.8317 94.7666 47.5668C97.0848 45.1151 99.8318 43.1843 102.848 41.8863C117.976 35.422 137.258 42.2499 148.391 54.2533C152.964 59.1499 156.884 65.6183 157.323 72.6724V72.6805Z" fill="#FACBC1"/>
</g>
<g style="mix-blend-mode:screen" opacity="0.5">
<path d="M158.414 67.1385C154.245 57.8946 147.206 50.5738 138.9 45.7256C130.582 40.8087 121.252 38.2351 111.776 37.6978C118.943 37.0594 126.283 38.328 133.045 41.0188C144.26 45.463 154.56 54.6544 158.414 67.1264V67.1385Z" fill="#FACBC1"/>
</g>
<path d="M88.9042 54.5872C89.3615 51.448 90.8571 49.6501 92.9637 48.0583C115.375 31.1542 153.447 50.2521 158.418 75.6001C158.965 78.3757 157.402 82.9855 156.094 84.4036C155.052 85.5349 153.605 85.9349 151.862 85.1753C147.304 82.7714 146.517 81.3048 142.461 78.1131C131.628 69.3823 116.076 61.9524 103.362 60.3889C98.4663 59.7546 87.9934 63.1079 88.8967 54.6478L88.9042 54.5872Z" fill="white"/>
<path d="M89.3123 40.729C92.7881 40.729 95.6058 37.6919 95.6058 33.9456C95.6058 30.1992 92.7881 27.1621 89.3123 27.1621C85.8365 27.1621 83.0188 30.1992 83.0188 33.9456C83.0188 37.6919 85.8365 40.729 89.3123 40.729Z" fill="#FACBC1"/>
<mask id="mask3_2214_18032" style="mask-type:luminance" maskUnits="userSpaceOnUse" x="83" y="27" width="13" height="14">
<path d="M95.5074 35.1272C96.1109 31.4377 93.827 27.9197 90.406 27.2696C86.9851 26.6194 83.7225 29.0833 83.119 32.7727C82.5154 36.4622 84.7994 39.9802 88.2203 40.6304C91.6413 41.2805 94.9038 38.8167 95.5074 35.1272Z" fill="white"/>
</mask>
<g mask="url(#mask3_2214_18032)">
<g style="mix-blend-mode:screen" opacity="0.5">
<path d="M93.005 29.6505C93.5485 30.0302 94.0358 30.7534 93.8709 31.016C93.706 31.2787 93.0912 31.1292 92.6789 30.7979C92.1541 30.3939 91.9292 29.5656 92.1241 29.3677C92.3191 29.1697 92.9413 29.606 93.005 29.6505Z" fill="#FACBC1"/>
</g>
<g style="mix-blend-mode:multiply">
<path d="M81.8909 33.4609C83.5249 32.7066 85.3013 32.3799 87.0749 32.5074C92.0377 32.9114 95.0176 36.8344 95.5799 37.6101L94.2305 39.2908C93.1584 40.5716 90.3434 41.9493 87.4647 41.1008C84.466 40.2241 83.1428 37.4647 82.7942 36.7294C82.3055 35.7106 81.999 34.6018 81.8909 33.4609Z" fill="#FACBC1"/>
</g>
</g>
<mask id="mask4_2214_18032" style="mask-type:luminance" maskUnits="userSpaceOnUse" x="88" y="41" width="71" height="45">
<path d="M88.9037 54.5833C89.361 51.4441 90.8566 49.6462 92.9632 48.0544C115.375 31.1503 153.447 50.2482 158.417 75.5962C158.964 78.3718 157.401 82.9816 156.093 84.3997C155.051 85.531 153.604 85.931 151.861 85.1714C147.303 82.7675 146.516 81.3009 142.46 78.1092C131.628 69.3784 116.076 61.9485 103.361 60.385C98.4658 59.7507 87.9929 63.104 88.8962 54.6439L88.9037 54.5833Z" fill="white"/>
</mask>
<g mask="url(#mask4_2214_18032)">
<path d="M154.02 88.2013C149.5 64.7684 110.806 47.5653 91.5015 59.8272L154.02 88.2013Z" fill="#E5E5E5"/>
<path d="M146.954 74.1387C147.25 74.8497 150.38 78.3647 151.943 79.6454C152.547 80.1464 155.512 80.8817 157.409 79.0838C158.123 78.3688 158.6 77.4206 158.765 76.385C159.04 77.5068 159.245 78.6474 159.376 79.7989C159.695 82.5624 159.864 84.0492 159.032 85.3986C158.341 86.4361 157.303 87.1443 156.138 87.3743C155.361 87.4656 154.575 87.359 153.844 87.0632C151.674 86.1784 148.918 80.9302 146.954 74.1387Z" fill="#E5E5E5"/>
</g>
<path d="M151.652 95.0217C140.347 113.122 78.6785 91.2321 88.9603 62.6156C104.295 43.6268 168.025 75.5764 151.678 94.9854L151.652 95.0217Z" fill="#FACBC1"/>
<g style="mix-blend-mode:multiply">
<path d="M151.048 95.7909C139.02 110.618 94.8227 95.4516 88.1432 73.4528C88.0833 72.7414 88.1625 72.0243 88.3756 71.3479C88.9491 69.3278 90.336 67.7966 92.0902 66.7138C93.3699 65.9471 94.7462 65.385 96.1759 65.0452C118.078 60.496 145.01 73.6387 151.052 95.7505L151.048 95.7909Z" fill="#FACBC1"/>
</g>
<g style="mix-blend-mode:multiply">
<path d="M98.4737 82.6192C100.82 87.8714 107.563 91.556 108.797 92.2065C112.17 94.0003 117.009 96.5012 123.809 96.8689C127.415 97.0628 133.393 97.382 134.514 94.6145C136.014 90.8733 127.696 83.8999 126.684 83.0636C126.684 83.0636 115.731 74.0298 101.716 76.9751C98.8223 77.5811 98.2113 78.8942 98.0801 79.2214C97.7203 80.1022 97.8515 81.2011 98.4737 82.6192Z" fill="#FACBC1"/>
</g>
<g style="mix-blend-mode:screen" opacity="0.5">
<path d="M116.413 61.7704C115.123 61.9078 113.89 62.1744 112.589 62.1744C112.537 62.1744 112.364 62.1744 112.589 62.1946C112.664 62.1946 112.732 62.1946 112.709 62.1946C112.618 62.2362 112.523 62.2634 112.424 62.2754C112.323 62.2825 112.222 62.2825 112.121 62.2754C107.375 62.5542 102.686 62.6795 97.9708 63.2612C95.8417 63.4996 93.99 63.6653 91.8684 64.3359C93.2216 62.4977 95.3956 61.4351 97.4422 60.6998C102.245 59.0497 107.381 58.8914 112.263 60.2432C112.301 60.2634 112.492 60.2756 112.263 60.2877C112.188 60.2877 112.128 60.3281 112.17 60.32C112.268 60.2953 112.368 60.2805 112.469 60.2756C112.597 60.2705 112.725 60.2939 112.844 60.3442C114.025 60.7806 115.266 61.0755 116.413 61.7745V61.7704Z" fill="#FACBC1"/>
</g>
<path d="M163.526 93.7505C167.002 93.7505 169.82 90.7134 169.82 86.967C169.82 83.2206 167.002 80.1836 163.526 80.1836C160.05 80.1836 157.233 83.2206 157.233 86.967C157.233 90.7134 160.05 93.7505 163.526 93.7505Z" fill="#FACBC1"/>
<mask id="mask5_2214_18032" style="mask-type:luminance" maskUnits="userSpaceOnUse" x="157" y="80" width="13" height="14">
<path d="M169.72 88.1565C170.323 84.467 168.039 80.9491 164.618 80.2989C161.197 79.6487 157.935 82.1126 157.331 85.802C156.728 89.4915 159.012 93.0095 162.433 93.6597C165.854 94.3098 169.116 91.846 169.72 88.1565Z" fill="white"/>
</mask>
<g mask="url(#mask5_2214_18032)">
<g style="mix-blend-mode:screen" opacity="0.5">
<path d="M167.218 82.6778C167.762 83.0576 168.249 83.7808 168.084 84.0434C167.919 84.306 167.308 84.1565 166.892 83.8252C166.371 83.4212 166.143 82.593 166.341 82.395C166.54 82.197 167.155 82.6334 167.218 82.6778Z" fill="#FACBC1"/>
</g>
<g style="mix-blend-mode:multiply">
<path d="M156.105 86.4837C157.741 85.7336 159.518 85.4083 161.292 85.5342C166.252 85.9383 169.232 89.8572 169.798 90.637L168.444 92.3136C167.372 93.5984 164.561 94.9721 161.697 94.1277C158.699 93.2469 157.372 90.4915 157.023 89.7562C156.53 88.7367 156.219 87.6267 156.105 86.4837Z" fill="#FACBC1"/>
</g>
</g>
<path d="M112.369 43.2061C114.521 43.3717 114.847 44.9352 117.242 45.3756C119.236 45.7433 120.315 44.7858 123.569 45.2665C124.106 45.3154 124.636 45.4265 125.151 45.5978C127.895 46.6887 129.443 50.9147 128.251 54.167C126.819 58.0698 121.781 59.6213 118.505 59.8435C114.288 60.1222 110.022 58.4011 107.635 55.3346C107.114 54.6721 104.175 50.9187 106.053 47.1573C107.286 44.6646 109.779 43.004 112.369 43.2061Z" fill="#624E5B"/>
<path d="M133.915 51.7869C133.567 51.7827 133.23 51.6629 132.948 51.4437C132.666 51.2245 132.455 50.9167 132.342 50.5627C132.229 50.2086 132.22 49.8255 132.317 49.466C132.414 49.1065 132.612 48.7882 132.884 48.5548C134.412 47.2791 136.25 46.5086 138.177 46.3367C140.346 46.1569 142.512 46.7379 144.35 47.9932C144.545 48.1166 144.715 48.2811 144.85 48.4769C144.984 48.6726 145.081 48.8956 145.134 49.1325C145.187 49.3695 145.195 49.6154 145.158 49.8558C145.12 50.0961 145.039 50.326 144.917 50.5315C144.796 50.7371 144.637 50.9141 144.451 51.0522C144.264 51.1902 144.054 51.2864 143.833 51.3349C143.611 51.3834 143.383 51.3834 143.161 51.3347C142.94 51.286 142.73 51.1897 142.543 51.0516C141.396 50.2593 140.049 49.8696 138.688 49.9361C137.327 50.0027 136.018 50.5222 134.942 51.4233C134.646 51.6637 134.285 51.7916 133.915 51.7869Z" fill="#624E5B"/>
<path d="M101.199 47.7007C100.881 47.7007 100.57 47.604 100.301 47.4217C100.033 47.2394 99.8176 46.979 99.6804 46.6704C99.4994 46.2561 99.2447 45.8841 98.9307 45.5756C98.6021 45.2634 98.2201 45.0233 97.8062 44.8685C97.5975 44.7911 97.405 44.6701 97.2397 44.5124C97.0744 44.3547 96.9395 44.1635 96.8427 43.9497C96.746 43.7359 96.6892 43.5036 96.6757 43.2661C96.6623 43.0286 96.6923 42.7906 96.7642 42.5656C96.8361 42.3407 96.9483 42.1332 97.0946 41.955C97.2409 41.7768 97.4183 41.6314 97.6167 41.5271C98.0173 41.3165 98.4792 41.286 98.9008 41.4425C99.7391 41.7536 100.511 42.2442 101.169 42.8848C101.814 43.5076 102.338 44.263 102.709 45.1069C102.805 45.3222 102.861 45.5558 102.873 45.7944C102.885 46.0329 102.853 46.2716 102.779 46.4969C102.705 46.7221 102.591 46.9294 102.442 47.1069C102.294 47.2843 102.115 47.4285 101.914 47.531C101.69 47.6428 101.446 47.7007 101.199 47.7007Z" fill="#624E5B"/>
<path d="M58.5947 43.2061C56.4431 43.3717 56.117 44.9352 53.7218 45.3756C51.7277 45.7433 50.6481 44.7858 47.3946 45.2665C46.8578 45.3154 46.3275 45.4265 45.8128 45.5978C43.069 46.6887 41.5209 50.9147 42.7129 54.167C44.1447 58.0698 49.1825 59.6213 52.4586 59.8435C56.6755 60.1222 60.9411 58.4011 63.3289 55.3346C63.8499 54.6721 66.7886 50.9187 64.9107 47.1573C63.6775 44.6646 61.1848 43.004 58.5947 43.2061Z" fill="#624E5B"/>
<path d="M37.0491 51.7918C37.3965 51.7877 37.7341 51.6678 38.0158 51.4486C38.2974 51.2294 38.5092 50.9217 38.6221 50.5676C38.735 50.2135 38.7436 49.8304 38.6465 49.4709C38.5494 49.1114 38.3515 48.7931 38.0799 48.5597C36.5519 47.284 34.7134 46.5135 32.7872 46.3416C30.6242 46.165 28.4659 46.7445 26.6324 47.994C26.4375 48.1175 26.2676 48.282 26.133 48.4778C25.9984 48.6735 25.9017 48.8965 25.8488 49.1334C25.7958 49.3703 25.7877 49.6163 25.825 49.8567C25.8622 50.097 25.9439 50.3268 26.0654 50.5324C26.1868 50.7379 26.3454 50.915 26.5317 51.053C26.718 51.1911 26.9282 51.2872 27.1498 51.3358C27.3713 51.3843 27.5997 51.3842 27.8212 51.3356C28.0427 51.2869 28.2529 51.1906 28.4391 51.0525C29.5865 50.2601 30.9335 49.8705 32.2947 49.937C33.656 50.0036 34.9647 50.5231 36.0408 51.4241C36.3308 51.6618 36.6848 51.7909 37.0491 51.7918Z" fill="#624E5B"/>
<path d="M69.7648 47.7007C70.0822 47.7007 70.3932 47.604 70.6618 47.4217C70.9304 47.2394 71.1457 46.979 71.2828 46.6704C71.4638 46.2561 71.7186 45.8841 72.0325 45.5756C72.3612 45.2634 72.7432 45.0233 73.157 44.8685C73.3657 44.7911 73.5582 44.6701 73.7236 44.5124C73.8889 44.3547 74.0238 44.1635 74.1205 43.9497C74.2173 43.7359 74.274 43.5036 74.2875 43.2661C74.301 43.0286 74.2709 42.7906 74.1991 42.5656C74.1272 42.3407 74.0149 42.1332 73.8687 41.955C73.7224 41.7768 73.545 41.6314 73.3466 41.5271C73.1482 41.4228 72.9327 41.3617 72.7124 41.3471C72.492 41.3326 72.2712 41.365 72.0625 41.4425C71.2241 41.7536 70.4528 42.2442 69.7947 42.8848C69.1491 43.5076 68.6253 44.263 68.2542 45.1069C68.1582 45.3222 68.1026 45.5558 68.0906 45.7944C68.0786 46.0329 68.1104 46.2716 68.1843 46.4969C68.2581 46.7221 68.3725 46.9294 68.5209 47.1069C68.6692 47.2843 68.8486 47.4285 69.0488 47.531C69.2732 47.6428 69.5175 47.7007 69.7648 47.7007Z" fill="#624E5B"/>
<path d="M50.8094 118.638C68.3023 118.638 82.4831 116.545 82.4831 113.964C82.4831 111.382 68.3023 109.289 50.8094 109.289C33.3165 109.289 19.1357 111.382 19.1357 113.964C19.1357 116.545 33.3165 118.638 50.8094 118.638Z" fill="#E1E2DF"/>
<path d="M120.154 118.638C137.647 118.638 151.828 116.545 151.828 113.964C151.828 111.382 137.647 109.289 120.154 109.289C102.661 109.289 88.4805 111.382 88.4805 113.964C88.4805 116.545 102.661 118.638 120.154 118.638Z" fill="#E1E2DF"/>
</svg>
