<svg width="122" height="101" viewBox="0 0 122 101" fill="none" xmlns="http://www.w3.org/2000/svg">
<path d="M95.829 36.3199C99.0156 38.3084 103.211 37.3372 105.199 34.1506C107.188 30.9639 106.217 26.7687 103.03 24.7802C99.8434 22.7917 95.6481 23.7629 93.6596 26.9496C91.6711 30.1362 92.6424 34.3314 95.829 36.3199Z" fill="#E0C7FA"/>
<path d="M6.1062 45.4313C9.29281 47.4198 13.4881 46.4485 15.4766 43.2619C17.4651 40.0753 16.4938 35.88 13.3072 33.8915C10.1206 31.903 5.92535 32.8743 3.93684 36.0609C1.94834 39.2475 2.91959 43.4428 6.1062 45.4313Z" fill="#E0C7FA"/>
<mask id="mask0_2214_17231" style="mask-type:luminance" maskUnits="userSpaceOnUse" x="2" y="32" width="15" height="15">
<path d="M6.29972 45.2226C9.5931 47.3252 13.7884 46.5391 15.6701 43.4667C17.5518 40.3943 16.4075 36.199 13.1141 34.0963C9.82069 31.9936 5.62543 32.7798 3.7437 35.8522C1.86197 38.9246 3.00634 43.1199 6.29972 45.2226Z" fill="white"/>
</mask>
<g mask="url(#mask0_2214_17231)">
<g style="mix-blend-mode:multiply">
<path d="M16.9002 41.8229C16.1226 42.5212 14.4716 43.7719 12.0104 44.064C6.62848 44.7026 2.52487 40.1552 2.24253 39.8329C2.44187 41.1931 3.012 42.5043 3.89172 43.6259C4.04714 43.8227 6.16032 46.4124 9.42486 46.7347C12.6045 47.0473 15.6627 45.0896 16.9002 41.8229Z" fill="#E0C7FA"/>
</g>
<g style="mix-blend-mode:screen" opacity="0.5">
<path d="M12.2018 34.3562C11.5777 33.9989 10.6898 33.8374 10.5526 34.1041C10.4346 34.3356 10.8764 34.8953 11.384 35.1484C12.0277 35.4698 12.8573 35.3457 12.919 35.074C12.9807 34.8023 12.2727 34.397 12.2018 34.3562Z" fill="#E0C7FA"/>
</g>
<g style="mix-blend-mode:screen" opacity="0.5">
<path d="M9.58317 33.9157C9.26426 33.8211 8.88152 33.9297 8.88109 34.1493C8.88103 34.3399 9.16751 34.6207 9.42027 34.6709C9.73918 34.735 10.0412 34.4421 10.0103 34.2373C9.97949 34.0325 9.62164 33.9272 9.58317 33.9157Z" fill="#E0C7FA"/>
</g>
<g style="mix-blend-mode:screen" opacity="0.5">
<path d="M3.89136 34.9414C6.32325 32.9311 9.8651 32.6921 12.7204 34.3194C15.2184 35.7431 16.8346 38.3925 16.9392 41.199C17.0372 40.7816 17.6107 38.1408 15.8339 35.6549C13.8431 32.8693 10.5711 32.6185 9.97537 32.5729C6.40474 32.2977 4.21397 34.5915 3.89136 34.9414Z" fill="#E0C7FA"/>
</g>
</g>
<mask id="mask1_2214_17231" style="mask-type:luminance" maskUnits="userSpaceOnUse" x="92" y="23" width="15" height="15">
<path d="M96.0218 36.1112C99.3151 38.2139 103.51 37.4278 105.392 34.3554C107.274 31.2829 106.129 27.0877 102.836 24.985C99.5427 22.8823 95.3475 23.6684 93.4657 26.7409C91.584 29.8133 92.7284 34.0085 96.0218 36.1112Z" fill="white"/>
</mask>
<g mask="url(#mask1_2214_17231)">
<g style="mix-blend-mode:multiply">
<path d="M105.314 35.8114C104.344 36.232 102.362 36.9086 99.8785 36.466C94.4505 35.5004 91.8276 30.1122 91.6484 29.731C91.4325 31.0452 91.5918 32.4212 92.1091 33.7119C92.2014 33.9386 93.4809 36.9446 96.5561 38.1834C99.5565 39.393 103.124 38.4701 105.314 35.8114Z" fill="#E0C7FA"/>
</g>
<g style="mix-blend-mode:multiply">
<path d="M122.846 28.7612C120.951 29.5849 117.074 30.9035 112.217 30.0416C101.596 28.1499 96.4711 17.6162 96.1226 16.8699C95.8988 18.2482 95.6246 21.2218 97.0203 24.6571C97.2015 25.1009 99.6952 30.9745 105.719 33.4038C111.584 35.7593 118.566 33.9563 122.846 28.7612Z" fill="#E0C7FA"/>
</g>
<g style="mix-blend-mode:multiply">
<path d="M122.846 28.7612C120.951 29.5849 117.074 30.9035 112.217 30.0416C101.596 28.1499 96.4711 17.6162 96.1226 16.8699C95.8988 18.2482 95.6246 21.2218 97.0203 24.6571C97.2015 25.1009 99.6952 30.9745 105.719 33.4038C111.584 35.7593 118.566 33.9563 122.846 28.7612Z" fill="#E0C7FA"/>
</g>
<g style="mix-blend-mode:screen" opacity="0.5">
<path d="M93.988 28.8176C93.6578 28.806 93.2674 29.819 93.5762 30.6457C93.6909 30.9533 93.9585 31.385 94.194 31.3703C94.4674 31.3533 94.6039 30.7395 94.6059 30.3126C94.608 29.6427 94.2801 28.828 93.988 28.8176Z" fill="#E0C7FA"/>
</g>
</g>
<path d="M67.6511 19.4881C62.3753 18.5886 57.0131 17.5207 51.6396 17.7876C39.6245 18.5809 26.0981 23.2312 20.7217 34.6967C19.8199 36.5051 18.774 38.6826 18.5907 40.6673C18.4104 42.2549 19.3788 44.0776 21.1097 42.8059C37.7495 28.337 62.2792 33.3186 82.0754 38.13C86.6725 39.7848 90.9398 42.5383 94.099 46.2756C94.3257 46.5372 94.5679 46.8357 94.8324 47.0348C95.6714 47.7045 96.2522 46.8247 96.4255 45.9729C96.6548 44.9644 96.5579 43.919 96.348 42.9096C93.2843 29.7396 79.9928 22.5959 67.6656 19.4904L67.6511 19.4881Z" fill="#E0C7FA"/>
<g style="mix-blend-mode:multiply" opacity="0.5">
<path d="M24.046 39.2962C29.3582 34.0606 36.6562 30.8862 44.386 30.2021C48.2587 29.853 52.1433 30.0422 56.0453 30.4235C65.6823 31.4425 75.3882 34.071 84.0463 38.9371C85.8373 39.9017 87.4834 41.1256 88.9245 42.564C90.0494 43.6814 91.0582 44.9048 91.9338 46.2134C90.3942 44.9937 88.8658 43.8764 87.1927 42.9342C85.9056 42.1934 84.5489 41.5895 83.1476 41.1337C82.0951 40.7737 80.9666 40.3979 79.9153 40.0756C69.5313 36.8792 58.8149 35.06 48.1536 34.4206C47.0699 34.3619 45.9981 34.3347 44.9197 34.3446C40.5758 34.3752 36.3024 35.004 32.2238 36.2125C29.4043 37.0316 26.7344 38.1291 24.0476 39.2973L24.046 39.2962Z" fill="#E0C7FA"/>
</g>
<path d="M18.3515 46.0147C20.6463 42.8711 23.7257 40.4211 27.0826 38.4798C36.754 32.9438 48.6537 32.4662 59.3754 33.9543C62.7377 34.3784 65.9943 34.8884 69.209 35.3473C72.951 35.8894 76.7188 36.4248 80.4669 37.6019C81.6974 37.9934 82.9058 38.4512 84.0869 38.9734C87.5871 40.524 90.9012 42.7655 93.4522 45.6358C95.4707 47.9246 97.0733 50.5182 98.0213 53.3891C99.7928 58.7618 94.405 63.8267 89.1798 61.7981C86.9063 60.9461 84.9575 60.0134 82.8465 59.3421C80.8078 58.6933 78.8065 58.3422 76.7046 58.0415C75.3496 57.8409 73.4003 57.5664 72.047 57.3793C64.4297 56.3107 56.3529 56.0275 48.7802 55.881C41.3904 55.6356 34.0708 55.8408 26.6584 56.2511C25.9082 56.2873 25.1398 56.3235 24.3244 56.3225C18.7271 56.732 15.1441 50.6278 18.3523 46.0152L18.3515 46.0147Z" fill="white"/>
<path d="M99.7942 58.5516C100.018 58.0301 101.807 57.8805 102.923 58.8042C103.572 59.3337 104.161 60.3531 103.823 60.9396C103.414 61.6448 101.733 61.5986 100.977 60.871C100.836 60.735 100.667 60.4271 100.328 59.8092C99.9262 59.0737 99.7276 58.7072 99.7942 58.5516Z" fill="white"/>
<path d="M15.5904 53.9074C15.4262 53.3641 13.6669 53.0211 12.4547 53.805C11.7509 54.2589 11.0527 55.2071 11.3248 55.8281C11.6525 56.5743 13.3286 56.7146 14.1597 56.0749C14.3143 55.956 14.5169 55.6676 14.923 55.0913C15.4015 54.4118 15.6439 54.0723 15.5904 53.9074Z" fill="white"/>
<path d="M101.443 54.1801C101.112 53.51 102.496 51.5956 104.368 51.2572C105.454 51.0609 106.981 51.3439 107.278 52.1866C107.633 53.2015 106.148 54.8434 104.772 54.9763C104.516 55.0014 104.061 54.907 103.152 54.7183C102.083 54.4976 101.542 54.3812 101.443 54.1801Z" fill="white"/>
<mask id="mask2_2214_17231" style="mask-type:luminance" maskUnits="userSpaceOnUse" x="11" y="53" width="5" height="4">
<path d="M15.5892 54.0078C15.4012 53.4596 13.602 53.044 12.4022 53.774C11.7056 54.1968 11.0341 55.1122 11.3347 55.7423C11.6967 56.4996 13.4035 56.7097 14.222 56.1072C14.3743 55.9953 14.5687 55.7165 14.9582 55.1594C15.4173 54.5024 15.65 54.1743 15.5892 54.0078Z" fill="white"/>
</mask>
<g mask="url(#mask2_2214_17231)">
<path d="M11.7706 54.2575C11.5556 54.7381 11.5395 55.2951 11.7254 55.8183C12.1115 56.8563 13.1535 57.2163 13.2538 57.2487C12.8752 57.2947 12.4816 57.2126 12.1363 57.0158C11.7637 56.7952 11.4744 56.4559 11.3215 56.0604C11.0917 55.4358 11.2701 54.7352 11.7706 54.2575Z" fill="#E5E5E5"/>
</g>
<mask id="mask3_2214_17231" style="mask-type:luminance" maskUnits="userSpaceOnUse" x="101" y="51" width="7" height="4">
<path d="M101.452 54.0474C101.091 53.3689 102.415 51.5281 104.293 51.2709C105.382 51.1216 106.936 51.4662 107.269 52.3144C107.667 53.3359 106.232 54.9021 104.846 54.9763C104.589 54.9905 104.126 54.8779 103.2 54.6526C102.111 54.389 101.56 54.251 101.452 54.0474Z" fill="white"/>
</mask>
<g mask="url(#mask3_2214_17231)">
<path d="M101.482 52.8148C101.489 53.0723 101.559 53.3293 101.687 53.5642C101.81 53.77 101.969 53.9551 102.156 54.1102C102.613 54.49 103.731 54.9179 105.225 55.1892C103.93 54.9175 102.926 54.7525 102.22 54.6459C101.782 54.5818 101.346 54.5247 101.151 54.2162C100.844 53.7282 101.371 52.9689 101.482 52.8148Z" fill="#E5E5E5"/>
</g>
<mask id="mask4_2214_17231" style="mask-type:luminance" maskUnits="userSpaceOnUse" x="99" y="58" width="5" height="4">
<path d="M99.7494 58.494C99.9526 57.9926 101.735 57.9195 102.887 58.8698C103.555 59.415 104.183 60.4373 103.867 60.9977C103.486 61.6715 101.804 61.5572 101.021 60.8138C100.874 60.6747 100.694 60.3663 100.331 59.7474C99.9015 59.0107 99.6889 58.6437 99.7494 58.494Z" fill="white"/>
</mask>
<g mask="url(#mask4_2214_17231)">
<path d="M99.6656 58.8927C99.7013 58.8738 99.8724 59.2145 100.498 59.9144C100.973 60.4466 101.253 60.7581 101.672 61.0278C102.176 61.3453 102.746 61.536 103.326 61.5813C102.906 61.6632 102.176 61.7377 101.453 61.3826C100.094 60.7145 99.5861 58.9341 99.6656 58.8927Z" fill="#E5E5E5"/>
</g>
<mask id="mask5_2214_17231" style="mask-type:luminance" maskUnits="userSpaceOnUse" x="17" y="33" width="82" height="31">
<path d="M18.1269 44.4433C20.3018 41.4551 23.2886 39.1795 26.5728 37.4142C36.0368 32.3841 47.9263 32.4069 58.713 34.3089C62.094 34.8636 65.3726 35.4982 68.6073 36.0809C72.3729 36.767 76.164 37.4476 79.9602 38.7567C81.2067 39.1915 82.4337 39.6904 83.6358 40.2512C87.1985 41.9164 90.6015 44.2515 93.2652 47.1718C95.3737 49.4997 97.0777 52.1095 98.1374 54.9641C100.118 60.3064 94.9223 65.0512 89.615 62.8461C87.3069 61.9166 85.3206 60.9214 83.1823 60.176C81.117 59.4555 79.1008 59.0286 76.9858 58.647C75.6221 58.3943 73.6608 58.0446 72.2993 57.8052C64.6354 56.4428 56.542 55.8317 48.9584 55.3754C41.554 54.8297 34.2372 54.7289 26.8355 54.8253C26.0862 54.8299 25.3187 54.8337 24.5026 54.799C18.9173 54.9696 15.0957 48.8352 18.1278 44.4439L18.1269 44.4433Z" fill="white"/>
</mask>
<g mask="url(#mask5_2214_17231)">
<path d="M20.4492 54.3664C25.3152 51.3587 33.3569 48.6877 44.9743 48.767C49.2501 48.7939 67.1949 50.0601 84.3535 58.502C88.2646 60.426 91.7383 63.19 93.3886 64.8974" fill="#E5E5E5"/>
<path d="M41.4419 50.918C40.3352 51.3632 32.6248 51.6047 29.2587 51.1986C27.9554 51.0419 23.2941 48.3735 22.6249 44.1387C22.295 42.0612 23.0847 40.3812 23.5852 39.5287C22.0785 40.4545 20.6471 41.4864 19.3013 42.6172C16.0682 45.3326 14.3309 46.7933 14.0516 49.2786C13.7146 52.2765 15.7222 54.7331 15.8582 54.8917C16.7896 55.9065 17.9341 56.711 19.1995 57.2404C22.9678 58.8148 31.9429 56.1888 41.4419 50.918Z" fill="#E5E5E5"/>
</g>
<path d="M50.5947 50.9574C42.5389 50.0957 24.1608 49.2997 18.0613 52.4175C17.562 52.6727 16.974 53.6296 16.898 54.1455" fill="#E0C7FA"/>
<path d="M70.6078 37.9901C69.1483 37.5701 68.4845 38.6519 66.7885 38.3746C65.3725 38.1427 64.9428 37.1548 62.6716 36.6896C62.1244 36.5748 61.8508 36.5174 61.5387 36.538C59.4254 36.6553 57.1931 39.4152 57.0386 42.1421C56.8523 45.4159 59.711 47.8492 61.7934 48.8404C64.4763 50.119 67.7703 49.9133 70.2259 48.2358C70.7574 47.8727 73.767 45.8178 73.6183 42.5379C73.5206 40.3642 72.3629 38.4959 70.6078 37.9901Z" fill="#624E5B"/>
<path d="M50.0028 41.4973C51.289 41.9522 53.0384 40.3224 53.9102 37.8571C54.782 35.3917 54.4461 33.0245 53.1599 32.5697C51.8736 32.1148 50.1242 33.7446 49.2524 36.2099C48.3806 38.6752 48.7166 41.0425 50.0028 41.4973Z" fill="#624E5B"/>
<path d="M76.1283 40.9419C76.675 43.3515 78.1946 45.0648 79.5251 44.7617C80.8556 44.4585 81.4917 42.2622 80.9447 39.8512C80.3977 37.4403 78.8792 35.7288 77.5479 36.0315C76.2166 36.3341 75.5821 38.5314 76.1283 40.9419Z" fill="#624E5B"/>
<path d="M20.7455 65.8222C18.4461 63.0409 16.9682 59.4064 16.9066 55.5291C16.9101 54.9351 16.9689 54.532 17.2116 54.0941C23.4095 44.1873 86.2597 53.6774 94.2214 62.9651C95.0118 65.7615 92.7529 69.416 91.0532 71.8565C84.6099 80.9233 76.5221 79.399 66.7769 79.5788C54.7596 79.8018 30.6157 77.3788 20.7455 65.8222Z" fill="#E0C7FA"/>
<g style="mix-blend-mode:multiply">
<path d="M66.8172 79.7967C55.8874 80.0568 43.2043 79.2579 29.9897 72.7866C29.3693 72.4822 28.2937 71.7193 27.6852 71.3939C21.7006 68.1921 16.5887 62.5891 17.0424 55.4178C17.1062 54.5509 17.2107 53.6822 17.7998 53.0433C18.364 52.4116 19.4017 51.7477 20.2253 52.1007C20.6105 52.2663 20.8929 52.5729 21.1749 52.8803C35.018 68.9698 57.8252 67.9608 74.1853 55.9469C74.5769 55.6699 74.9347 55.4727 75.3473 55.4525C79.8897 56.4248 95.2136 60.0935 94.544 64.258C93.3837 70.9578 88.5645 76.8535 82.0208 78.5143C77.0562 79.7335 66.8215 79.7971 66.8172 79.7967Z" fill="#E0C7FA"/>
</g>
<g style="mix-blend-mode:multiply">
<path d="M79.2994 76.085C78.8703 77.6409 73.5272 77.8101 68.8337 77.9245C63.3965 78.0611 56.5601 78.1859 47.0042 76.09C44.3213 75.5017 31.3355 72.6596 31.4614 70.409C31.5874 68.1075 45.397 67.8367 48.4904 67.7744C64.2554 67.4669 72.0217 70.9123 74.562 72.1722C76.0622 72.9213 79.6778 74.714 79.2994 76.085Z" fill="#E0C7FA"/>
</g>
<g style="mix-blend-mode:screen" opacity="0.5">
<path d="M58.7846 53.366C60.5577 53.2649 62.3658 53.578 64.14 53.6902L64.2781 53.6985L64.3122 53.7009C64.4782 53.7186 64.6406 53.7733 64.7866 53.8608C64.8328 53.89 64.8251 53.8745 64.8069 53.8651C70.2189 54.4815 75.9309 55.9902 81.0811 58.3239C83.5655 59.4371 85.949 60.7791 88.1971 62.3304C88.4394 62.506 88.9094 62.8137 89.1597 62.9986C90.4479 63.941 91.4693 65.1259 92.4323 66.355C91.2248 65.4359 90.0287 64.4502 88.6954 63.7549C88.4303 63.6162 87.959 63.3866 87.6806 63.2416C84.6507 61.6756 81.5353 60.2932 78.3533 59.1029C74.1183 57.5122 69.7746 56.251 65.4018 55.1425L64.857 55.002L64.7204 54.967L64.6838 54.9577C64.5218 54.9275 64.3665 54.8611 64.2303 54.764C64.1776 54.7306 64.2351 54.7563 64.248 54.7484L64.212 54.7417C62.3745 54.3759 60.6146 53.7494 58.7845 53.368L58.7846 53.366Z" fill="#E0C7FA"/>
</g>
<g filter="url(#filter0_d_2214_17231)">
<path d="M111.228 30.3281C117.111 27.52 119.972 21.2441 117.617 16.3106C115.262 11.3771 108.584 9.65412 102.7 12.4623C96.8171 15.2704 93.9565 21.5463 96.3113 26.4798C98.666 31.4133 105.344 33.1363 111.228 30.3281Z" fill="#FCB006"/>
</g>
<path d="M101.694 18.4139C99.7767 20.6248 99.3996 23.3614 100.464 25.483C98.9194 23.2918 99.1465 20.1817 101.281 17.7188C103.982 14.6033 108.717 13.7088 111.857 15.7225C112.72 16.2651 113.419 17.0318 113.88 17.9409C113.448 17.3322 112.901 16.8135 112.271 16.4139C109.13 14.4039 104.394 15.2979 101.694 18.4139Z" fill="#FCB006"/>
<path d="M106.412 11.2901C100.085 12.3291 95.1976 17.7018 95.5012 23.2817C95.8048 28.8617 101.184 32.5402 107.513 31.4971C113.842 30.454 118.728 25.0859 118.423 19.5054C118.119 13.9249 112.741 10.247 106.412 11.2901ZM107.321 27.9962C103.184 28.6776 99.6687 26.2733 99.47 22.6267C99.2713 18.9801 102.463 15.4699 106.601 14.7894C110.74 14.109 114.254 16.5123 114.451 20.1584C114.649 23.8045 111.459 27.3144 107.323 27.9972L107.321 27.9962Z" fill="#FFE001"/>
<path d="M97.138 23.4735C97.3438 27.2594 99.9937 30.1292 103.678 31.1223C99.3393 30.504 96.0846 27.4246 95.8553 23.2114C95.5639 17.877 100.235 12.7422 106.288 11.7448C107.933 11.4604 109.619 11.531 111.234 11.9518C110.017 11.7838 108.783 11.8026 107.572 12.0074C101.517 13.0043 96.8466 18.1391 97.138 23.4735Z" fill="#FFE757"/>
<path d="M112.649 25.0155C109.947 28.1318 105.213 29.0255 102.073 27.0117C101.442 26.6123 100.896 26.0938 100.464 25.4852C99.3988 23.3631 99.7766 20.627 101.694 18.4161C104.394 15.3001 109.13 14.4061 112.269 16.4194C112.899 16.8189 113.446 17.3376 113.878 17.9464C114.943 20.068 114.565 22.8041 112.649 25.0155Z" fill="#F9BE08"/>
<g filter="url(#filter1_d_2214_17231)">
<path d="M108.617 16.0231L107.702 20.3321L112.329 18.443L112.686 18.6774L109.076 26.9873L107.017 25.6421L108.535 22.2073L104.635 23.8364L105.41 20.1949L102.003 22.3647L99.9436 21.019L108.274 15.7964L108.617 16.0231Z" fill="#FFE001"/>
</g>
<path d="M100.632 21.4284C101.809 20.4274 103.06 19.5354 104.338 18.6714C105.616 17.8074 106.917 16.9939 108.29 16.2797C107.114 17.2812 105.862 18.1727 104.584 19.0367C103.306 19.9007 102.005 20.7142 100.632 21.4284Z" fill="#FFE757"/>
<path d="M96.6656 31.5419C98.4142 32.633 100.716 32.1001 101.807 30.3516C102.898 28.6031 102.365 26.3011 100.617 25.21C98.8684 24.1189 96.5664 24.6518 95.4753 26.4003C94.3842 28.1489 94.9171 30.4508 96.6656 31.5419Z" fill="#E0C7FA"/>
<mask id="mask6_2214_17231" style="mask-type:luminance" maskUnits="userSpaceOnUse" x="94" y="24" width="9" height="9">
<path d="M100.634 31.6997C102.352 30.7178 102.849 28.4299 101.745 26.5895C100.64 24.749 98.3527 24.0529 96.635 25.0348C94.9173 26.0166 94.4201 28.3045 95.5244 30.1449C96.6288 31.9854 98.9166 32.6815 100.634 31.6997Z" fill="white"/>
</mask>
<g mask="url(#mask6_2214_17231)">
<g style="mix-blend-mode:multiply">
<path d="M102.971 27.6294C102.797 28.6359 102.322 29.5463 101.603 30.248C99.5014 32.2491 96.2542 31.349 96.0258 31.2825C96.5558 31.8756 97.2294 32.3281 97.9741 32.5914C98.1052 32.6376 99.8596 33.2202 101.367 32.3483C102.834 31.4985 103.508 29.5925 102.971 27.6294Z" fill="#E0C7FA"/>
</g>
<g style="mix-blend-mode:screen" opacity="0.5">
<path d="M100.031 25.8131C100.032 25.6202 98.9845 25.1911 98.0528 25.4221C97.5371 25.5493 97.0538 25.879 97.1056 26.0155C97.1165 26.0453 97.1612 26.0848 97.7529 26.1019C98.192 26.1294 98.6295 26.1169 99.0597 26.0646C99.6361 25.9848 100.03 25.9311 100.031 25.8131Z" fill="#E0C7FA"/>
</g>
</g>
<g style="mix-blend-mode:multiply">
<path d="M54.3755 96.7108C70.63 96.7108 83.8068 95.6628 83.8068 94.3701C83.8068 93.0773 70.63 92.0293 54.3755 92.0293C38.1211 92.0293 24.9443 93.0773 24.9443 94.3701C24.9443 95.6628 38.1211 96.7108 54.3755 96.7108Z" fill="black" fill-opacity="0.1"/>
</g>
<defs>
<filter id="filter0_d_2214_17231" x="95.4867" y="11.1152" width="23.3953" height="21.0009" filterUnits="userSpaceOnUse" color-interpolation-filters="sRGB">
<feFlood flood-opacity="0" result="BackgroundImageFix"/>
<feColorMatrix in="SourceAlpha" type="matrix" values="0 0 0 0 0 0 0 0 0 0 0 0 0 0 0 0 0 0 127 0" result="hardAlpha"/>
<feOffset dx="0.440394" dy="0.440394"/>
<feColorMatrix type="matrix" values="0 0 0 0 0.988235 0 0 0 0 0.690196 0 0 0 0 0.0235294 0 0 0 1 0"/>
<feBlend mode="normal" in2="BackgroundImageFix" result="effect1_dropShadow_2214_17231"/>
<feBlend mode="normal" in="SourceGraphic" in2="effect1_dropShadow_2214_17231" result="shape"/>
</filter>
<filter id="filter1_d_2214_17231" x="99.9436" y="15.7969" width="13.1343" height="11.5808" filterUnits="userSpaceOnUse" color-interpolation-filters="sRGB">
<feFlood flood-opacity="0" result="BackgroundImageFix"/>
<feColorMatrix in="SourceAlpha" type="matrix" values="0 0 0 0 0 0 0 0 0 0 0 0 0 0 0 0 0 0 127 0" result="hardAlpha"/>
<feOffset dx="0.391354" dy="0.391354"/>
<feColorMatrix type="matrix" values="0 0 0 0 0.988235 0 0 0 0 0.690196 0 0 0 0 0.0235294 0 0 0 1 0"/>
<feBlend mode="normal" in2="BackgroundImageFix" result="effect1_dropShadow_2214_17231"/>
<feBlend mode="normal" in="SourceGraphic" in2="effect1_dropShadow_2214_17231" result="shape"/>
</filter>
</defs>
</svg>
