<svg width="41" height="29" viewBox="0 0 41 29" fill="none" xmlns="http://www.w3.org/2000/svg">
<path fill-rule="evenodd" clip-rule="evenodd" d="M34.7255 28.4438L39.4361 26.3321C40.2719 25.9365 40.837 25.0247 40.837 23.8812V7.93869C40.837 6.25708 39.6148 4.71123 38.1071 4.48594L8.27109 0.0275618C7.78863 -0.0445318 7.33541 0.0273369 6.94211 0.213516L2.21342 2.33268C1.37765 2.72831 0.8125 3.64013 0.8125 4.78362V20.7273C0.8125 22.4089 2.03473 23.9548 3.54242 24.1801L33.3785 28.6385C33.8683 28.7117 34.328 28.6364 34.7255 28.4438Z" fill="black"/>
<path d="M1.5625 4.7836C1.5625 3.47119 2.46117 2.74346 3.43157 2.88847L33.2676 7.34684C34.3542 7.50921 35.3584 8.69055 35.3584 10.0578V26.0003C35.3584 27.3127 34.4597 28.0405 33.4893 27.8955L3.65325 23.4371C2.56664 23.2747 1.5625 22.0934 1.5625 20.7261V4.7836Z" fill="#FFDB58" stroke="black" stroke-width="1.5"/>
<path d="M9.77859 7.39978L5.99219 6.83398V20.1095L9.09941 20.5739V12.7146L11.4935 19.6249L13.8027 19.9699L16.1968 13.7751L16.2138 21.6369L19.304 22.0987V8.82316L15.5176 8.25736L12.6481 15.1765L9.77859 7.39978ZM31.0426 10.5772L21.3134 9.12342V22.399L31.2124 23.8782V20.8481L24.8451 19.8966V17.7945L30.4653 18.6343V15.6043L24.8451 14.7644V12.6813L31.0426 13.6073V10.5772Z" fill="black"/>
</svg>
