<svg width="117" height="93" viewBox="0 0 117 93" fill="none" xmlns="http://www.w3.org/2000/svg">
<path d="M102.627 26.2461C106.737 26.2461 110.068 22.9145 110.068 18.8047C110.068 14.6949 106.737 11.3633 102.627 11.3633C98.5172 11.3633 95.1855 14.6949 95.1855 18.8047C95.1855 22.9145 98.5172 26.2461 102.627 26.2461Z" fill="#FACBC1"/>
<mask id="mask0_2214_18225" style="mask-type:luminance" maskUnits="userSpaceOnUse" x="95" y="11" width="16" height="16">
<path d="M110.056 19.2688C110.307 15.1655 107.185 11.6363 103.084 11.3862C98.9831 11.1361 95.4558 14.2598 95.2056 18.3631C94.9553 22.4665 98.0769 25.9957 102.178 26.2458C106.279 26.4959 109.806 23.3722 110.056 19.2688Z" fill="white"/>
</mask>
<g mask="url(#mask0_2214_18225)">
<g style="mix-blend-mode:multiply">
<path d="M111.821 21.9319C109.975 23.1784 107.806 23.858 105.579 23.887C99.1361 23.887 95.4265 17.9682 95.1724 17.5469C95.0808 19.1748 95.4338 20.7969 96.1934 22.2396C96.3294 22.4937 98.1819 25.8354 101.92 26.6692C105.552 27.4806 109.596 25.6036 111.821 21.9319Z" fill="#FACBC1"/>
</g>
<g style="mix-blend-mode:screen" opacity="0.5">
<path d="M106.43 13.6351C107.117 13.9785 107.781 14.7007 107.619 15.0084C107.48 15.2737 106.727 15.2313 106.192 14.9326C105.523 14.5469 105.153 13.6864 105.365 13.4479C105.577 13.2093 106.352 13.5995 106.43 13.6351Z" fill="#FACBC1"/>
</g>
</g>
<path d="M17.1934 26.2461C21.3031 26.2461 24.6348 22.9145 24.6348 18.8047C24.6348 14.6949 21.3031 11.3633 17.1934 11.3633C13.0836 11.3633 9.75195 14.6949 9.75195 18.8047C9.75195 22.9145 13.0836 26.2461 17.1934 26.2461Z" fill="#FACBC1"/>
<mask id="mask1_2214_18225" style="mask-type:luminance" maskUnits="userSpaceOnUse" x="9" y="11" width="16" height="16">
<path d="M17.6456 26.2349C21.7465 25.9848 24.8681 22.4556 24.6178 18.3522C24.3676 14.2489 20.8403 11.1252 16.7393 11.3753C12.6384 11.6254 9.51684 15.1546 9.76709 19.258C10.0173 23.3613 13.5447 26.485 17.6456 26.2349Z" fill="white"/>
</mask>
<g mask="url(#mask1_2214_18225)">
<g style="mix-blend-mode:multiply">
<path d="M7.99951 21.9241C9.84501 23.1706 12.0147 23.8501 14.2416 23.8792C20.6842 23.8792 24.3938 17.9604 24.6479 17.5391C24.7406 19.167 24.3876 20.7895 23.6269 22.2317C23.4909 22.4859 21.6384 25.8276 17.8998 26.6614C14.2683 27.4728 10.2288 25.5957 7.99951 21.9241Z" fill="#FACBC1"/>
</g>
<g style="mix-blend-mode:screen" opacity="0.5">
<path d="M13.3901 13.6273C12.7034 13.9706 12.0391 14.6929 12.2018 15.0006C12.3401 15.2659 13.0936 15.2235 13.6308 14.9248C14.2996 14.5391 14.6675 13.6786 14.4579 13.4401C14.2483 13.2015 13.4681 13.5917 13.3901 13.6273Z" fill="#FACBC1"/>
</g>
</g>
<path d="M53.5956 17.6015C58.5 17.2136 63.4892 16.6786 68.3803 17.3675C79.3038 19.0862 91.293 24.4566 95.2634 35.3891C95.9433 37.1168 96.7147 39.1968 96.7191 41.027C96.7548 42.4939 94.841 44.3873 93.3608 43.0809C79.3362 28.4679 57.4318 32.6226 38.9242 35.3891C34.5837 36.5238 30.9637 37.3866 27.7669 40.5522C27.5441 40.7871 27.0825 40.9954 26.8176 41.1815C25.995 41.7254 25.1764 40.2423 25.0895 39.4487C24.9949 38.5052 25.1052 37.5523 25.4128 36.6554C29.3029 24.8557 42.05 19.4184 53.5777 17.6015H53.5956Z" fill="#FACBC1"/>
<g style="mix-blend-mode:multiply" opacity="0.5">
<path d="M91.7367 40.4746C84.5383 36.0628 77.4179 33.41 68.951 32.9864C58.8188 32.4046 48.5841 32.9597 38.6325 34.9928L37.6316 35.2157C34.6711 35.7998 31.9892 37.1953 29.3408 38.9453C31.3066 36.3498 33.9206 34.317 36.9204 33.0511C45.744 29.2479 55.5284 27.995 65.0698 28.4654C67.9389 28.6393 70.7835 28.9112 73.608 29.5555C80.6348 31.1004 87.1443 34.9393 91.7278 40.4791L91.7367 40.4746Z" fill="#FACBC1"/>
</g>
<path d="M96.5029 46.7564C94.666 43.6911 92.0443 41.1965 89.1462 39.1433C80.744 33.2803 69.8985 31.8736 59.9736 32.3351C56.866 32.4443 53.8408 32.6427 50.8625 32.7988C47.3959 32.9838 43.9048 33.1621 40.3848 33.929C39.2268 34.1853 38.0837 34.5046 36.9606 34.8854C33.63 36.0134 30.4131 37.7835 27.845 40.2045C25.8002 42.0937 24.1598 44.3779 23.023 46.9191C20.9587 51.6876 25.4752 56.7682 30.4154 55.3414C32.5666 54.7507 34.4281 54.0574 36.4122 53.6182C38.2969 53.229 40.2114 53.0008 42.1348 52.936C43.3921 52.8647 45.2001 52.7777 46.4507 52.7131C53.5064 52.3653 60.9166 52.7733 67.852 53.2637C74.6313 53.6494 81.308 54.443 88.0539 55.4306C88.7383 55.5242 89.4383 55.6223 90.1851 55.6892C95.2701 56.5252 99.051 51.2306 96.4962 46.7542L96.5029 46.7564Z" fill="white"/>
<mask id="mask2_2214_18225" style="mask-type:luminance" maskUnits="userSpaceOnUse" x="22" y="31" width="76" height="24">
<path d="M96.503 45.9336C94.666 42.8705 92.0444 40.3737 89.1463 38.3227C80.7574 32.4597 69.9119 31.0396 59.9871 31.5145C56.8794 31.6215 53.8543 31.8221 50.8759 31.9759C47.4094 32.1632 43.9183 32.3415 40.3982 33.1084C39.2406 33.365 38.0975 33.6835 36.974 34.0626C33.6434 35.1928 30.4266 36.9606 27.8584 39.3839C25.8136 41.2731 24.1732 43.5573 23.0364 46.0985C20.9721 50.8648 25.4887 55.9476 30.4288 54.5186C32.5801 53.9301 34.4415 53.2368 36.4256 52.7976C38.3105 52.4088 40.2248 52.1799 42.1482 52.1132C43.4055 52.0418 45.2135 51.9549 46.4641 51.8903C53.5199 51.5425 60.9301 51.9504 67.8654 52.4431C74.6447 52.8288 81.3215 53.6224 88.0673 54.6078C88.7517 54.7036 89.4517 54.8017 90.1985 54.8664C95.2836 55.7024 99.0644 50.4078 96.5097 45.9313L96.503 45.9336Z" fill="white"/>
</mask>
<g mask="url(#mask2_2214_18225)">
<path d="M93.7722 54.6798C89.4607 51.2623 82.2355 47.7556 71.5795 46.4203C67.6626 45.9276 51.1613 44.94 35.0324 50.8164C31.354 52.154 28.039 54.341 26.4429 55.7499" fill="#E5E5E5"/>
<path d="M75.0237 47.9205C76.009 48.4689 83.009 49.6259 86.0899 49.6505C87.2826 49.6616 91.6453 47.7355 92.4613 43.8543C92.8625 41.9549 92.225 40.2874 91.8125 39.4336C93.1378 40.48 94.3892 41.6166 95.5578 42.8355C98.3667 45.7603 99.8759 47.332 100.016 49.6884C100.177 52.5263 98.2329 54.5928 98.1014 54.711C97.2057 55.5442 96.1267 56.1551 94.9514 56.4944C91.4425 57.5288 83.4036 53.9954 75.0237 47.9205Z" fill="#E5E5E5"/>
</g>
<path d="M66.5991 47.7931C74.0383 47.6705 90.9119 48.4619 96.2332 51.8059C96.6791 52.0823 97.1249 53.0052 97.1539 53.4845L66.5991 47.7931Z" fill="#FACBC1"/>
<path d="M92.6685 63.853C95.1082 61.3999 96.6459 58.1934 97.0313 54.7552C97.0995 54.303 97.044 53.8408 96.8708 53.4176C92.0198 43.845 33.7526 47.3339 25.7026 55.1698C24.7485 57.6622 26.5141 61.189 27.865 63.5654C33.008 72.3912 40.5319 71.6644 49.429 72.6342C60.4039 73.8291 82.6813 73.6062 92.6685 63.853Z" fill="#FACBC1"/>
<g style="mix-blend-mode:multiply">
<path d="M49.3778 72.8273C59.3539 73.9665 71.0176 74.2853 83.6399 69.4566C84.2329 69.2337 85.2784 68.6206 85.8692 68.3732C91.6074 65.9388 96.7459 61.2394 96.922 54.6407C96.9376 53.8448 96.922 53.0378 96.4249 52.4114C95.9278 51.7849 95.0695 51.0939 94.2848 51.3502C93.932 51.4924 93.6141 51.7091 93.3529 51.9856C79.3618 65.5575 58.587 62.7509 44.6138 50.4117C44.3348 50.1324 43.9796 49.9417 43.5927 49.8633C39.3571 50.376 25.0383 52.4671 25.3125 56.3282C25.8185 62.5502 29.7399 68.3419 35.5873 70.4018C40.0169 71.9222 49.3733 72.8251 49.3778 72.8273Z" fill="#FACBC1"/>
</g>
<g style="mix-blend-mode:screen" opacity="0.5">
<path d="M58.8702 49.7055C57.1915 49.8549 55.3702 50.2472 53.7696 50.3743C53.7874 50.3743 53.8008 50.3743 53.7696 50.3899C53.6995 50.4309 53.6246 50.4631 53.5466 50.4857C53.4668 50.5053 53.3855 50.5187 53.3036 50.5259L53.1766 50.5415L52.666 50.6106C45.1622 51.5513 37.7297 53.1787 30.7119 56.0412C29.4457 56.545 28.2887 57.3408 27.1272 58.0743C28.0813 57.0176 29.0845 56.0099 30.324 55.2654C37.1813 51.1724 45.4476 49.3867 53.2858 49.4692C53.268 49.4692 53.259 49.4848 53.3036 49.4692C53.4257 49.4125 53.5572 49.3793 53.6915 49.3711H53.7852H53.9122C55.5574 49.4759 57.2428 49.3934 58.8746 49.6988L58.8702 49.7055Z" fill="#FACBC1"/>
</g>
<path d="M68.6368 31.2669C65.984 30.8367 65.0432 32.8564 62.0024 32.7271C59.4655 32.6179 58.5024 30.9883 54.4228 30.6494C53.433 30.5669 52.9403 30.5268 52.3986 30.6204C48.7091 31.2625 45.3629 36.5258 45.6617 41.301C46.0228 47.0325 51.5537 50.6641 55.4238 51.9637C60.4085 53.6313 66.1556 52.5902 70.1238 49.1637C70.9798 48.4236 75.8397 44.2236 74.8922 38.55C74.2457 34.7914 71.8203 31.7819 68.6368 31.2669Z" fill="#624E5B"/>
<path d="M43.937 34.7436C44.5743 31.9087 43.8913 29.3409 42.4114 29.0082C40.9314 28.6755 39.2151 30.7039 38.5778 33.5388C37.9405 36.3737 38.6235 38.9416 40.1034 39.2743C41.5834 39.607 43.2997 37.5785 43.937 34.7436Z" fill="#624E5B"/>
<path d="M76.2965 35.2284C77.2172 37.8166 79.121 39.502 80.55 38.9937C81.979 38.4854 82.3892 35.9752 81.4707 33.387C80.5522 30.7988 78.6462 29.1134 77.2172 29.6217C75.7882 30.13 75.3758 32.6402 76.2965 35.2284Z" fill="#624E5B"/>
<g style="mix-blend-mode:multiply">
<path d="M59.9268 88.2069C76.1812 88.2069 89.358 87.1589 89.358 85.8662C89.358 84.5734 76.1812 83.5254 59.9268 83.5254C43.6724 83.5254 30.4956 84.5734 30.4956 85.8662C30.4956 87.1589 43.6724 88.2069 59.9268 88.2069Z" fill="black" fill-opacity="0.1"/>
</g>
</svg>
