<svg width="230" height="275" viewBox="0 0 230 275" fill="none" xmlns="http://www.w3.org/2000/svg">
<path d="M111.87 274.99C165.111 274.99 208.272 231.957 208.272 178.874C208.272 125.79 165.111 82.7578 111.87 82.7578C58.6289 82.7578 15.4683 125.79 15.4683 178.874C15.4683 231.957 58.6289 274.99 111.87 274.99Z" fill="#FAE6A2"/>
<path d="M111.87 274.99C165.111 274.99 208.272 231.957 208.272 178.874C208.272 125.79 165.111 82.7578 111.87 82.7578C58.6289 82.7578 15.4683 125.79 15.4683 178.874C15.4683 231.957 58.6289 274.99 111.87 274.99Z" fill="#FAE6A2"/>
<mask id="mask0_2719_19419" style="mask-type:luminance" maskUnits="userSpaceOnUse" x="15" y="82" width="194" height="193">
<path d="M111.869 274.986C165.111 274.986 208.271 231.953 208.271 178.87C208.271 125.786 165.111 82.7539 111.869 82.7539C58.6281 82.7539 15.4675 125.786 15.4675 178.87C15.4675 231.953 58.6281 274.986 111.869 274.986Z" fill="white"/>
</mask>
<g mask="url(#mask0_2719_19419)">
<path d="M19.9684 127.396C24.1108 129.058 27.7872 131.696 30.6824 135.085C32.4488 137.156 37.3216 142.937 36.2495 149.611C36.0546 150.826 35.8171 151.099 34.9644 153.455C33.9289 156.328 28.5506 171.206 32.8203 174.389C34.2761 175.47 35.4516 174.158 36.6759 175.239C39.3864 177.625 33.8436 184.13 35.8232 192.753C36.2922 194.806 36.8586 197.271 38.8199 199.591C41.2563 202.458 44.0704 203.065 44.3871 205.573C44.6125 207.328 43.3151 207.692 43.5344 209.417C43.8145 211.658 46.1778 212.277 49.9603 215.399C52.237 217.259 54.2546 219.414 55.96 221.806C58.1953 225.079 58.8349 227.879 59.3831 229.494C62.2032 237.832 73.1243 246.529 82.9491 246.577C89.8319 246.614 89.6796 242.375 99.2303 241.883C103.933 241.634 106.862 242.49 113.367 241.452C117.436 240.79 117.893 240.189 120.677 239.745C128.705 238.458 133.924 242.101 139.528 243.589C147.915 245.818 155.255 242.703 165.238 238.464C181.465 231.571 190.662 219.79 196.911 211.549C212.797 190.694 218.352 168.559 220.471 154.312C222.152 164.982 227.171 205.105 201.839 240.383C171.932 282.073 110.157 302.424 63.8843 278.405C20.9246 256.112 11.8674 206.229 10.3263 196.385C5.33783 164.362 14.925 138.674 19.9684 127.396Z" fill="#FAE6A2"/>
<g style="mix-blend-mode:multiply">
<path d="M23.3979 224.369C27.2901 228.505 32.3639 229.968 35.8235 228.213C37.0987 227.534 38.142 226.492 38.8203 225.219C40.0942 229.579 42.4505 233.548 45.6711 236.759C48.8918 239.97 52.8727 242.32 57.2455 243.59C56.2283 244.604 55.942 245.46 55.9603 246.153C56.07 251.193 72.2476 254.302 74.3794 254.697C81.3336 259.503 88.8074 263.514 96.6602 266.655C109.76 271.874 123.717 274.627 137.823 274.774C129.499 277.839 120.76 279.638 111.9 280.112C79.6177 281.807 56.6547 264.93 51.9159 261.286C39.3977 251.617 29.5784 238.905 23.3979 224.369Z" fill="#FAE6A2"/>
</g>
<g style="mix-blend-mode:screen" opacity="0.5">
<path d="M19.9683 127.395C24.1107 129.057 27.7871 131.695 30.6823 135.084C32.4487 137.155 37.3215 142.936 36.2494 149.61C36.0545 150.825 35.817 151.098 34.9643 153.454C33.9288 156.327 28.5505 171.205 32.8202 174.388C34.276 175.469 35.4515 174.157 36.6758 175.238C39.3863 177.624 33.8435 184.129 35.8231 192.752C36.2921 194.805 36.8585 197.27 38.8198 199.59C41.2562 202.457 44.0703 203.064 44.387 205.572C44.6124 207.327 43.315 207.691 43.5343 209.416C43.8144 211.657 46.1777 212.276 49.9602 215.398C52.2369 217.258 54.2545 219.413 55.9599 221.805C58.1952 225.078 58.8348 227.878 59.383 229.493C62.2031 237.831 73.1242 246.528 82.949 246.576C89.8318 246.613 89.6795 242.374 99.2302 241.882C103.932 241.633 106.862 242.489 113.367 241.451C117.436 240.789 117.893 240.188 120.677 239.744C128.704 238.457 133.924 242.1 139.528 243.588C147.915 245.817 155.255 242.702 165.238 238.463C181.464 231.57 190.662 219.789 196.911 211.548C212.796 190.693 218.351 168.558 220.471 154.311C219.748 146.76 217.945 139.351 215.117 132.308C199.567 93.782 157.862 80.3062 149.566 77.6523C140.984 74.877 99.5164 61.4863 59.5962 84.9094C36.5053 98.4459 24.8289 117.916 19.9683 127.395Z" fill="#FAE6A2"/>
</g>
</g>
<g style="mix-blend-mode:multiply">
<path d="M110.798 166.268C106.681 167.483 106.486 167.604 105.657 167.549C100.413 167.228 97.13 161.13 96.661 160.292C96.1067 159.236 93.0064 153.308 95.8022 148.329C97.1787 145.899 99.3349 144.819 101.802 143.628C105.213 141.989 113.49 138.005 119.368 142.347C124.143 145.875 124.089 152.501 124.083 153.454C124.083 154.669 124.028 160.298 120.227 163.28C119.137 164.136 118.796 163.942 110.798 166.268Z" fill="#FAE6A2"/>
</g>
<g style="mix-blend-mode:multiply">
<path d="M167.354 160.292C165.082 159.955 162.773 159.955 160.501 160.292C158.613 160.59 153.436 161.416 149.787 165.418C147.674 167.732 147.046 170.058 145.932 174.388C144.104 181.402 143.166 184.894 144.22 188.908C145.962 195.552 151.956 200.987 158.783 202.578C162.19 203.351 165.741 203.205 169.071 202.153C180.79 198.467 184.146 185.246 184.494 183.782C185.279 180.473 186.814 174.005 183.208 168.406C179.024 161.896 170.594 160.742 167.354 160.292Z" fill="#FAE6A2"/>
</g>
<g style="mix-blend-mode:multiply">
<path d="M200.341 193.184C200.366 191.393 199.923 189.627 199.056 188.058C198.41 186.929 197.631 185.562 196.486 185.495C194.987 185.398 193.787 187.59 193.063 188.908C192.453 189.995 190.273 193.991 191.777 198.309C192.161 199.414 192.849 201.388 194.348 201.728C196.601 202.232 198.873 198.607 199.056 198.309C199.966 196.758 200.412 194.979 200.341 193.184Z" fill="#FAE6A2"/>
</g>
<g style="mix-blend-mode:multiply">
<path d="M145.931 221.373C145.784 220.479 145.496 219.614 145.078 218.81C143.294 215.731 139.377 214.997 136.935 214.559C134.492 214.122 129.589 213.187 124.509 215.841C122.828 216.721 118.357 219.053 117.2 223.954C116.732 225.946 116.883 228.032 117.632 229.936C119.916 235.529 126.903 236.786 129.205 237.223C132.05 237.825 135.004 237.678 137.775 236.798C139.45 236.24 144.104 234.691 145.913 230.385C147.289 227.124 146.479 223.705 145.931 221.373Z" fill="#FAE6A2"/>
</g>
<g style="mix-blend-mode:multiply">
<path d="M109.086 200.016C109.183 201.516 110.779 202.482 111.656 203.01C112.351 203.429 117.37 206.447 120.226 203.86C120.899 203.211 121.377 202.387 121.604 201.481C121.831 200.575 121.799 199.624 121.512 198.735C120.659 196.178 117.906 195.492 117.248 195.322C115.911 195.018 114.515 195.097 113.222 195.551C111.929 196.004 110.79 196.813 109.939 197.885C109.396 198.463 109.092 199.224 109.086 200.016Z" fill="#FAE6A2"/>
</g>
<g style="mix-blend-mode:multiply">
<path d="M26.6083 223.297C27.4428 225.422 30.2629 226.005 32.1816 225.435C33.3206 225.088 34.9834 224.08 35.1783 222.441C35.3489 221.032 34.3438 219.939 33.8931 219.453C33.6312 219.167 32.0658 217.449 30.0375 217.74C27.729 218.08 25.6947 220.953 26.6083 223.297Z" fill="#FAE6A2"/>
</g>
<g style="mix-blend-mode:multiply">
<path d="M133.505 264.091C132.531 265.209 130.612 266.812 124.083 267.936C119.49 268.731 116.707 269.211 115.939 267.936C115.013 266.393 117.663 263.302 118.083 262.81C121.263 259.106 126.568 257.423 130.935 258.559C131.818 258.784 134.413 259.452 134.791 261.122C135.065 262.294 134.078 263.448 133.505 264.091Z" fill="#FAE6A2"/>
</g>
<g style="mix-blend-mode:multiply">
<path d="M60.6694 160.293C60.3073 160.761 59.8561 161.152 59.3418 161.445C58.8275 161.738 58.2603 161.926 57.6727 162C56.2474 162.146 54.3104 161.593 53.8171 160.293C53.1471 158.532 55.2667 155.751 57.6727 155.593C59.372 155.484 61.3272 156.668 61.5282 158.156C61.5346 158.953 61.2261 159.721 60.6694 160.293Z" fill="#FAE6A2"/>
</g>
<mask id="mask1_2719_19419" style="mask-type:luminance" maskUnits="userSpaceOnUse" x="53" y="155" width="9" height="8">
<path d="M60.6699 160.295C60.3078 160.763 59.8566 161.154 59.3423 161.447C58.828 161.74 58.2608 161.928 57.6731 162.002C56.2479 162.148 54.3109 161.595 53.8176 160.295C53.1475 158.534 55.2672 155.753 57.6731 155.595C59.3725 155.486 61.3277 156.67 61.5287 158.158C61.5351 158.955 61.2266 159.723 60.6699 160.295Z" fill="white"/>
</mask>
<g mask="url(#mask1_2719_19419)">
<g style="mix-blend-mode:multiply">
<path d="M51.2476 159.469C52.8912 158.358 54.8316 157.763 56.8178 157.763C58.8039 157.763 60.7443 158.358 62.388 159.469C62.6644 158.906 62.8256 158.294 62.8622 157.669C62.8988 157.043 62.8101 156.416 62.6011 155.825C61.6509 153.548 58.6116 152.904 56.6015 153.263C53.9276 153.718 51.7348 156.208 51.2476 159.469Z" fill="#FAE6A2"/>
</g>
</g>
<mask id="mask2_2719_19419" style="mask-type:luminance" maskUnits="userSpaceOnUse" x="94" y="140" width="31" height="28">
<path d="M110.798 166.27C106.681 167.485 106.486 167.606 105.657 167.551C100.413 167.229 97.13 161.132 96.661 160.294C96.1067 159.238 93.0064 153.31 95.8022 148.331C97.1787 145.901 99.3349 144.82 101.802 143.63C105.213 141.99 113.49 138.007 119.368 142.349C124.143 145.877 124.089 152.503 124.083 153.456C124.083 154.671 124.028 160.3 120.227 163.282C119.137 164.138 118.796 163.944 110.798 166.27Z" fill="white"/>
</mask>
<g mask="url(#mask2_2719_19419)">
<g style="mix-blend-mode:multiply">
<path d="M96.2346 162.859C95.993 159.174 96.7305 155.492 98.3725 152.182C99.5542 149.851 101.881 145.235 106.943 143.638C112.132 142.004 116.822 144.597 118.942 145.776C122.166 147.591 124.832 150.25 126.653 153.464C127.14 151.697 128.34 146.425 125.581 141.719C120.416 132.901 106.699 135.16 105.871 135.312C100.51 136.271 90.034 140.17 89.163 148.982C88.3833 156.67 95.5463 162.33 96.2346 162.859Z" fill="#FAE6A2"/>
</g>
</g>
<g style="mix-blend-mode:multiply">
<path d="M73.8132 236.377C70.3718 232.405 74.1238 228.033 78.5763 227.474C81.0127 227.189 83.1872 227.899 85.3556 228.75C88.0295 230.001 91.1968 230.918 92.8231 233.766C94.3215 236.978 93.079 240.288 90.7522 242.408C90.7268 242.427 90.6956 242.438 90.6633 242.439C90.6311 242.439 90.5996 242.428 90.5739 242.409C90.5482 242.39 90.5296 242.362 90.5211 242.331C90.5126 242.3 90.5146 242.267 90.5269 242.238C91.5258 240.015 92.1166 237.24 90.7948 235.041C89.3208 233.098 86.3728 232.533 84.2044 231.507C81.8716 230.559 79.3316 229.582 76.8952 230.468C76.2932 230.611 75.7305 230.885 75.2479 231.271C74.7653 231.657 74.3748 232.146 74.1049 232.701C73.8349 233.256 73.6922 233.864 73.6871 234.481C73.6819 235.098 73.8145 235.708 74.0751 236.268C74.0829 236.303 74.0779 236.34 74.0608 236.372C74.0437 236.404 74.0157 236.429 73.9819 236.442C73.9481 236.455 73.9107 236.456 73.8764 236.444C73.8421 236.432 73.8132 236.408 73.7949 236.377H73.8132Z" fill="#FAE6A2"/>
<path d="M173.066 220.859C171.756 220.651 170.538 220.057 169.571 219.151C168.603 218.246 167.93 217.072 167.639 215.782C166.214 208.859 173.645 202.525 180.394 204.668C183.939 205.707 185.352 209.253 184.176 212.612C183.494 214.865 182.398 217.178 180.522 218.684C180.499 218.712 180.467 218.731 180.432 218.738C180.397 218.744 180.361 218.739 180.329 218.721C180.298 218.704 180.274 218.676 180.261 218.643C180.249 218.609 180.248 218.572 180.26 218.539C181.626 215.99 182.284 213.124 182.166 210.237C181.831 207.049 177.903 206.788 175.466 207.608C171.842 208.737 168.851 212.806 169.875 216.638C170.141 217.487 170.572 218.275 171.143 218.958C171.715 219.64 172.416 220.204 173.206 220.616C173.234 220.638 173.253 220.67 173.26 220.705C173.267 220.74 173.261 220.776 173.243 220.807C173.226 220.839 173.198 220.863 173.164 220.875C173.131 220.888 173.094 220.889 173.06 220.877L173.066 220.859Z" fill="#FAE6A2"/>
<path d="M165.141 256.531C163.234 256.81 161.639 255.189 161.584 253.282C161.571 251.628 162.087 250.014 163.058 248.673C164.339 246.808 166.055 245.282 168.057 244.224C170.06 243.166 172.291 242.609 174.558 242.6C174.728 242.6 174.862 242.727 174.716 242.855C173.345 243.747 171.993 244.677 170.671 245.606C168.162 247.531 160.183 253.452 165.281 256.264C165.433 256.379 165.324 256.537 165.141 256.531Z" fill="#FAE6A2"/>
<path d="M138.085 171.031C136.203 170.564 135.314 170.661 134.126 171.129C133.846 171.189 133.432 171.214 132.81 171.384C131.836 171.676 130.924 172.143 130.118 172.762C130.108 172.774 130.095 172.783 130.081 172.79C130.067 172.796 130.051 172.799 130.036 172.799C130.02 172.799 130.005 172.796 129.991 172.79C129.977 172.783 129.964 172.774 129.954 172.762C129.954 168.785 134.826 166.471 137.567 169.659C137.732 169.859 138.84 171.311 138.085 171.056V171.031Z" fill="#FAE6A2"/>
<path d="M92.2992 169.13C92.2017 166.786 94.6747 165.693 96.5629 166.537C98.4511 167.381 99.316 169.756 97.6653 171.353C97.5983 171.42 97.4582 171.59 97.3791 171.432C97.2157 170.957 96.953 170.521 96.6084 170.155C96.2638 169.788 95.8451 169.499 95.38 169.305C94.9149 169.112 94.4139 169.019 93.9101 169.033C93.4064 169.047 92.9113 169.167 92.4576 169.386C92.2931 169.446 92.3053 169.228 92.3053 169.13H92.2992Z" fill="#FAE6A2"/>
</g>
<mask id="mask3_2719_19419" style="mask-type:luminance" maskUnits="userSpaceOnUse" x="143" y="160" width="43" height="44">
<path d="M167.353 160.29C165.081 159.953 162.772 159.953 160.5 160.29C158.612 160.588 153.435 161.414 149.786 165.416C147.673 167.73 147.045 170.056 145.931 174.386C144.103 181.4 143.165 184.892 144.219 188.906C145.961 195.55 151.955 200.985 158.783 202.576C162.189 203.349 165.74 203.203 169.07 202.151C180.789 198.465 184.145 185.244 184.493 183.78C185.278 180.471 186.813 174.003 183.207 168.404C179.023 161.894 170.593 160.74 167.353 160.29Z" fill="white"/>
</mask>
<g mask="url(#mask3_2719_19419)">
<g style="mix-blend-mode:multiply">
<path d="M142.087 176.951C142.958 177.929 144.95 179.872 147.661 179.939C149.348 179.981 150.432 179.277 152.801 177.807C161.7 172.256 163.406 171.613 163.93 169.263C164.165 167.967 164.015 166.63 163.497 165.418C161.901 161.167 156.608 158.483 150.219 158.131L142.087 176.951Z" fill="#FAE6A2"/>
</g>
<g style="mix-blend-mode:screen">
<path d="M141.216 187.625C144.42 191.642 148.753 194.617 153.66 196.169C155.981 196.886 160.86 198.325 166.518 196.6C172.493 194.779 175.776 190.527 177.652 188.056C184.352 179.305 184.31 169.23 184.084 165.416C187.103 168.696 189.11 172.774 189.865 177.161C191.479 187.418 185.15 197.092 177.439 201.938C168.784 207.404 159.83 205.831 157.302 205.358C153.684 204.671 144.895 203.007 141.88 195.957C140.816 193.311 140.585 190.405 141.216 187.625Z" fill="#FAE6A2"/>
</g>
</g>
<mask id="mask4_2719_19419" style="mask-type:luminance" maskUnits="userSpaceOnUse" x="109" y="195" width="13" height="10">
<path d="M109.085 200.014C109.182 201.514 110.778 202.48 111.655 203.008C112.35 203.427 117.369 206.445 120.225 203.858C120.898 203.209 121.376 202.385 121.603 201.479C121.83 200.573 121.798 199.622 121.511 198.733C120.658 196.176 117.905 195.49 117.247 195.32C115.91 195.016 114.514 195.095 113.221 195.549C111.928 196.002 110.789 196.812 109.938 197.883C109.395 198.461 109.091 199.222 109.085 200.014Z" fill="white"/>
</mask>
<g mask="url(#mask4_2719_19419)">
<g style="mix-blend-mode:multiply">
<path d="M110.371 204.293C108.714 203.163 108.586 202.501 108.659 202.155C108.903 201.001 111.991 200.594 114.226 200.874C115.444 201.026 116.663 201.171 117.655 202.155C119.257 203.716 118.989 206.06 118.941 206.406L110.371 204.293Z" fill="#FAE6A2"/>
</g>
</g>
<mask id="mask5_2719_19419" style="mask-type:luminance" maskUnits="userSpaceOnUse" x="116" y="214" width="31" height="24">
<path d="M145.931 221.369C145.784 220.475 145.496 219.61 145.078 218.806C143.294 215.727 139.377 214.993 136.935 214.555C134.492 214.118 129.589 213.183 124.509 215.837C122.828 216.717 118.357 219.049 117.2 223.95C116.732 225.942 116.883 228.028 117.632 229.932C119.916 235.525 126.903 236.782 129.205 237.219C132.05 237.821 135.004 237.674 137.775 236.794C139.45 236.236 144.104 234.687 145.913 230.381C147.289 227.12 146.479 223.701 145.931 221.369Z" fill="white"/>
</mask>
<g mask="url(#mask5_2719_19419)">
<g style="mix-blend-mode:multiply">
<path d="M114.678 228.635C117.647 229.924 120.874 230.508 124.107 230.342C128.095 230.058 131.937 228.733 135.248 226.498C137.038 225.326 137.014 224.986 138.244 224.366C141.954 222.496 146.248 223.552 149.385 224.791C149.483 222.491 148.966 220.207 147.886 218.172C144.36 211.741 136.064 211.06 134.176 210.884C132.543 210.751 122.749 209.949 117.468 217.291C114.167 221.87 114.484 226.971 114.678 228.635Z" fill="#FAE6A2"/>
</g>
<g style="mix-blend-mode:screen">
<path d="M116.372 232.904C121.44 234.718 126.868 235.305 132.208 234.617C139.071 233.678 145.491 230.701 150.633 226.072C150.761 227.598 150.541 229.132 149.988 230.56C148.24 234.975 143.623 236.688 140.565 237.817C138.244 238.68 129.711 241.85 121.683 237.392C119.649 236.237 117.848 234.716 116.372 232.904Z" fill="#FAE6A2"/>
</g>
</g>
<mask id="mask6_2719_19419" style="mask-type:luminance" maskUnits="userSpaceOnUse" x="191" y="185" width="10" height="17">
<path d="M200.341 193.186C200.366 191.395 199.923 189.628 199.056 188.06C198.41 186.93 197.631 185.564 196.486 185.497C194.987 185.4 193.787 187.592 193.063 188.91C192.453 189.997 190.273 193.993 191.777 198.311C192.161 199.416 192.849 201.39 194.348 201.73C196.601 202.234 198.873 198.609 199.056 198.311C199.966 196.76 200.412 194.981 200.341 193.186Z" fill="white"/>
</mask>
<g mask="url(#mask6_2719_19419)">
<g style="mix-blend-mode:multiply">
<path d="M199.055 183.758C197.869 185.034 196.861 186.464 196.059 188.009C194.805 190.542 194.075 193.302 193.915 196.122C193.658 198.835 193.804 201.571 194.347 204.242C192.349 204.072 190.463 203.245 188.987 201.892C185.198 198.181 185.582 190.517 189.846 186.515C193.324 183.296 198.075 183.685 199.055 183.758Z" fill="#FAE6A2"/>
</g>
</g>
<g style="mix-blend-mode:multiply" opacity="0.5">
<path d="M147.216 107.751C147.216 101.733 140.151 87.8867 106.73 87.8867C77.2676 87.8867 45.0342 108.14 45.0342 114.158C45.0342 124.409 67.5282 135.784 96.4481 130.178C142.697 121.209 147.216 113.763 147.216 107.751Z" fill="#FAE6A2"/>
</g>
<path d="M224.858 51.8193C201.992 35.9265 179.048 60.6675 156.225 44.799C157.764 29.9083 159.294 15.0195 160.817 0.132812C183.646 16.0013 206.591 -8.75185 229.456 7.15309C227.922 22.056 226.389 36.9447 224.858 51.8193Z" fill="#E1FA95"/>
<path d="M170.837 28.2377C170.002 36.928 176.928 44.4949 186.064 41.094C194.726 38.9867 203.838 31.6264 204.709 22.3105C200.762 32.9138 173.596 46.3167 170.837 28.2377Z" fill="#FFDB57"/>
<path d="M188.988 10.2861C182.123 11.5007 171.787 16.7356 171.025 24.3753C170.264 32.015 179.138 37.4017 186.643 34.8996C194.147 32.3976 204.136 26.7802 205.251 18.4542C206.487 9.15052 195.079 9.1991 188.988 10.2861ZM173.864 21.0048C173.596 21.0048 173.523 20.7558 173.547 20.4886C173.571 20.2214 173.937 20.0392 174.205 20.0574C174.473 20.0757 174.546 20.2943 174.522 20.5615C174.497 20.8287 174.132 21.0048 173.864 21.0048ZM184.036 14.7983C177.122 17.8348 175.313 20.0028 174.753 19.4866C174.193 18.9704 178.146 15.3935 183.743 12.9461C189.341 10.4987 194.561 9.83068 194.707 10.5534C194.853 11.276 190.961 11.7072 184.036 14.768V14.7983Z" fill="#FFDB57"/>
<path d="M148.05 107.617L160.665 1.70508" stroke="#534741" stroke-width="2.97034" stroke-linecap="round" stroke-linejoin="round"/>
<path d="M72.2605 49.0737C78.4307 47.4401 84.6861 45.5939 91.0999 45.3328C105.462 44.9684 122.036 49.019 129.668 62.0211C130.941 64.0616 132.415 66.5272 132.847 68.8592C133.231 70.7236 132.281 72.9827 130.082 71.6649C108.764 56.3247 80.1362 64.8754 57.1427 72.7155C51.7989 75.136 47.1804 78.9036 43.7426 83.6467C43.5159 83.9993 43.2526 84.3271 42.9568 84.6245C42.031 85.5111 41.2453 84.5334 40.9468 83.5374C40.6039 82.3543 40.5228 81.1111 40.7093 79.8937C42.9203 63.9584 57.9346 54.0596 72.2423 49.0494L72.2605 49.0737Z" fill="#E0C7FA"/>
<g style="mix-blend-mode:multiply" opacity="0.5">
<path d="M126.348 69.3194C119.264 66.6291 112.016 64.7586 104.5 64.619C99.7299 64.6019 94.9683 65.0084 90.271 65.8335C81.5849 67.1698 73.0272 69.2338 64.6889 72.0036C61.3572 73.121 58.0315 74.372 54.8094 75.781C51.7212 77.202 48.9133 79.4247 46.282 81.951C47.9775 78.606 50.4246 75.6964 53.4328 73.449C64.0555 66.0157 76.7186 61.9104 89.5036 60.2222C102.721 58.2728 115.957 60.5744 126.372 69.3315L126.348 69.3194Z" fill="#E0C7FA"/>
</g>
<path d="M133.707 75.1634C130.576 71.7482 126.765 69.022 122.517 67.1593C110.415 61.6937 96.2409 62.3921 83.6631 65.3375C79.7222 66.1998 75.9032 67.1593 72.1328 68.0521C67.7473 69.0966 63.3314 70.1411 59.0068 71.9387C57.5873 72.5371 56.2007 73.2101 54.8527 73.9549C50.795 76.1488 47.2494 79.1747 44.4493 82.8335C42.2803 85.7182 40.7201 89.0112 39.8628 92.5137C38.3401 99.0725 45.2899 104.489 51.2773 101.52C53.8843 100.263 56.0953 98.951 58.5317 97.9247C60.8499 96.983 63.2441 96.2394 65.6886 95.702C67.2783 95.3194 69.5685 94.785 71.1705 94.4145C80.1059 92.3255 89.6688 91.1169 98.6469 90.121C107.4 89.0339 116.116 88.4874 124.966 88.1716C125.861 88.1352 126.793 88.0926 127.75 88.0016C129.243 88.001 130.706 87.5747 131.965 86.7727C133.223 85.9708 134.226 84.8267 134.854 83.4754C135.482 82.124 135.709 80.6219 135.509 79.1459C135.309 77.67 134.69 76.2819 133.725 75.1452L133.707 75.1634Z" fill="white"/>
<mask id="mask7_2719_19419" style="mask-type:luminance" maskUnits="userSpaceOnUse" x="39" y="63" width="97" height="40">
<path d="M133.706 75.1615C130.575 71.7462 126.764 69.02 122.517 67.1574C110.414 61.6918 96.2402 62.3902 83.6623 65.3355C79.7215 66.1979 75.9024 67.1574 72.1321 68.0501C67.7466 69.0947 63.3306 70.1392 59.006 71.9368C57.5866 72.5351 56.1999 73.2081 54.852 73.953C50.7943 76.1469 47.2487 79.1728 44.4486 82.8316C42.2796 85.7162 40.7193 89.0092 39.8621 92.5118C38.3393 99.0705 45.2892 104.488 51.2766 101.518C53.8835 100.261 56.0946 98.949 58.5309 97.9227C60.8491 96.981 63.2434 96.2375 65.6878 95.7C67.2776 95.3174 69.5678 94.783 71.1697 94.4126C80.1052 92.3235 89.668 91.115 98.6461 90.119C107.399 89.032 116.115 88.4854 124.965 88.1696C125.861 88.1332 126.793 88.0907 127.749 87.9996C129.243 87.9991 130.705 87.5727 131.964 86.7708C133.223 85.9688 134.225 84.8247 134.853 83.4734C135.481 82.1221 135.709 80.6199 135.509 79.144C135.309 77.668 134.689 76.2799 133.724 75.1433L133.706 75.1615Z" fill="white"/>
</mask>
<g mask="url(#mask7_2719_19419)">
<path d="M132.274 86.947C125.964 83.5826 115.902 80.8194 101.984 81.6028C96.8673 81.8882 75.5488 84.4814 56.3014 95.7284C52.586 97.919 49.2702 100.722 46.4949 104.018" fill="#E5E5E5"/>
<path d="M106.759 82.7164C108.141 83.184 117.357 83.0261 121.298 82.3399C122.827 82.0727 127.955 78.605 128.089 73.4734C128.082 71.4977 127.428 69.5783 126.226 68.0078C128.162 69.0312 130.026 70.1858 131.805 71.4633C136.069 74.5362 138.377 76.188 139.114 79.1577C139.985 82.7346 137.975 85.8075 137.847 86.0018C136.899 87.2831 135.662 88.3234 134.235 89.0383C129.965 91.1152 118.868 88.4917 106.759 82.7164Z" fill="#E5E5E5"/>
</g>
<path d="M95.9426 84.5113C105.42 82.6226 127.165 79.6894 134.748 82.7259C135.486 83.1573 136.043 83.8382 136.32 84.6449L95.9426 84.5113Z" fill="#E0C7FA"/>
<path d="M133.012 98.8867C135.556 95.193 136.769 90.7488 136.454 86.2793C136.44 85.6855 136.261 85.1071 135.936 84.6093C127.5 73.5444 53.8659 91.581 45.4117 103.435C44.8026 106.83 47.8481 110.917 50.1383 113.626C58.7753 123.664 68.2163 120.986 79.8135 120.148C94.1212 119.122 122.542 113.638 133.012 98.8867Z" fill="#E0C7FA"/>
<g style="mix-blend-mode:multiply">
<path d="M79.7953 120.418C92.8117 119.543 107.814 117.229 122.785 108.132C123.492 107.707 124.686 106.687 125.374 106.237C132.135 101.798 137.599 94.6078 136.283 86.1604C136.221 85.1445 135.813 84.1803 135.126 83.4276C134.389 82.7413 133.085 82.0672 132.141 82.5774C131.724 82.8406 131.368 83.1907 131.1 83.6037C116.396 104.154 89.1937 105.43 68.4539 92.9681C68.0328 92.677 67.5348 92.5165 67.0225 92.5066C61.7295 94.1523 43.9195 100.152 45.1742 105.017C47.2756 112.826 53.6407 119.288 61.6198 120.551C67.6255 121.45 79.7892 120.418 79.7953 120.418Z" fill="#E0C7FA"/>
</g>
<g style="mix-blend-mode:screen" opacity="0.5">
<path d="M86.5136 88.7559C84.4122 89.3328 82.1768 90.2619 80.1546 90.7964C79.9402 90.955 79.6956 91.0687 79.4359 91.1304L78.8268 91.3429C69.4528 94.2944 60.3346 98.0899 52.0265 103.385C50.5539 104.397 49.1795 105.544 47.9211 106.811C48.838 105.215 49.9875 103.764 51.3321 102.505C59.1346 95.7276 68.9959 91.6041 79.1191 89.7822C79.2166 89.7822 79.4176 89.7215 79.314 89.7822C79.4044 89.721 79.5003 89.6681 79.6003 89.6243C79.7513 89.571 79.9093 89.5403 80.0693 89.5332C82.1951 89.2781 84.333 88.7802 86.4831 88.7862L86.5136 88.7559Z" fill="#E0C7FA"/>
</g>
<path d="M90.1681 60.9763C87.616 61.2495 87.4698 63.7759 84.6862 64.4925C82.3534 65.0998 80.9098 63.539 77.0908 64.3164C76.4566 64.3977 75.8396 64.5802 75.2635 64.8569C72.151 66.6241 70.9572 73.4682 72.8941 78.7334C75.2209 85.0493 81.5007 87.5574 85.4537 87.9157C90.5519 88.3651 95.3881 85.5715 97.7818 80.6282C98.2996 79.5533 101.235 73.4743 98.3909 67.3893C96.4845 63.3326 93.238 60.6483 90.1681 60.9763Z" fill="#624E5B"/>
<path d="M56.1379 76.1376C57.5748 74.5537 59.3476 73.309 61.3274 72.4939C63.4971 71.5902 65.8905 71.3637 68.192 71.8441C66.8676 69.9509 64.9083 68.5918 62.6674 68.0121C58.4038 66.8886 54.5543 68.7287 53.6345 69.1902" stroke="#624E5B" stroke-width="2.31222" stroke-linecap="round" stroke-linejoin="round"/>
<path d="M113.46 63.725C111.546 62.7606 109.44 62.2376 107.296 62.1946C104.948 62.1358 102.637 62.7879 100.669 64.065C101.214 61.8238 102.545 59.8507 104.421 58.5023C107.978 55.9213 112.242 56.2249 113.259 56.3342" stroke="#624E5B" stroke-width="2.31222" stroke-linecap="round" stroke-linejoin="round"/>
<path d="M19.3358 78.7458C27.0258 78.7458 33.2598 72.5303 33.2598 64.8631C33.2598 57.1959 27.0258 50.9805 19.3358 50.9805C11.6458 50.9805 5.41187 57.1959 5.41187 64.8631C5.41187 72.5303 11.6458 78.7458 19.3358 78.7458Z" fill="#E0C7FA"/>
<mask id="mask8_2719_19419" style="mask-type:luminance" maskUnits="userSpaceOnUse" x="5" y="50" width="29" height="29">
<path d="M33.0588 67.1719C34.3386 59.6117 29.2318 52.4489 21.6523 51.1735C14.0729 49.898 6.89104 54.9929 5.61124 62.5531C4.33143 70.1134 9.4383 77.2761 17.0177 78.5516C24.5972 79.827 31.779 74.7322 33.0588 67.1719Z" fill="white"/>
</mask>
<g mask="url(#mask8_2719_19419)">
<g style="mix-blend-mode:screen" opacity="0.5">
<path d="M14.5977 53.8453C13.2029 54.1793 11.6862 55.2117 11.8507 55.8372C12.0151 56.4627 13.3978 56.6327 14.4881 56.3048C15.8646 55.8858 16.9245 54.4829 16.626 53.9546C16.3275 53.4262 14.7865 53.7967 14.5977 53.8453Z" fill="#E0C7FA"/>
</g>
<g style="mix-blend-mode:multiply">
<path d="M35.1483 69.4027C32.2551 66.7444 28.7745 64.8033 24.9885 63.7366C14.3841 60.8095 5.46083 66.2083 3.74927 67.2893C5.39992 71.4857 5.4121 71.5403 5.4121 71.5403C6.7643 74.8015 11.6797 79.5383 18.2641 80.0424C25.0981 80.5586 29.7882 76.2043 31.0186 75.0687C32.7374 73.4532 34.1381 71.5315 35.1483 69.4027Z" fill="#E0C7FA"/>
</g>
</g>
<path d="M151.078 96.019C159.182 96.019 165.751 89.4691 165.751 81.3894C165.751 73.3097 159.182 66.7598 151.078 66.7598C142.974 66.7598 136.405 73.3097 136.405 81.3894C136.405 89.4691 142.974 96.019 151.078 96.019Z" fill="#E0C7FA"/>
<mask id="mask9_2719_19419" style="mask-type:luminance" maskUnits="userSpaceOnUse" x="136" y="66" width="30" height="31">
<path d="M165.544 83.8207C166.893 75.8537 161.511 68.3055 153.524 66.9614C145.536 65.6173 137.968 70.9863 136.619 78.9533C135.271 86.9203 140.652 94.4685 148.64 95.8126C156.627 97.1567 164.196 91.7878 165.544 83.8207Z" fill="white"/>
</mask>
<g mask="url(#mask9_2719_19419)">
<g style="mix-blend-mode:screen" opacity="0.5">
<path d="M146.09 69.7836C144.616 70.1359 143.044 71.2229 143.191 71.8849C143.343 72.4557 144.823 72.7229 145.968 72.3707C147.424 71.9274 148.514 70.4517 148.222 69.899C147.929 69.3464 146.254 69.7411 146.09 69.7836Z" fill="#E0C7FA"/>
</g>
<g style="mix-blend-mode:multiply">
<path d="M167.737 86.1806C164.693 83.3752 161.025 81.3276 157.035 80.2049C145.859 77.1199 136.46 82.8102 134.657 83.9458L136.411 88.4155C137.831 91.8527 143.014 96.8446 149.952 97.3608C157.151 97.9074 162.091 93.3163 163.388 92.1199C165.198 90.4289 166.673 88.4143 167.737 86.1806Z" fill="#E0C7FA"/>
</g>
</g>
<path d="M41.5863 15.5788L47.8966 17.7712C48.209 17.8788 48.5476 17.8851 48.8638 17.7891C49.18 17.6931 49.4576 17.4997 49.6569 17.2367L53.6952 11.929C54.0371 11.4776 54.5139 11.146 55.0569 10.982C55.5999 10.8179 56.1812 10.83 56.7169 11.0164C57.2526 11.2027 57.7151 11.5538 58.038 12.019C58.3608 12.4843 58.5271 13.0396 58.5132 13.6051L58.3731 20.2853C58.3671 20.6158 58.4657 20.9398 58.6548 21.2112C58.844 21.4827 59.1141 21.6878 59.4268 21.7975L65.7371 23.9837C66.2714 24.1703 66.7329 24.5204 67.0558 24.9841C67.3786 25.4478 67.5463 26.0013 67.5348 26.5657C67.5233 27.13 67.3333 27.6764 66.9918 28.1266C66.6504 28.5769 66.175 28.908 65.6335 29.0728L59.2502 30.9737C58.9325 31.0678 58.6532 31.2605 58.4527 31.5237C58.2523 31.7868 58.1412 32.1068 58.1355 32.4372L57.9954 39.1174C57.9778 39.6777 57.7843 40.2184 57.4422 40.6632C57.1 41.108 56.6265 41.4346 56.0884 41.5969C55.5502 41.7592 54.9745 41.7491 54.4425 41.5679C53.9104 41.3867 53.4488 41.0437 53.1226 40.5871L49.3097 35.1215C49.12 34.8507 48.8497 34.6463 48.537 34.5373C48.2244 34.4283 47.8852 34.4202 47.5677 34.5142L41.1721 36.4393C40.6302 36.6 40.0511 36.5861 39.5175 36.3996C38.9839 36.213 38.523 35.8633 38.2004 35.4004C37.8777 34.9374 37.7099 34.3847 37.7207 33.821C37.7315 33.2573 37.9205 32.7115 38.2607 32.2611L42.299 26.9534C42.4957 26.6918 42.6051 26.3752 42.6116 26.0483C42.6182 25.7214 42.5216 25.4007 42.3355 25.1315L38.5226 19.6659C38.1917 19.2037 38.0167 18.6485 38.023 18.0807C38.0292 17.5128 38.2164 16.9617 38.5574 16.5068C38.8984 16.0519 39.3755 15.7169 39.92 15.5501C40.4645 15.3833 41.048 15.3934 41.5863 15.5788Z" fill="#EF948B"/>
<g style="mix-blend-mode:multiply">
<path d="M48.0432 33.3833L49.097 34.8894C48.897 34.6874 48.6455 34.5439 48.3695 34.4743C48.0936 34.4047 47.8038 34.4117 47.5316 34.4947L41.1361 36.4198C40.4878 36.6213 39.7867 36.5682 39.1764 36.2713C38.566 35.9744 38.0926 35.4561 37.853 34.8226C38.3681 34.9557 38.9102 34.9431 39.4184 34.7862L46.2038 32.7396C46.5393 32.6392 46.898 32.6475 47.2285 32.7631C47.559 32.8788 47.8442 33.0959 48.0432 33.3833Z" fill="#EF948B"/>
</g>
<g style="mix-blend-mode:multiply">
<path d="M67.2292 25.2578C67.4129 25.6076 67.5168 25.9935 67.5334 26.3879C67.55 26.7824 67.4789 27.1756 67.3252 27.5395C67.1716 27.9034 66.9391 28.2289 66.6445 28.4927C66.3499 28.7565 66.0005 28.9521 65.6212 29.0655L59.25 30.9724C58.9335 31.0677 58.6555 31.2608 58.4562 31.5239C58.257 31.7869 58.1467 32.1064 58.1415 32.436L58.0014 39.1162C57.9837 39.6765 57.7902 40.2171 57.4481 40.662C57.106 41.1068 56.6325 41.4334 56.0943 41.5957C55.5562 41.758 54.9805 41.7478 54.4484 41.5667C53.9164 41.3855 53.4547 41.0424 53.1286 40.5858L52.3794 39.5048C52.7641 39.9203 53.2647 40.2116 53.8167 40.3413C54.3687 40.471 54.947 40.4332 55.4773 40.2328C56.0077 40.0324 56.4658 39.6785 56.7929 39.2166C57.12 38.7547 57.3012 38.2058 57.3131 37.6405L57.4227 30.5595C57.4314 30.2095 57.5502 29.8712 57.7622 29.5922C57.9743 29.3133 58.2689 29.1078 58.6044 29.0048L65.3836 26.9643C65.8047 26.8457 66.1916 26.6292 66.5124 26.3326C66.8333 26.0359 67.0789 25.6676 67.2292 25.2578Z" fill="#EF948B"/>
</g>
<g style="mix-blend-mode:screen">
<path d="M59.4082 23.4352C60.9736 23.8967 64.1104 24.8745 65.6575 25.3907C65.6941 25.3907 65.6575 25.4514 65.6575 25.4453C64.5449 25.4637 63.4372 25.2954 62.3806 24.9474C61.3102 24.6351 60.3024 24.1399 59.4021 23.4838C59.4021 23.4838 59.4021 23.4231 59.4021 23.4352H59.4082Z" fill="#EF948B"/>
</g>
<path d="M186.479 63.2119L191.772 67.2808C192.033 67.4796 192.349 67.5919 192.677 67.6017C193.005 67.6115 193.327 67.5183 193.599 67.3354L199.118 63.5702C199.585 63.25 200.143 63.086 200.71 63.1018C201.277 63.1175 201.824 63.3123 202.273 63.6579C202.722 64.0036 203.049 64.4824 203.208 65.0254C203.367 65.5684 203.349 66.1475 203.156 66.6795L200.915 72.9529C200.802 73.2632 200.792 73.6011 200.885 73.9177C200.978 74.2343 201.17 74.5132 201.432 74.714L206.725 78.7828C207.175 79.1268 207.504 79.6041 207.665 80.1463C207.826 80.6884 207.81 81.2674 207.62 81.8C207.429 82.3326 207.075 82.7912 206.606 83.1101C206.138 83.4289 205.581 83.5915 205.014 83.5744L198.314 83.3861C197.983 83.3766 197.658 83.4713 197.385 83.6566C197.111 83.842 196.904 84.1086 196.791 84.4185L194.55 90.6979C194.36 91.2303 194.006 91.689 193.538 92.0082C193.071 92.3274 192.514 92.4907 191.947 92.4745C191.381 92.4583 190.834 92.2635 190.386 91.9181C189.937 91.5727 189.61 91.0945 189.451 90.5521L187.594 84.1634C187.5 83.848 187.309 83.5701 187.048 83.3694C186.786 83.1687 186.468 83.0556 186.138 83.046L179.438 82.8578C178.879 82.8331 178.342 82.635 177.901 82.2912C177.461 81.9474 177.139 81.475 176.98 80.94C176.822 80.405 176.835 79.834 177.018 79.3069C177.201 78.7797 177.544 78.3226 178 77.9994L183.519 74.2403C183.789 74.0516 183.993 73.7831 184.103 73.4726C184.212 73.1621 184.221 72.8253 184.128 72.5095L182.288 66.0844C182.133 65.5454 182.151 64.9712 182.34 64.4431C182.53 63.915 182.882 63.4598 183.345 63.142C183.809 62.8243 184.361 62.66 184.923 62.6725C185.486 62.6851 186.03 62.8738 186.479 63.2119Z" fill="#B0EBFF"/>
<g style="mix-blend-mode:multiply">
<path d="M186.979 82.1469L187.496 83.9081C187.37 83.654 187.177 83.4389 186.938 83.2859C186.699 83.1329 186.422 83.0478 186.138 83.0397L179.438 82.8514C178.759 82.838 178.111 82.5664 177.626 82.0922C177.142 81.6181 176.857 80.9772 176.831 80.3008C177.278 80.5894 177.797 80.7472 178.329 80.7562L185.413 80.9567C185.767 80.964 186.109 81.0832 186.391 81.2972C186.672 81.5111 186.878 81.8087 186.979 82.1469Z" fill="#B0EBFF"/>
</g>
<g style="mix-blend-mode:multiply">
<path d="M207.754 80.4707C207.817 80.8599 207.793 81.2581 207.684 81.637C207.575 82.0159 207.383 82.366 207.122 82.6624C206.862 82.9589 206.538 83.1943 206.176 83.3518C205.814 83.5094 205.421 83.5852 205.026 83.574L198.325 83.3857C197.995 83.3747 197.67 83.4688 197.398 83.6545C197.125 83.8401 196.919 84.1076 196.809 84.4181L194.561 90.6975C194.372 91.2299 194.018 91.6886 193.55 92.0078C193.082 92.327 192.525 92.4903 191.959 92.4741C191.393 92.4579 190.846 92.2631 190.397 91.9177C189.949 91.5723 189.622 91.0941 189.463 90.5517L189.085 89.2886C189.318 89.805 189.701 90.2401 190.183 90.5379C190.666 90.8358 191.228 90.9827 191.795 90.9599C192.362 90.937 192.91 90.7454 193.367 90.4097C193.824 90.0739 194.17 89.6094 194.36 89.076L196.742 82.3958C196.861 82.0667 197.081 81.7833 197.371 81.586C197.66 81.3886 198.005 81.2874 198.356 81.2966L205.44 81.497C205.88 81.5232 206.32 81.4436 206.722 81.265C207.125 81.0864 207.479 80.814 207.754 80.4707Z" fill="#B0EBFF"/>
</g>
<g style="mix-blend-mode:screen">
<path d="M200.909 76.299C202.249 77.2282 204.91 79.1472 206.22 80.125C206.22 80.125 206.22 80.1918 206.183 80.1675C205.123 79.8358 204.127 79.3287 203.235 78.6675C202.318 78.0327 201.517 77.246 200.866 76.3416C200.862 76.3357 200.859 76.3285 200.86 76.3212C200.86 76.3139 200.864 76.307 200.869 76.3019C200.874 76.2967 200.881 76.2936 200.888 76.293C200.895 76.2925 200.903 76.2947 200.909 76.299Z" fill="#B0EBFF"/>
</g>
<path d="M129.242 9.40049L132.038 17.6414C132.106 17.8421 132.218 18.0258 132.364 18.1798C132.51 18.3339 132.687 18.4547 132.885 18.5341L140.986 21.7831C141.464 21.9769 141.871 22.3117 142.153 22.7427C142.436 23.1737 142.579 23.6804 142.564 24.1949C142.55 24.7094 142.378 25.2071 142.072 25.6216C141.766 26.036 141.34 26.3474 140.852 26.5139L132.586 29.3075C132.384 29.3747 132.198 29.485 132.042 29.6307C131.887 29.7765 131.765 29.9542 131.685 30.1516L128.432 38.2225C128.24 38.702 127.905 39.1112 127.473 39.3948C127.04 39.6784 126.53 39.8226 126.013 39.808C125.495 39.7935 124.995 39.6208 124.579 39.3133C124.163 39.0058 123.852 38.5784 123.687 38.0889L120.885 29.848C120.818 29.6469 120.707 29.4629 120.561 29.3087C120.414 29.1546 120.236 29.034 120.039 28.9552L111.938 25.7062C111.46 25.5124 111.052 25.1776 110.77 24.7466C110.488 24.3156 110.344 23.809 110.359 23.2945C110.373 22.78 110.545 22.2822 110.851 21.8678C111.158 21.4534 111.583 21.142 112.072 20.9754L120.343 18.188C120.545 18.1183 120.729 18.0063 120.883 17.8597C121.038 17.713 121.159 17.5351 121.239 17.3378L124.491 9.26689C124.684 8.78802 125.02 8.37967 125.453 8.09678C125.886 7.81389 126.396 7.67005 126.913 7.6846C127.431 7.69915 127.931 7.87141 128.348 8.17818C128.764 8.48495 129.076 8.91152 129.242 9.40049Z" fill="#96E25A"/>
<g style="mix-blend-mode:multiply">
<path d="M140.869 26.5138L132.598 29.3012C132.396 29.3709 132.212 29.4829 132.058 29.6295C131.903 29.7762 131.782 29.9542 131.702 30.1514L128.444 38.2223C128.252 38.7018 127.917 39.1111 127.484 39.3946C127.052 39.6782 126.542 39.8224 126.024 39.8079C125.507 39.7933 125.006 39.6206 124.59 39.3131C124.174 39.0057 123.863 38.5783 123.699 38.0887L120.903 29.8478C120.835 29.6471 120.723 29.4635 120.577 29.3094C120.431 29.1554 120.254 29.0345 120.056 28.9551L111.955 25.7061C111.41 25.4924 110.956 25.0945 110.675 24.5817C110.393 24.069 110.301 23.474 110.414 22.9004C110.548 22.9812 110.689 23.0503 110.835 23.1069L119.63 26.6352C119.844 26.7221 120.037 26.8538 120.196 27.0214C120.355 27.189 120.475 27.3887 120.55 27.6069L123.595 36.5584C123.775 37.0892 124.113 37.5526 124.564 37.8858C125.016 38.2191 125.559 38.4063 126.121 38.4222C126.682 38.4381 127.235 38.2819 127.705 37.9747C128.175 37.6675 128.539 37.224 128.748 36.7041L132.287 27.9348C132.372 27.7202 132.504 27.5269 132.672 27.3685C132.841 27.2101 133.042 27.0904 133.262 27.0178L142.234 23.9814C142.352 23.9442 142.468 23.8996 142.581 23.8478C142.648 24.4207 142.514 24.9991 142.202 25.4849C141.89 25.9707 141.419 26.3342 140.869 26.5138Z" fill="#C0EF9A"/>
</g>
<g style="mix-blend-mode:screen">
<path d="M129.406 30.3889C128.797 31.9071 127.578 34.9375 126.969 36.4314C126.969 36.4679 126.902 36.4314 126.915 36.4314C126.985 35.3248 127.244 34.2382 127.682 33.2189C128.08 32.1826 128.655 31.2229 129.381 30.3828C129.381 30.3828 129.442 30.3828 129.43 30.3828L129.406 30.3889Z" fill="#96E25A"/>
</g>
<g style="mix-blend-mode:screen">
<path d="M138.213 22.2567C136.162 22.3454 134.143 21.7231 132.5 20.4956C132.5 20.4956 132.5 20.4288 132.5 20.4409C133.931 20.8539 136.8 21.7345 138.213 22.2021C138.25 22.2021 138.213 22.2628 138.213 22.2567Z" fill="#96E25A"/>
</g>
<path d="M24.2452 93.5486L20.9317 101.601C20.8534 101.796 20.8177 102.005 20.8272 102.215C20.8367 102.424 20.891 102.629 20.9865 102.816L24.9639 110.565C25.2004 111.024 25.2898 111.544 25.2201 112.056C25.1504 112.567 24.925 113.045 24.5743 113.424C24.2235 113.804 23.7644 114.067 23.259 114.178C22.7535 114.289 22.226 114.242 21.7479 114.045L13.6712 110.747C13.476 110.669 13.2663 110.634 13.0562 110.643C12.8461 110.652 12.6404 110.707 12.453 110.802L4.67485 114.78C4.21413 115.014 3.69259 115.102 3.18026 115.032C2.66794 114.962 2.18935 114.737 1.80876 114.388C1.42817 114.039 1.16381 113.582 1.05117 113.079C0.938532 112.576 0.983008 112.05 1.17863 111.573L4.48603 103.52C4.56592 103.326 4.60241 103.117 4.59294 102.907C4.58347 102.697 4.52828 102.492 4.43121 102.306L0.453801 94.5446C0.217332 94.0856 0.127895 93.5652 0.197574 93.0539C0.267254 92.5425 0.492691 92.0648 0.843423 91.6853C1.19416 91.3058 1.65328 91.0428 2.15875 90.9319C2.66422 90.8209 3.19167 90.8673 3.66984 91.0648L11.7404 94.3624C11.9352 94.4421 12.1451 94.4785 12.3555 94.469C12.5659 94.4596 12.7717 94.4045 12.9586 94.3078L20.7307 90.3422C21.1919 90.1018 21.7162 90.0088 22.2323 90.0759C22.7483 90.143 23.2312 90.3669 23.6151 90.7173C23.9991 91.0676 24.2655 91.5272 24.3782 92.0338C24.491 92.5404 24.4445 93.0693 24.2452 93.5486Z" fill="#FFDB58"/>
<g style="mix-blend-mode:multiply">
<path d="M21.7542 114.056L13.6714 110.758C13.4766 110.679 13.2667 110.642 13.0563 110.652C12.8459 110.661 12.6401 110.716 12.4532 110.813L4.66897 114.772C4.20897 115.009 3.68716 115.099 3.17407 115.031C2.66098 114.962 2.18136 114.738 1.80003 114.389C1.41871 114.04 1.15407 113.583 1.04188 113.079C0.929697 112.575 0.975379 112.049 1.17275 111.572L4.48624 103.519C4.56455 103.325 4.60017 103.116 4.59071 102.906C4.58126 102.697 4.52695 102.492 4.43143 102.305L0.454016 94.5436C0.182099 94.0252 0.101443 93.428 0.226128 92.8564C0.350814 92.2848 0.672921 91.775 1.13621 91.416C1.18666 91.5659 1.24772 91.712 1.31894 91.8533L5.64962 100.264C5.75454 100.469 5.81376 100.694 5.82323 100.923C5.83269 101.153 5.79216 101.382 5.70444 101.594L2.11076 110.345C1.89865 110.863 1.85061 111.433 1.97311 111.979C2.09561 112.525 2.38278 113.02 2.79599 113.398C3.20921 113.777 3.72868 114.02 4.28456 114.095C4.84044 114.17 5.40608 114.074 5.90544 113.819L14.3414 109.513C14.5477 109.409 14.7742 109.349 15.0055 109.34C15.2367 109.331 15.4673 109.371 15.6815 109.459L24.4525 113.042C24.5682 113.084 24.69 113.127 24.8057 113.157C24.4805 113.636 23.9983 113.988 23.4416 114.152C22.885 114.316 22.2885 114.282 21.7542 114.056Z" fill="#FFDB58"/>
</g>
<g style="mix-blend-mode:screen">
<path d="M22.546 93.7663C21.8455 95.2359 20.3958 98.1691 19.6527 99.6145C19.6527 99.6448 19.5857 99.6145 19.5979 99.6145C19.9436 97.4141 20.9552 95.3716 22.4972 93.7602C22.5021 93.7538 22.5093 93.7495 22.5173 93.7484C22.5253 93.7472 22.5334 93.7493 22.5399 93.7541C22.5463 93.759 22.5506 93.7661 22.5517 93.7741C22.5529 93.7821 22.5508 93.7902 22.546 93.7966V93.7663Z" fill="#FFDB58"/>
</g>
<g style="mix-blend-mode:screen">
<path d="M10.5595 109.504C9.12206 110.263 6.19229 111.745 4.73046 112.455C4.69391 112.455 4.66955 112.425 4.73046 112.401C5.51341 111.615 6.42355 110.966 7.42267 110.482C8.4074 109.96 9.4746 109.611 10.5778 109.449C10.5778 109.449 10.6204 109.492 10.5778 109.504H10.5595Z" fill="#FFDB58"/>
</g>
<g style="mix-blend-mode:screen">
<path d="M22.5638 109.122C20.9553 107.845 19.8386 106.054 19.4026 104.051C19.4026 104.02 19.433 103.99 19.4513 104.02C20.2614 105.271 21.8451 107.81 22.6125 109.091C22.6125 109.091 22.5821 109.146 22.5638 109.091V109.122Z" fill="#FFDB58"/>
</g>
</svg>
