<svg width="323" height="342" viewBox="0 0 323 342" fill="none" xmlns="http://www.w3.org/2000/svg">
<path d="M113.711 199.64C109.986 202.756 105.813 205.14 101.561 207.357C98.4168 209.086 92.0215 212.493 88.8539 214.176C88.7809 214.216 88.7175 214.076 88.7836 214.045C91.8012 212.094 97.9092 208.23 100.934 206.328C104.974 203.681 109.098 201.225 113.641 199.51C113.712 199.482 113.768 199.602 113.715 199.636L113.711 199.64Z" fill="#CBCBCB"/>
<path d="M107.532 200.591C103.807 203.706 99.6375 206.086 95.3815 208.308C92.2343 210.041 85.839 213.448 82.6749 215.126C82.6019 215.167 82.5166 215.046 82.6011 215C85.6222 213.044 91.7255 209.177 94.7754 207.3C98.8121 204.658 102.931 202.199 107.482 200.482C107.499 200.477 107.517 200.478 107.533 200.484C107.549 200.491 107.563 200.503 107.571 200.518C107.579 200.534 107.582 200.552 107.578 200.569C107.575 200.586 107.566 200.602 107.552 200.613L107.532 200.591Z" fill="#CBCBCB"/>
<path d="M113.969 272.782C108.652 277.232 102.641 280.668 96.4945 283.824C91.1553 286.726 83.6 290.83 78.2732 293.597C78.1621 293.66 78.0516 293.485 78.1663 293.418C83.1587 290.16 90.4962 285.565 95.6409 282.376C99.9857 279.569 104.35 276.805 109.072 274.657C110.633 273.915 112.217 273.212 113.859 272.607C113.882 272.603 113.906 272.605 113.927 272.615C113.949 272.625 113.966 272.641 113.978 272.662C113.99 272.682 113.994 272.706 113.991 272.729C113.989 272.753 113.978 272.774 113.962 272.792L113.969 272.782Z" fill="#FCB006"/>
<path d="M107.211 273.301C101.886 277.752 95.8782 281.183 89.7365 284.343C84.402 287.248 76.8385 291.354 71.5199 294.119C71.4122 294.177 71.2971 293.999 71.4117 293.932C76.4088 290.678 83.7463 286.082 88.8863 282.89C93.2345 280.078 97.5985 277.314 102.32 275.166C103.882 274.424 105.462 273.717 107.103 273.113C107.127 273.105 107.153 273.106 107.177 273.115C107.2 273.124 107.22 273.141 107.233 273.163C107.246 273.185 107.25 273.211 107.246 273.236C107.242 273.261 107.23 273.284 107.211 273.301Z" fill="#FCB006"/>
<path d="M84.6556 219.395C80.5131 222.863 75.8608 225.488 71.1194 227.969C66.9769 230.223 61.1256 233.4 56.9993 235.544C56.9148 235.59 56.8269 235.454 56.9149 235.402C60.7862 232.877 66.4699 229.317 70.4277 226.812C74.919 223.874 79.4829 221.163 84.5477 219.237C84.6301 219.203 84.6935 219.344 84.6321 219.378L84.6556 219.395Z" fill="#FCB006"/>
<path d="M173.326 71.0336C169.145 74.4505 164.748 77.5932 160.161 80.4418C155.635 83.3475 150.796 85.7054 146.081 88.2775C136.93 93.3078 126.896 98.6957 117.672 103.521C117.634 103.542 117.588 103.548 117.546 103.537C117.503 103.525 117.467 103.498 117.445 103.46C117.423 103.422 117.418 103.376 117.429 103.334C117.44 103.291 117.468 103.255 117.506 103.233C126.232 97.5808 135.868 91.483 144.743 85.9907C151.518 81.6114 158.332 77.2969 165.695 73.9482C168.131 72.7918 170.597 71.6933 173.161 70.7464C173.197 70.7349 173.236 70.736 173.272 70.7495C173.307 70.763 173.337 70.7881 173.357 70.8208C173.376 70.8535 173.384 70.8919 173.379 70.9297C173.374 70.9674 173.357 71.0024 173.329 71.0289L173.326 71.0336Z" fill="#E1FA95"/>
<path d="M158.625 84.8914C154.444 88.3083 150.046 91.4509 145.459 94.2996C140.934 97.2052 136.094 99.5632 131.38 102.135C122.224 107.162 112.198 112.549 102.97 117.378C102.951 117.389 102.93 117.395 102.908 117.397C102.887 117.399 102.865 117.397 102.844 117.391C102.823 117.384 102.804 117.374 102.787 117.359C102.77 117.345 102.757 117.328 102.747 117.309C102.728 117.272 102.724 117.229 102.734 117.189C102.745 117.149 102.77 117.114 102.805 117.091C111.53 111.439 121.167 105.341 130.045 99.8438C136.82 95.4645 143.634 91.15 150.997 87.8013C153.43 86.6496 155.899 85.5464 158.463 84.5995C158.619 84.5336 158.774 84.7766 158.628 84.8867L158.625 84.8914Z" fill="#E1FA95"/>
<path d="M166.718 86.28C162.537 89.6958 158.141 92.8395 153.557 95.6916C149.027 98.5939 144.188 100.952 139.473 103.524C130.322 108.554 120.291 113.937 111.064 118.767C111.027 118.779 110.986 118.779 110.95 118.765C110.913 118.751 110.883 118.725 110.863 118.691C110.844 118.657 110.837 118.618 110.843 118.579C110.849 118.541 110.869 118.506 110.898 118.48C119.624 112.827 129.26 106.729 138.139 101.232C144.913 96.8531 151.727 92.5386 159.091 89.1899C161.523 88.0382 163.992 86.935 166.556 85.9881C166.713 85.9222 166.867 86.1652 166.721 86.2753L166.718 86.28Z" fill="#E1FA95"/>
<path d="M239.631 131.297C246.313 136.189 255.696 134.738 260.588 128.056C265.481 121.374 264.03 111.991 257.348 107.099C250.665 102.206 241.282 103.657 236.39 110.339C231.497 117.021 232.948 126.404 239.631 131.297Z" fill="#E1FA95"/>
<mask id="mask0_2719_19834" style="mask-type:luminance" maskUnits="userSpaceOnUse" x="233" y="104" width="31" height="31">
<path d="M244.512 133.678C252.494 135.873 260.745 131.178 262.94 123.192C265.135 115.207 260.444 106.954 252.461 104.76C244.479 102.566 236.228 107.261 234.033 115.246C231.838 123.232 236.53 131.484 244.512 133.678Z" fill="white"/>
</mask>
<g mask="url(#mask0_2719_19834)">
<g style="mix-blend-mode:multiply">
<path d="M265.322 129.165C261.161 130.861 256.593 131.299 252.185 130.425C239.48 127.761 234.618 114.543 234.29 113.61C233.438 116.784 233.462 120.129 234.36 123.29C234.525 123.844 236.789 131.2 243.817 134.396C250.662 137.508 259.414 135.479 265.322 129.165Z" fill="#E1FA95"/>
</g>
<g style="mix-blend-mode:screen" opacity="0.5">
<path d="M258.117 110.59C259.33 111.557 260.343 113.252 259.896 113.792C259.519 114.238 258.028 113.868 257.109 113.051C255.956 112.012 255.601 110.178 256.094 109.781C256.588 109.383 257.996 110.458 258.117 110.59Z" fill="#E1FA95"/>
</g>
</g>
<g style="mix-blend-mode:multiply">
<path d="M239.631 131.297C246.313 136.189 255.696 134.738 260.588 128.056C265.481 121.374 264.03 111.991 257.348 107.099C250.665 102.206 241.282 103.657 236.39 110.339C231.497 117.021 232.948 126.404 239.631 131.297Z" fill="#E1FA95"/>
</g>
<path d="M114.241 199.785C128.144 159.092 169.11 135.223 209.021 124.869C232.264 119.199 267.933 120.005 282.383 131.415C300.802 145.956 283.014 179.376 265.91 204.059C226.693 260.651 100.93 295.034 114.208 199.949L114.241 199.785Z" fill="#F1F1F1"/>
<mask id="mask1_2719_19834" style="mask-type:luminance" maskUnits="userSpaceOnUse" x="113" y="121" width="178" height="139">
<path d="M114.239 199.789C128.143 159.096 169.108 135.227 209.02 124.873C232.262 119.203 267.932 120.009 282.381 131.419C300.801 145.96 283.013 179.38 265.908 204.063C226.691 260.655 100.928 295.038 114.206 199.952L114.239 199.789Z" fill="white"/>
</mask>
<g mask="url(#mask1_2719_19834)">
<g style="mix-blend-mode:multiply">
<path d="M249.769 222.073C199.147 269.223 97.8713 282.631 114.825 197.669C118.337 188.31 123.314 179.568 129.569 171.771C137.256 162.205 146.413 153.921 156.698 147.226C150.449 153.789 143.838 161.062 139.17 169.193C136.045 174.576 133.044 187.179 134.714 191.616C142.758 213.007 197.271 257.116 249.764 222.04L249.769 222.073Z" fill="#E5E5E5"/>
</g>
</g>
<mask id="mask2_2719_19834" style="mask-type:luminance" maskUnits="userSpaceOnUse" x="113" y="121" width="178" height="139">
<path d="M114.239 199.789C128.143 159.096 169.108 135.227 209.02 124.873C232.262 119.203 267.932 120.009 282.381 131.419C300.801 145.96 283.013 179.38 265.908 204.063C226.691 260.655 100.928 295.038 114.206 199.952L114.239 199.789Z" fill="white"/>
</mask>
<g mask="url(#mask2_2719_19834)">
<path d="M245.891 117.612C251.713 119.781 257.16 122.846 262.036 126.696C267.9 131.544 272.891 137.358 276.796 143.888C288.531 164.036 284.356 186.983 283.24 192.364C286.787 188.654 296.765 177.216 297.729 160.125C298.012 155.102 298.699 143.311 290.943 133.277C282.902 122.861 270.375 120.349 262.379 118.749C256.954 117.666 251.413 117.284 245.891 117.612Z" fill="#FF664D"/>
<path d="M273.118 165.991C272.569 156.806 267.914 147.518 262.072 141.37C257.146 135.727 248.583 130.404 240.373 129.867C205.092 127.337 219.02 186.211 249.643 189.303C263.817 191.519 274.329 181.108 273.135 166.235L273.118 165.991Z" fill="#FF664D"/>
<g style="mix-blend-mode:multiply">
<mask id="mask3_2719_19834" style="mask-type:luminance" maskUnits="userSpaceOnUse" x="219" y="129" width="55" height="61">
<path d="M273.116 165.999C272.567 156.814 267.912 147.526 262.07 141.378C257.144 135.734 248.581 130.411 240.371 129.875C205.09 127.345 219.018 186.219 249.641 189.311C263.815 191.527 274.327 181.115 273.133 166.242L273.116 165.999Z" fill="white"/>
</mask>
<g mask="url(#mask3_2719_19834)">
<path d="M264.094 186.627C260.156 189.125 255.186 190.181 249.652 189.314C222.44 186.575 208.417 139.788 230.388 131.149C212.733 142.673 226.684 185.189 252.587 187.801C256.458 188.477 260.44 188.07 264.094 186.627Z" fill="#FF664D"/>
</g>
</g>
<path d="M267.21 163.234C266.652 157.091 263.311 150.802 259.208 146.541C255.746 142.677 249.818 138.944 244.194 138.437C220.135 136.048 230.778 175.644 251.677 178.313C261.366 180.076 268.322 173.337 267.202 163.373L267.21 163.234Z" fill="#333333"/>
<mask id="mask4_2719_19834" style="mask-type:luminance" maskUnits="userSpaceOnUse" x="230" y="138" width="38" height="41">
<path d="M267.211 163.234C266.653 157.091 263.312 150.802 259.209 146.541C255.747 142.677 249.819 138.944 244.195 138.437C220.136 136.048 230.779 175.644 251.678 178.313C261.367 180.076 268.323 173.337 267.203 163.373L267.211 163.234Z" fill="white"/>
</mask>
<g mask="url(#mask4_2719_19834)">
<g style="mix-blend-mode:multiply">
<path d="M265.61 146.082C256.696 134.254 242.801 129.693 234.586 135.892C226.37 142.091 226.931 156.695 235.853 168.522C244.775 180.349 258.658 184.916 266.874 178.717C275.089 172.517 274.522 157.902 265.61 146.082ZM262.482 172.886C256.503 177.393 246.377 174.096 239.901 165.469C233.426 156.842 232.998 146.229 238.972 141.711C244.945 137.192 255.059 140.524 261.549 149.132C268.038 157.741 268.447 168.369 262.473 172.879L262.482 172.886Z" fill="#333333"/>
</g>
<g style="mix-blend-mode:multiply">
<path d="M265.61 146.082C256.696 134.254 242.801 129.693 234.586 135.892C226.37 142.091 226.931 156.695 235.853 168.522C244.775 180.349 258.658 184.916 266.874 178.717C275.089 172.517 274.522 157.902 265.61 146.082ZM262.482 172.886C256.503 177.393 246.377 174.096 239.901 165.469C233.426 156.842 232.998 146.229 238.972 141.711C244.945 137.192 255.059 140.524 261.549 149.132C268.038 157.741 268.447 168.369 262.473 172.879L262.482 172.886Z" fill="#333333"/>
</g>
<g style="mix-blend-mode:screen">
<path d="M259.057 174.651C260.285 175.55 262.01 175.284 262.909 174.055C263.809 172.827 263.542 171.102 262.314 170.203C261.085 169.303 259.36 169.57 258.461 170.798C257.561 172.027 257.828 173.752 259.057 174.651Z" fill="#333333"/>
</g>
</g>
</g>
<path d="M209.004 287.514C193.276 300.976 166.492 313.762 160.36 306.599C158.869 304.858 159.092 302.5 159.522 297.78C160.226 290.119 163.562 287.932 165.48 278.436C166.329 274.218 166.761 272.108 166.265 269.895C165.258 265.352 161.912 262.158 161.06 259.425C174.744 259.331 189.979 255.816 204.792 249.831C205.934 249.375 207.065 248.896 208.199 248.404L208.433 248.843C213.782 258.703 219.708 271.544 214.349 281.409C213.157 283.678 211.664 285.243 209.004 287.514Z" fill="#FF664D"/>
<g style="mix-blend-mode:multiply">
<path d="M117.544 191.505C113.829 186.25 107.956 179.79 99.1471 176.086C85.6649 170.418 77.8257 177.81 70.0584 168.461C67.9745 165.96 71.2267 162.209 73.7908 158.431C79.6845 149.622 87.4953 145.741 101.811 138.836C111.502 134.173 115.325 133.331 119.406 133.48C123.642 133.702 127.777 134.861 131.511 136.875C140.348 141.576 144.052 149.914 145.956 152.009L147.78 154.067C134.985 164.172 124.363 176.569 117.544 191.505Z" fill="#FF664D"/>
</g>
<g style="mix-blend-mode:multiply">
<mask id="mask5_2719_19834" style="mask-type:luminance" maskUnits="userSpaceOnUse" x="69" y="133" width="79" height="59">
<path d="M117.543 191.515C113.828 186.26 107.954 179.8 99.1456 176.095C85.6634 170.428 77.8242 177.82 70.0569 168.471C67.9731 165.97 71.2253 162.219 73.7894 158.441C79.683 149.631 87.4939 145.751 101.809 138.846C111.501 134.182 115.324 133.341 119.404 133.49C123.641 133.712 127.775 134.871 131.509 136.885C140.347 141.586 144.05 149.924 145.955 152.019L147.778 154.077C134.984 164.182 124.361 176.579 117.543 191.515Z" fill="white"/>
</mask>
<g mask="url(#mask5_2719_19834)">
<path d="M155.249 160.451L150.163 151.83C135.03 161.742 121.538 173.955 110.173 188.029C112.381 189.644 114.245 191.684 115.655 194.028C126.421 180.25 139.894 168.822 155.244 160.448L155.249 160.451Z" fill="#FF664D"/>
</g>
</g>
<path d="M176.12 204.176C172.621 207.263 168.472 209.523 163.982 210.79C162.712 211.141 161.418 211.401 160.111 211.568C156.728 212.934 154.983 212.87 154.278 212.837C153.129 212.769 149.352 212.531 148.068 210.111C146.891 207.891 148.432 204.967 149.168 203.628C153.726 195.3 164.253 192.317 179.248 183.714C190.084 177.498 195.977 172.517 201.073 175.077C201.706 175.396 203.618 176.356 204.199 178.276C205.924 183.88 193.802 189.408 176.12 204.176Z" fill="#FF664D"/>
<mask id="mask6_2719_19834" style="mask-type:luminance" maskUnits="userSpaceOnUse" x="147" y="174" width="58" height="39">
<path d="M176.118 204.182C172.619 207.269 168.471 209.529 163.98 210.796C162.71 211.147 161.417 211.407 160.11 211.574C156.727 212.939 154.982 212.876 154.276 212.843C153.127 212.775 149.35 212.537 148.067 210.117C146.89 207.897 148.431 204.973 149.166 203.633C153.725 195.306 164.251 192.323 179.247 183.72C190.082 177.504 195.976 172.522 201.071 175.083C201.705 175.402 203.617 176.362 204.197 178.282C205.923 183.886 193.801 189.414 176.118 204.182Z" fill="white"/>
</mask>
<g mask="url(#mask6_2719_19834)">
<g style="mix-blend-mode:multiply">
<path d="M160.132 211.557C162.22 210.471 165.168 208.902 168.652 206.924C188.691 195.528 200.757 185.105 201.135 185.585C201.387 185.892 196.018 189.783 185.846 198.999C176.896 207.109 172.382 211.952 165.254 212.187C163.525 212.239 161.798 212.026 160.132 211.557Z" fill="#FF664D"/>
</g>
</g>
<path d="M125.929 197.348C128.563 197.457 131.117 198.283 133.316 199.737C139.303 203.659 144.405 208.789 148.293 214.798C153.531 223.027 156.343 232.566 156.406 242.32C156.439 244.939 155.768 247.519 154.462 249.789C151.916 254.236 148.493 258.119 144.401 261.203C141.838 263.125 138.388 265.706 134.165 266.472C122.243 268.628 110.171 255.253 104.806 246.796C95.7702 232.56 92.1844 210.88 101.213 203.146C103.754 200.968 107.052 200.104 111.612 198.907C116.281 197.679 121.106 197.154 125.929 197.348Z" fill="#E5E5E5"/>
<path d="M125.929 197.348C128.563 197.457 131.117 198.283 133.316 199.737C139.303 203.659 144.405 208.789 148.293 214.798C153.531 223.027 156.343 232.566 156.406 242.32C156.439 244.939 155.768 247.519 154.462 249.789C151.916 254.236 148.493 258.119 144.401 261.203C141.838 263.125 138.388 265.706 134.165 266.472C122.243 268.628 110.171 255.253 104.806 246.796C95.7702 232.56 92.1844 210.88 101.213 203.146C103.754 200.968 107.052 200.104 111.612 198.907C116.281 197.679 121.106 197.154 125.929 197.348Z" fill="#E5E5E5"/>
<mask id="mask7_2719_19834" style="mask-type:luminance" maskUnits="userSpaceOnUse" x="95" y="197" width="62" height="70">
<path d="M125.93 197.342C128.564 197.451 131.118 198.277 133.317 199.731C139.304 203.653 144.406 208.783 148.294 214.792C153.532 223.021 156.344 232.56 156.407 242.314C156.44 244.933 155.769 247.513 154.463 249.783C151.917 254.23 148.494 258.113 144.402 261.197C141.839 263.119 138.389 265.7 134.166 266.466C122.244 268.622 110.172 255.247 104.807 246.79C95.7712 232.554 92.1854 210.874 101.214 203.14C103.755 200.962 107.053 200.098 111.613 198.901C116.282 197.673 121.107 197.148 125.93 197.342Z" fill="white"/>
</mask>
<g mask="url(#mask7_2719_19834)">
<g style="mix-blend-mode:multiply">
<path d="M137.629 265.495C147.279 259.479 146.577 240.927 136.061 224.058C125.544 207.188 109.196 198.39 99.5458 204.406C89.8957 210.422 90.598 228.974 101.114 245.843C111.631 262.712 127.979 271.511 137.629 265.495Z" fill="#E5E5E5"/>
</g>
<g style="mix-blend-mode:multiply">
<path d="M134.375 254.869C140.152 251.268 138.852 238.752 131.473 226.914C124.093 215.076 113.427 208.399 107.65 212.001C101.873 215.602 103.173 228.118 110.552 239.956C117.932 251.794 128.598 258.471 134.375 254.869Z" fill="#E5E5E5"/>
</g>
<g style="mix-blend-mode:screen">
<path d="M135.872 253.551C135.45 254.075 134.943 254.524 134.372 254.88C128.595 258.48 117.925 251.802 110.545 239.97C103.166 228.138 101.876 215.615 107.631 212.036C108.204 211.682 108.83 211.424 109.485 211.27C105.532 216.017 107.246 227.232 113.886 237.894C120.526 248.556 129.875 255.004 135.872 253.551Z" fill="#E5E5E5"/>
</g>
</g>
<path d="M118.893 232.476C106.059 215.199 83.3039 211.157 66.732 232.568C53.2166 250.041 43.4006 268.38 58.844 278.857C68.4213 285.349 96.6854 281.896 101.24 280.066C123.59 273.453 131.785 251.645 118.982 232.62L118.893 232.476Z" fill="#FAAF3B"/>
<path d="M118.764 232.678C109.468 220.158 92.9823 217.232 80.9771 232.741C71.1784 245.394 64.0857 258.692 75.2561 266.264C82.1936 270.975 102.669 268.472 105.975 267.144C122.151 262.374 128.107 246.554 118.828 232.768L118.764 232.678Z" fill="#FFDB58"/>
<g style="mix-blend-mode:multiply">
<mask id="mask8_2719_19834" style="mask-type:luminance" maskUnits="userSpaceOnUse" x="159" y="248" width="58" height="61">
<path d="M209.003 287.509C193.274 300.97 166.491 313.756 160.359 306.593C158.868 304.852 159.091 302.494 159.52 297.774C160.225 290.114 163.56 287.926 165.478 278.43C166.327 274.212 166.76 272.102 166.263 269.89C165.256 265.346 161.91 262.152 161.058 259.419C174.742 259.325 189.978 255.81 204.79 249.825C205.933 249.369 207.064 248.89 208.197 248.398L208.432 248.837C213.78 258.698 219.707 271.538 214.347 281.403C213.155 283.672 211.663 285.238 209.003 287.509Z" fill="white"/>
</mask>
<g mask="url(#mask8_2719_19834)">
<path d="M217.594 247.764C201.296 264.961 181.117 278.006 158.745 285.807C161.035 281.821 162.154 277.27 161.973 272.677C161.577 263.639 156.144 257.849 154.728 256.429C167.057 255.734 179.271 253.668 191.143 250.269C198.802 248.079 206.292 245.339 213.557 242.07L217.594 247.764Z" fill="#FF664D"/>
</g>
</g>
<path d="M229.482 236.972C224.47 240.049 214.406 246.159 209.36 249.203C202.727 253.41 195.869 257.25 188.817 260.707L188.755 260.604C189.559 260.03 190.38 259.49 191.191 258.935L193.661 257.327C198.587 254.101 203.722 251.222 208.882 248.377C214.042 245.531 224.298 239.713 229.425 236.873L229.487 236.976L229.482 236.972Z" fill="#D8D8D8"/>
<path d="M219.932 240.032C214.928 243.107 204.856 249.218 199.813 252.258C193.182 256.468 186.327 260.312 179.276 263.774L179.214 263.671C180.014 263.101 180.836 262.561 181.646 262.006L184.117 260.398C189.051 257.171 194.181 254.288 199.338 251.448C204.495 248.607 214.757 242.78 219.884 239.939L219.943 240.047L219.932 240.032Z" fill="#D8D8D8"/>
<path d="M175.646 98.1311C156.468 106.055 145.957 124.11 133.254 139.851C126.165 130.789 125.667 118.586 131.214 108.375C141.898 88.6045 159.356 74.0331 181.098 68.5862C199.236 64.5306 223.203 71.4457 226.69 91.9482C209.595 85.7012 191.229 88.7161 175.777 98.0608L175.646 98.1311Z" fill="#D4F570"/>
<g style="mix-blend-mode:multiply" opacity="0.5">
<path d="M227.003 90.7605C208.892 85.4461 188.732 91.1487 172.383 98.9767C170.428 99.9916 168.577 101.197 166.859 102.575C161.22 106.952 155.845 111.658 150.761 116.669C143.955 123.459 137.421 130.528 133.14 139.305C134.575 129.355 140.37 120.552 146.438 112.767C151.147 106.901 156.433 101.523 162.216 96.7123C165.245 94.1306 168.645 92.0205 172.303 90.4531C188.939 83.1311 211.356 79.4856 226.977 90.7562L227.003 90.7605Z" fill="#E1FA95"/>
</g>
<path d="M164.192 166.604C159.054 168.353 153.572 167.12 148.348 165.376C146.788 164.7 145.306 163.856 143.927 162.861C136.807 157.649 141.491 146.27 145.433 138.943C146.869 136.724 148.501 134.639 150.312 132.713C165.014 116.984 192.319 108.271 212.162 104.944C221.526 103.688 237.823 103.132 237.517 114.284C237.464 135.192 220.403 145.67 201.118 153.364C198.715 154.327 196.275 155.242 193.827 156.13C183.699 159.593 173.655 163.348 164.273 166.612C164.246 166.611 164.219 166.608 164.192 166.604Z" fill="#D8FA70"/>
<mask id="mask9_2719_19834" style="mask-type:luminance" maskUnits="userSpaceOnUse" x="140" y="104" width="98" height="64">
<path d="M164.193 166.604C159.055 168.353 153.573 167.12 148.349 165.376C146.789 164.7 145.307 163.856 143.928 162.861C136.808 157.649 141.492 146.27 145.434 138.943C146.87 136.724 148.502 134.639 150.313 132.713C165.015 116.984 192.32 108.271 212.163 104.944C221.527 103.688 237.824 103.132 237.518 114.284C237.465 135.192 220.404 145.67 201.119 153.363C198.716 154.327 196.276 155.242 193.828 156.13C183.7 159.593 173.656 163.348 164.274 166.612C164.247 166.611 164.22 166.608 164.193 166.604Z" fill="white"/>
</mask>
<g mask="url(#mask9_2719_19834)">
<g style="mix-blend-mode:multiply">
<mask id="mask10_2719_19834" style="mask-type:luminance" maskUnits="userSpaceOnUse" x="140" y="104" width="98" height="64">
<path d="M164.194 166.609C160.53 167.588 156.241 167.221 151.741 166.708C149.766 166.304 147.873 165.572 146.14 164.542C144.462 163.543 143.047 162.16 142.009 160.507C137.989 154.79 140.914 145.822 145.163 139.378C146.578 137.127 148.197 135.012 149.999 133.059C164.616 117.1 192.18 108.28 212.188 104.916C221.528 103.693 237.825 103.137 237.519 114.289C237.466 135.197 220.405 145.674 201.12 153.368C198.717 154.332 196.277 155.247 193.829 156.134C183.701 159.598 173.657 163.353 164.275 166.617C164.248 166.616 164.221 166.613 164.194 166.609Z" fill="white"/>
</mask>
<g mask="url(#mask10_2719_19834)">
<path d="M138.244 140.095C142.037 147.069 148.117 152.004 155.172 154.858C157.539 155.815 159.993 156.54 162.5 157.024C170.83 158.471 178.085 157.304 185.908 155.635C188.136 155.099 190.358 154.484 192.575 153.791C203.646 150.341 214.417 145.297 223.257 141.007C216.086 145.869 208.708 150.392 201.103 154.495C199.203 155.512 197.281 156.512 195.337 157.497C180.146 164.432 163.342 172.448 146.832 167.424C144.946 166.691 143.152 165.742 141.486 164.593C139.712 163.372 138.091 161.943 136.658 160.336C131.757 155.823 135.574 149.365 136.681 144.144C137.376 142.139 137.987 140.694 138.244 140.095Z" fill="#CFEE72"/>
</g>
</g>
</g>
<g style="mix-blend-mode:screen" opacity="0.5">
<path d="M222.968 87.7411C196.527 74.7744 165.841 89.3978 148.212 110.417C142.052 117.625 137.18 125.841 133.811 134.703C138.724 110.896 157.915 90.6734 180.85 82.9071C194.643 78.2558 210.912 79.1595 222.968 87.7411Z" fill="#E1FA95"/>
</g>
<g style="mix-blend-mode:screen" opacity="0.5">
<path d="M210.09 116.34C216.117 110.446 226.925 107.661 234.858 110.884C230.717 112.388 226.809 113.246 222.667 114.237C218.525 115.228 214.473 116.184 210.09 116.34Z" fill="#E1FA95"/>
</g>
<path d="M174.28 96.0738C191.804 86.809 210.836 84.4916 229.38 91.3444C233.679 92.8231 238.524 97.1363 237.985 102.282C237.431 107.784 228.843 107.528 224.484 108.706C218.438 110.058 211.432 111.538 205.687 113.139C182.173 118.993 164.969 130.277 148.362 147.819C146.719 149.462 145.58 151.915 143.163 152.947C136.299 155.939 128.925 147.355 132.287 140.593C139.139 126.923 154.082 105.852 174.28 96.0738Z" fill="white"/>
<mask id="mask11_2719_19834" style="mask-type:luminance" maskUnits="userSpaceOnUse" x="131" y="87" width="108" height="67">
<path d="M174.277 96.0738C191.801 86.809 210.833 84.4916 229.378 91.3444C233.676 92.8231 238.522 97.1363 237.983 102.282C237.428 107.784 228.84 107.528 224.481 108.706C218.435 110.058 211.429 111.538 205.685 113.139C182.17 118.993 164.967 130.277 148.359 147.819C146.716 149.462 145.577 151.915 143.16 152.947C136.296 155.939 128.922 147.355 132.284 140.593C139.136 126.923 154.08 105.852 174.277 96.0738Z" fill="white"/>
</mask>
<g mask="url(#mask11_2719_19834)">
<path d="M129.631 149.69C138.535 138.723 154.731 125.964 180.659 116.735C190.199 113.333 230.991 101.738 274.647 107.539C284.6 108.861 294.125 112.505 298.878 115.168" fill="#E5E5E5"/>
<path d="M177.527 118.031C174.857 120.749 153.269 131.156 143.325 134.161C139.462 135.334 123.484 133.242 117.149 121.453C114.045 115.67 114.527 109.674 115.05 106.503C111.749 111.157 108.773 116.032 106.144 121.095C99.8244 133.248 96.4271 139.782 98.2358 147.542C100.417 156.904 108.689 161.697 109.221 162.006C112.911 163.87 116.986 164.845 121.12 164.854C133.446 164.791 156.103 145.683 177.527 118.031Z" fill="#E5E5E5"/>
</g>
<path d="M206.882 88.3311C204.4 88.8108 204.222 90.5439 201.492 91.3621C199.211 92.04 197.831 91.1525 194.109 92.1325C193.49 92.2611 192.887 92.4564 192.31 92.7151C189.258 94.2796 188.005 99.0686 189.802 102.435C191.982 106.452 198.049 107.419 201.892 107.192C206.843 106.902 211.587 104.438 213.979 100.786C214.495 100.002 217.431 95.5277 214.751 91.7305C213.898 90.4744 212.705 89.4874 211.311 88.8853C209.918 88.2832 208.381 88.091 206.882 88.3311Z" fill="#624E5B"/>
<path d="M183.738 97.5974C184.147 97.5494 184.531 97.3742 184.835 97.0965C185.14 96.8188 185.35 96.4525 185.435 96.0494C185.521 95.6462 185.477 95.2263 185.312 94.8489C185.146 94.4716 184.866 94.1557 184.511 93.9458C182.568 92.7805 180.328 92.2068 178.064 92.2948C175.508 92.3958 173.054 93.324 171.071 94.9398C170.667 95.2711 170.41 95.7494 170.359 96.2696C170.307 96.7899 170.464 97.3093 170.795 97.7138C171.126 98.1182 171.605 98.3744 172.125 98.4262C172.645 98.4779 173.165 98.3208 173.569 97.9896C174.802 96.9655 176.322 96.3491 177.92 96.2253C179.518 96.1015 181.114 96.4763 182.49 97.2982C182.862 97.5314 183.3 97.6365 183.738 97.5974Z" fill="#624E5B"/>
<path d="M223.377 95.4481C224.912 94.9639 225.404 92.1875 224.476 89.2468C223.548 86.3062 221.552 84.3149 220.017 84.7991C218.482 85.2833 217.99 88.0596 218.918 91.0003C219.846 93.9409 221.842 95.9323 223.377 95.4481Z" fill="#624E5B"/>
<path d="M240.478 143.979C247.16 148.871 256.543 147.42 261.435 140.738C266.328 134.056 264.877 124.673 258.195 119.78C251.513 114.888 242.13 116.339 237.237 123.021C232.345 129.703 233.796 139.086 240.478 143.979Z" fill="#E1FA95"/>
<mask id="mask12_2719_19834" style="mask-type:luminance" maskUnits="userSpaceOnUse" x="234" y="116" width="31" height="31">
<path d="M250.767 146.815C259.008 146.024 265.047 138.7 264.257 130.457C263.466 122.213 256.144 116.171 247.904 116.961C239.663 117.752 233.624 125.076 234.414 133.319C235.205 141.563 242.527 147.605 250.767 146.815Z" fill="white"/>
</mask>
<g mask="url(#mask12_2719_19834)">
<g style="mix-blend-mode:multiply">
<path d="M268.607 135.212C265.324 138.279 261.211 140.314 256.781 141.065C243.96 143.097 234.719 132.467 234.077 131.715C234.401 134.987 235.613 138.107 237.582 140.739C237.956 141.215 242.667 147.271 250.373 147.756C257.872 148.227 265.333 143.216 268.607 135.212Z" fill="#E1FA95"/>
</g>
<g style="mix-blend-mode:screen" opacity="0.5">
<path d="M255.273 120.387C256.751 120.855 258.3 122.083 258.069 122.744C257.875 123.325 256.349 123.486 255.205 123.045C253.759 122.485 252.75 120.894 253.091 120.349C253.432 119.804 255.103 120.334 255.273 120.387Z" fill="#E1FA95"/>
</g>
</g>
<path d="M106.699 137.121C102.52 140.539 98.1242 143.683 93.5388 146.533C89.0133 149.438 84.1738 151.796 79.4591 154.368C70.3034 159.395 60.2777 164.782 51.0498 169.611C51.0116 169.629 50.968 169.632 50.9276 169.62C50.8873 169.608 50.8531 169.58 50.8317 169.544C50.8104 169.507 50.8035 169.464 50.8124 169.423C50.8213 169.382 50.8453 169.345 50.8798 169.321C59.6098 163.672 69.2462 157.574 78.1248 152.077C84.8994 147.698 91.7133 143.383 99.0768 140.034C101.509 138.883 103.978 137.779 106.538 136.829C106.574 136.818 106.613 136.819 106.649 136.832C106.684 136.846 106.714 136.871 106.734 136.903C106.753 136.936 106.761 136.975 106.756 137.012C106.751 137.05 106.734 137.085 106.706 137.112L106.699 137.121Z" fill="#FF664D"/>
<path d="M94.7644 148.451C90.5831 151.867 86.1855 155.01 81.5992 157.859C77.0771 160.76 72.2341 163.123 67.5194 165.695C58.3637 170.722 48.338 176.109 39.1136 180.933C39.0944 180.944 39.0733 180.95 39.0516 180.952C39.0299 180.954 39.0079 180.952 38.9871 180.946C38.9663 180.939 38.947 180.929 38.9303 180.915C38.9136 180.9 38.9 180.883 38.8901 180.864C38.8697 180.828 38.864 180.786 38.8742 180.746C38.8844 180.706 38.9097 180.672 38.9448 180.651C47.6735 174.994 57.3099 168.896 66.1851 163.404C72.9597 159.024 79.7736 154.71 87.1371 151.361C89.5729 150.205 92.0385 149.106 94.5978 148.156C94.6347 148.146 94.6738 148.149 94.709 148.163C94.7443 148.178 94.7738 148.204 94.793 148.237C94.8123 148.27 94.8203 148.308 94.8157 148.346C94.8112 148.384 94.7944 148.419 94.7679 148.446L94.7644 148.451Z" fill="#FF664D"/>
<path d="M211.211 282.015C207.031 285.432 202.633 288.574 198.046 291.423C193.521 294.328 188.681 296.686 183.966 299.259C174.811 304.285 164.785 309.672 155.557 314.502C155.538 314.512 155.517 314.518 155.495 314.521C155.473 314.523 155.452 314.52 155.431 314.514C155.41 314.507 155.391 314.497 155.374 314.483C155.357 314.469 155.344 314.451 155.334 314.432C155.315 314.395 155.311 314.352 155.321 314.312C155.332 314.272 155.357 314.237 155.392 314.214C164.117 308.562 173.754 302.464 182.632 296.967C189.407 292.588 196.221 288.273 203.584 284.925C206.016 283.773 208.485 282.67 211.05 281.723C211.087 281.71 211.127 281.711 211.163 281.725C211.2 281.739 211.23 281.765 211.25 281.799C211.269 281.832 211.276 281.872 211.27 281.911C211.264 281.949 211.244 281.984 211.215 282.01L211.211 282.015Z" fill="#FF664D"/>
<path d="M199.275 293.336C195.096 296.748 190.702 299.888 186.121 302.739C181.595 305.636 176.752 307.999 172.037 310.571C162.886 315.601 152.856 320.984 143.631 325.809C143.612 325.82 143.591 325.826 143.569 325.828C143.547 325.83 143.525 325.828 143.505 325.821C143.484 325.815 143.465 325.804 143.448 325.79C143.431 325.776 143.418 325.759 143.408 325.739C143.389 325.703 143.384 325.662 143.394 325.622C143.404 325.583 143.428 325.549 143.462 325.527C152.191 319.869 161.827 313.772 170.703 308.279C177.477 303.9 184.291 299.585 191.655 296.237C194.09 295.08 196.556 293.982 199.12 293.035C199.157 293.023 199.197 293.023 199.234 293.037C199.27 293.051 199.301 293.077 199.32 293.111C199.34 293.145 199.347 293.184 199.341 293.223C199.334 293.261 199.315 293.296 199.285 293.322L199.275 293.336Z" fill="#FF664D"/>
<path d="M267.573 183.771C262.208 188.258 256.147 191.722 249.956 194.918C244.575 197.848 236.94 202.002 231.586 204.777C231.561 204.785 231.535 204.784 231.512 204.775C231.488 204.766 231.468 204.749 231.456 204.727C231.443 204.705 231.438 204.679 231.442 204.654C231.446 204.629 231.459 204.606 231.477 204.589C236.508 201.31 243.914 196.67 249.089 193.439C253.476 190.605 257.878 187.818 262.643 185.651C264.216 184.903 265.812 184.194 267.465 183.584C267.489 183.576 267.515 183.576 267.539 183.586C267.562 183.595 267.582 183.612 267.595 183.634C267.607 183.656 267.612 183.681 267.608 183.706C267.604 183.731 267.592 183.754 267.573 183.771Z" fill="#FF664D"/>
<path d="M266.652 181.264C262.356 184.851 257.548 187.6 252.613 190.148C248.316 192.484 242.246 195.783 237.969 198.004C237.881 198.055 237.789 197.915 237.88 197.859C241.895 195.237 247.796 191.547 251.922 188.97C256.575 185.92 261.326 183.092 266.566 181.114C266.585 181.107 266.606 181.107 266.626 181.114C266.645 181.121 266.661 181.135 266.671 181.153C266.682 181.171 266.685 181.192 266.682 181.212C266.678 181.232 266.667 181.25 266.652 181.264Z" fill="#FF664D"/>
<path d="M134.595 157.541C130.416 160.959 126.02 164.103 121.434 166.953C116.909 169.858 112.069 172.216 107.355 174.788C98.1989 179.815 88.1732 185.202 78.9453 190.031C78.9071 190.049 78.8635 190.052 78.8232 190.04C78.7828 190.027 78.7486 190 78.7272 189.964C78.7059 189.927 78.699 189.884 78.7079 189.843C78.7168 189.802 78.7408 189.765 78.7753 189.741C87.5053 184.092 97.1417 177.994 106.02 172.497C112.795 168.117 119.609 163.803 126.972 160.454C129.405 159.303 131.874 158.199 134.433 157.249C134.469 157.237 134.508 157.239 134.544 157.252C134.58 157.266 134.61 157.291 134.629 157.323C134.649 157.356 134.657 157.394 134.652 157.432C134.647 157.47 134.629 157.505 134.602 157.532L134.595 157.541Z" fill="#FF664D"/>
<path d="M134.988 153.274C130.807 156.689 126.412 159.833 121.828 162.685C117.302 165.591 112.458 167.945 107.743 170.517C98.5922 175.548 88.5618 180.931 79.3339 185.76C79.3147 185.771 79.2937 185.777 79.2719 185.779C79.2502 185.782 79.2283 185.779 79.2075 185.773C79.1866 185.766 79.1673 185.756 79.1506 185.742C79.134 185.728 79.1203 185.71 79.1105 185.691C79.093 185.653 79.0892 185.611 79.0999 185.571C79.1105 185.532 79.1348 185.497 79.1686 185.473C87.8986 179.824 97.5303 173.723 106.409 168.226C113.184 163.847 119.997 159.532 127.361 156.183C129.793 155.032 132.262 153.929 134.826 152.982C134.863 152.969 134.903 152.97 134.94 152.984C134.976 152.998 135.007 153.024 135.027 153.058C135.046 153.091 135.053 153.131 135.047 153.169C135.04 153.208 135.021 153.243 134.992 153.269L134.988 153.274Z" fill="#FF664D"/>
<path d="M93.8957 223.435C90.564 226.103 86.9482 228.395 83.1138 230.269C80.3267 231.797 74.6778 234.826 71.8622 236.304C71.7973 236.343 71.7399 236.214 71.7944 236.189C74.4942 234.475 79.8938 231.046 82.5764 229.355C86.0913 226.934 89.8632 224.909 93.8233 223.317C93.8906 223.294 93.9408 223.403 93.891 223.432L93.8957 223.435Z" fill="#FFDB58"/>
<path d="M87.9326 229.097C84.5999 231.763 80.9842 234.054 77.1507 235.93C74.3684 237.462 68.7194 240.491 65.9038 241.969C65.8343 242.004 65.7768 241.876 65.836 241.854C68.5123 240.123 73.932 236.716 76.618 235.02C80.1416 232.606 83.9194 230.586 87.8837 228.996C87.8981 228.993 87.9132 228.994 87.9268 229C87.9404 229.006 87.9518 229.016 87.9593 229.028C87.9669 229.041 87.9702 229.056 87.9687 229.071C87.9673 229.085 87.9613 229.099 87.9515 229.11L87.9326 229.097Z" fill="#FFDB58"/>
<path d="M114.218 262.925C110.886 265.592 107.27 267.884 103.436 269.759C100.651 271.295 95.0015 274.324 92.1847 275.794C92.1701 275.801 92.1535 275.802 92.1381 275.797C92.1227 275.792 92.1098 275.781 92.1018 275.767C92.0939 275.753 92.0915 275.737 92.0952 275.721C92.0988 275.705 92.1083 275.692 92.1217 275.683C94.818 273.973 100.218 270.544 102.904 268.849C106.423 266.433 110.196 264.41 114.155 262.814C114.17 262.811 114.185 262.812 114.198 262.818C114.212 262.824 114.223 262.834 114.231 262.847C114.238 262.859 114.242 262.874 114.24 262.889C114.239 262.904 114.233 262.918 114.223 262.929L114.218 262.925Z" fill="#FFDB58"/>
<g filter="url(#filter0_d_2719_19834)">
<path d="M76.2984 127.122C85.3622 126.481 92.3477 120.846 91.901 114.537C91.4544 108.228 83.7447 103.634 74.6809 104.276C65.6172 104.917 58.6316 110.552 59.0783 116.861C59.525 123.17 67.2347 127.764 76.2984 127.122Z" fill="#FCB006"/>
</g>
<path d="M72.53 109.468C68.4585 110.402 65.5869 112.785 64.7975 115.501C65.1198 112.407 68.1759 109.545 72.6975 108.529C78.4189 107.236 84.341 109.397 85.8688 113.319C86.3152 114.418 86.3756 115.636 86.0403 116.774C86.1285 115.927 86.012 115.071 85.7004 114.279C84.143 110.329 78.2479 108.179 72.53 109.468Z" fill="#FCB006"/>
<path d="M84.0524 105.593C76.3056 102.579 66.194 104.66 61.4684 110.236C56.7428 115.812 59.1976 122.788 66.9444 125.802C74.6912 128.816 84.7994 126.74 89.5425 121.17C94.2857 115.599 91.7992 108.607 84.0524 105.593ZM69.9245 122.314C64.8661 120.344 63.261 115.788 66.35 112.142C69.4391 108.495 76.001 107.109 81.0864 109.092C86.1717 111.074 87.7499 115.617 84.6656 119.268C81.5813 122.918 74.9864 124.279 69.9245 122.314Z" fill="#FFE001"/>
<path d="M63.0549 111.462C59.8498 115.248 60.0969 119.705 63.1586 123.001C59.0542 119.649 58.3457 114.609 61.9096 110.393C66.4408 105.043 76.0978 103.07 83.4937 105.971C85.4388 106.673 87.1986 107.808 88.6399 109.291C87.4383 108.327 86.0923 107.559 84.6515 107.014C77.2385 104.136 67.5608 106.137 63.0549 111.462Z" fill="#FFE757"/>
<path d="M78.332 122.808C72.6059 124.098 66.6885 121.94 65.1559 118.015C64.8417 117.224 64.725 116.367 64.816 115.52C65.5912 112.794 68.4732 110.397 72.5343 109.477C78.2557 108.184 84.1778 110.345 85.7104 114.27C86.0219 115.063 86.1385 115.918 86.0503 116.765C85.2751 119.491 82.3897 121.893 78.332 122.808Z" fill="#F9BE08"/>
<g filter="url(#filter1_d_2719_19834)">
<path d="M82.3955 111.54L77.2727 115.113L84.1798 116.067L84.3515 116.504L72.4349 122.283L71.442 119.772L76.4131 117.402L70.5444 116.637L74.8587 113.606L69.0311 113.673L68.0381 111.162L82.2413 111.109L82.3955 111.54Z" fill="#FFE001"/>
</g>
<path d="M68.6673 111.712C72.9522 111.292 77.2661 111.257 81.5573 111.608C77.2723 112.026 72.9585 112.061 68.6673 111.712Z" fill="#FFE757"/>
<g filter="url(#filter2_d_2719_19834)">
<path d="M246.119 272.296C252.429 271.856 257.031 264.151 256.399 255.086C255.767 246.022 250.139 239.031 243.83 239.471C237.521 239.911 232.918 247.616 233.55 256.68C234.183 265.744 239.81 272.736 246.119 272.296Z" fill="#FCB006"/>
</g>
<path d="M251.206 252.92C250.294 248.858 247.9 245.971 245.178 245.191C248.268 245.518 251.127 248.579 252.143 253.1C253.428 258.823 251.265 264.737 247.332 266.271C246.24 266.708 245.033 266.765 243.904 266.434C244.751 266.522 245.607 266.405 246.4 266.094C250.349 264.528 252.519 258.663 251.206 252.92Z" fill="#FCB006"/>
<path d="M255.076 264.444C258.103 256.699 256.031 246.587 250.458 241.856C244.885 237.126 237.912 239.576 234.898 247.323C231.885 255.07 233.939 265.177 239.517 269.911C245.094 274.644 252.05 272.189 255.076 264.444ZM238.388 250.282C240.358 245.224 244.915 243.627 248.561 246.716C252.208 249.805 253.556 256.418 251.578 261.478C249.6 266.538 245.047 268.138 241.404 265.044C237.761 261.951 236.409 255.342 238.388 250.282Z" fill="#FFE001"/>
<path d="M249.222 243.438C245.439 240.228 240.986 240.47 237.681 243.533C241.038 239.432 246.078 238.724 250.288 242.297C255.638 246.828 257.595 256.488 254.703 263.89C253.987 265.83 252.843 267.582 251.354 269.016C252.318 267.814 253.086 266.468 253.632 265.028C256.538 257.635 254.568 247.974 249.222 243.438Z" fill="#FFE757"/>
<path d="M237.868 258.709C236.586 252.982 238.746 247.073 242.679 245.539C243.471 245.227 244.327 245.111 245.174 245.199C247.897 245.979 250.291 248.865 251.202 252.928C252.492 258.654 250.324 264.564 246.4 266.097C245.607 266.408 244.751 266.525 243.904 266.437C241.182 265.657 238.78 262.771 237.868 258.709Z" fill="#F9BE08"/>
<g filter="url(#filter3_d_2719_19834)">
<path d="M249.131 262.785L245.569 257.656L244.596 264.55L244.151 264.723L238.387 252.796L240.903 251.835L243.275 256.793L244.045 250.928L247.059 255.266L246.992 249.438L249.504 248.454L249.513 262.639L249.131 262.785Z" fill="#FFE001"/>
</g>
<path d="M248.966 249.072C249.379 253.359 249.408 257.673 249.054 261.965C248.64 257.679 248.61 253.364 248.966 249.072Z" fill="#FFE757"/>
<g filter="url(#filter4_d_2719_19834)">
<path d="M138.97 321.416C144.207 316.147 142.319 305.779 134.753 298.259C127.187 290.739 116.808 288.914 111.571 294.183C106.334 299.451 108.222 309.819 115.788 317.339C123.354 324.86 133.733 326.685 138.97 321.416Z" fill="#FCB006"/>
</g>
<path d="M133.956 313.52C135.753 310.502 135.061 306.189 132.573 302.396C135.8 306.434 136.867 311.419 134.882 314.761C132.362 318.991 125.902 318.985 120.443 314.75C118.91 313.563 117.58 312.133 116.507 310.518C117.393 311.626 118.407 312.625 119.528 313.495C124.981 317.748 131.441 317.754 133.956 313.52Z" fill="#FCB006"/>
<path d="M119.649 290.547C110.941 290.296 106.269 297.516 109.225 306.679C112.18 315.842 121.625 323.472 130.338 323.726C139.051 323.98 143.718 316.757 140.767 307.598C137.816 298.438 128.372 290.787 119.649 290.547ZM128.474 317.955C122.781 317.789 116.601 312.802 114.674 306.812C112.747 300.821 115.81 296.086 121.489 296.271C127.168 296.457 133.361 301.425 135.292 307.41C137.222 313.396 134.175 318.15 128.486 317.978L128.474 317.955Z" fill="#FFE001"/>
<path d="M111.682 307.5C113.685 313.712 118.802 319.214 124.607 321.94C118.035 319.599 111.936 313.595 109.697 306.69C106.874 297.927 111.34 291.019 119.668 291.266C122.192 291.377 124.666 292.008 126.935 293.12C125.236 292.503 123.452 292.155 121.646 292.086C113.325 291.83 108.859 298.738 111.682 307.5Z" fill="#FFE757"/>
<path d="M115.1 299.427C117.615 295.193 124.092 295.176 129.538 299.438C130.663 300.3 131.684 301.289 132.58 302.387C135.078 306.167 135.76 310.494 133.962 313.511C131.448 317.745 124.987 317.739 119.524 313.501C118.403 312.631 117.389 311.631 116.503 310.523C114.009 306.768 113.316 302.426 115.1 299.427Z" fill="#F9BE08"/>
<g filter="url(#filter5_d_2719_19834)">
<path d="M125.128 298.768L125.561 305.585L131.402 303.636L132.018 304.087L130.223 316.778L126.745 314.08L127.523 308.835L122.621 310.548L122.255 304.783L118.272 307.501L114.789 304.799L124.535 298.305L125.128 298.768Z" fill="#FFE001"/>
</g>
<path d="M115.841 305.251C118.506 302.884 121.46 300.865 124.632 299.242C121.969 301.609 119.015 303.629 115.841 305.251Z" fill="#FFE757"/>
<path d="M276.107 2.75797L277.454 12.1321C277.49 12.3588 277.575 12.5749 277.703 12.766C277.83 12.957 277.997 13.1184 278.192 13.2393L286.19 18.3212C286.662 18.6232 287.031 19.0624 287.247 19.58C287.463 20.0976 287.515 20.6688 287.397 21.2169C287.279 21.7651 286.996 22.2641 286.586 22.6469C286.176 23.0298 285.659 23.2782 285.105 23.3589L275.73 24.706C275.5 24.74 275.281 24.8236 275.086 24.951C274.892 25.0785 274.728 25.2468 274.605 25.4441L269.523 33.4416C269.222 33.9154 268.783 34.2856 268.265 34.5027C267.748 34.7197 267.176 34.7732 266.627 34.6558C266.079 34.5385 265.579 34.256 265.195 33.8463C264.812 33.4366 264.562 32.9194 264.481 32.364L263.134 22.9899C263.098 22.7632 263.013 22.547 262.886 22.356C262.758 22.165 262.591 22.0035 262.396 21.8827L254.399 16.8007C253.926 16.4987 253.557 16.0595 253.342 15.5419C253.126 15.0244 253.073 14.4532 253.192 13.905C253.31 13.3568 253.592 12.8578 254.002 12.475C254.412 12.0921 254.929 11.8437 255.484 11.763L264.858 10.416C265.088 10.382 265.308 10.2983 265.502 10.1709C265.696 10.0434 265.861 9.87519 265.984 9.67785L271.069 1.67662C271.37 1.2023 271.808 0.831533 272.326 0.614268C272.844 0.397003 273.416 0.343699 273.965 0.461544C274.514 0.579388 275.014 0.862707 275.397 1.27332C275.78 1.68394 276.027 2.2021 276.107 2.75797Z" fill="#FFE279"/>
<g style="mix-blend-mode:multiply">
<path d="M268.397 34.4561C268.007 34.6422 267.579 34.7341 267.147 34.7242C266.715 34.7144 266.292 34.6032 265.91 34.3995C265.529 34.1959 265.202 33.9055 264.953 33.5519C264.705 33.1982 264.543 32.7912 264.481 32.3636L263.134 22.9857C263.098 22.7591 263.013 22.5429 262.886 22.3519C262.758 22.1608 262.591 21.9994 262.396 21.8786L254.399 16.7966C253.926 16.4946 253.557 16.0554 253.342 15.5378C253.126 15.0203 253.073 14.4491 253.192 13.9009C253.31 13.3527 253.592 12.8537 254.002 12.4709C254.412 12.088 254.929 11.8396 255.484 11.7589L256.056 11.6777C255.652 11.9232 255.317 12.2676 255.083 12.6783C254.849 13.0891 254.724 13.5527 254.718 14.0254C254.713 14.4981 254.829 14.9643 255.053 15.3801C255.278 15.7958 255.606 16.1475 256.004 16.4017L264.083 21.5316C264.281 21.6566 264.449 21.8229 264.577 22.0191C264.704 22.2153 264.787 22.4368 264.821 22.6684L266.183 32.1421C266.261 32.7119 266.518 33.2423 266.915 33.6578C267.313 34.0733 267.831 34.3527 268.397 34.4561Z" fill="#FFE279"/>
<path d="M273.501 0.400023C273.239 0.604748 273.015 0.854717 272.84 1.13814L267.71 9.21318C267.586 9.41132 267.42 9.57998 267.223 9.70744C267.027 9.8349 266.805 9.91812 266.574 9.9513L265.622 10.0879C265.767 9.97609 265.892 9.83999 265.991 9.68559L271.065 1.67698C271.32 1.26553 271.68 0.929982 272.108 0.705358C272.537 0.480734 273.018 0.375271 273.501 0.400023Z" fill="#FFE279"/>
</g>
<g style="mix-blend-mode:screen">
<path d="M275.01 4.36378C275.18 6.1242 275.457 9.67456 275.567 11.4387C275.567 11.4475 275.564 11.4559 275.558 11.4621C275.551 11.4684 275.543 11.4719 275.534 11.4719C275.525 11.4719 275.517 11.4684 275.511 11.4621C275.504 11.4559 275.501 11.4475 275.501 11.4387C274.597 9.19117 274.404 6.72074 274.947 4.36009C274.947 4.32318 275.006 4.31211 275.01 4.36009V4.36378Z" fill="#FFE279"/>
</g>
<g style="mix-blend-mode:screen">
<path d="M272.601 25.729C271.678 27.2384 269.774 30.2463 268.799 31.7262C268.794 31.7305 268.787 31.7329 268.78 31.733C268.773 31.7331 268.766 31.731 268.76 31.7268C268.754 31.7227 268.75 31.7168 268.748 31.7101C268.746 31.7033 268.746 31.6961 268.748 31.6893C269.372 29.3496 270.697 27.2569 272.545 25.6921C272.568 25.6662 272.623 25.6921 272.601 25.729Z" fill="#FFE279"/>
</g>
<g style="mix-blend-mode:screen">
<path d="M283.573 18.7166C281.364 18.4121 279.327 17.3565 277.804 15.7272C277.775 15.7051 277.804 15.6534 277.834 15.6719C279.284 16.3879 282.178 17.8863 283.602 18.6613C283.628 18.6613 283.602 18.724 283.602 18.7166H283.573Z" fill="#FFE279"/>
</g>
<path d="M305.964 292.595L310.615 300.357C310.728 300.547 310.881 300.71 311.064 300.835C311.246 300.961 311.453 301.045 311.671 301.082L320.605 302.602C321.134 302.691 321.624 302.94 322.007 303.316C322.39 303.692 322.648 304.177 322.747 304.704C322.846 305.232 322.781 305.777 322.56 306.266C322.339 306.755 321.973 307.165 321.512 307.44L313.738 312.091C313.549 312.204 313.386 312.358 313.262 312.54C313.137 312.722 313.054 312.929 313.017 313.147L311.493 322.069C311.404 322.598 311.155 323.087 310.779 323.47C310.403 323.853 309.918 324.112 309.391 324.211C308.863 324.309 308.318 324.244 307.829 324.023C307.34 323.802 306.93 323.437 306.655 322.976L302.004 315.214C301.888 315.029 301.734 314.87 301.552 314.75C301.37 314.629 301.164 314.549 300.948 314.514L292.026 312.973C291.498 312.882 291.011 312.632 290.63 312.256C290.248 311.88 289.991 311.396 289.892 310.869C289.793 310.343 289.858 309.799 290.077 309.31C290.297 308.821 290.66 308.412 291.119 308.135L298.881 303.48C299.071 303.367 299.234 303.214 299.359 303.032C299.483 302.849 299.566 302.642 299.602 302.424L301.138 293.506C301.232 292.982 301.482 292.498 301.857 292.119C302.232 291.74 302.713 291.484 303.237 291.385C303.76 291.287 304.302 291.349 304.789 291.565C305.276 291.781 305.686 292.141 305.964 292.595Z" fill="#BF9AEF"/>
<g style="mix-blend-mode:multiply">
<path d="M321.5 307.441L313.738 312.092C313.548 312.206 313.385 312.359 313.26 312.541C313.135 312.723 313.051 312.931 313.013 313.148L311.493 322.07C311.404 322.599 311.154 323.088 310.778 323.471C310.402 323.855 309.918 324.113 309.391 324.212C308.863 324.311 308.318 324.245 307.829 324.025C307.339 323.804 306.93 323.438 306.655 322.977L302.004 315.215C301.887 315.03 301.733 314.872 301.551 314.752C301.369 314.631 301.163 314.55 300.948 314.515L292.026 312.97C291.426 312.874 290.878 312.57 290.479 312.111C290.08 311.653 289.855 311.068 289.843 310.46C289.997 310.512 290.155 310.552 290.315 310.58L300.003 312.237C300.237 312.278 300.46 312.369 300.655 312.503C300.851 312.637 301.016 312.812 301.138 313.016L306.191 321.445C306.491 321.943 306.936 322.339 307.466 322.577C307.997 322.816 308.588 322.886 309.16 322.779C309.732 322.671 310.257 322.391 310.665 321.977C311.074 321.562 311.345 321.032 311.443 320.459L313.1 310.771C313.14 310.534 313.231 310.309 313.367 310.111C313.503 309.913 313.68 309.746 313.887 309.624L322.32 304.575C322.43 304.509 322.536 304.437 322.639 304.359C322.832 304.926 322.825 305.541 322.617 306.103C322.41 306.664 322.015 307.137 321.5 307.441Z" fill="#BF9AEF"/>
</g>
<g style="mix-blend-mode:screen">
<path d="M305.093 294.147C305.884 295.643 307.429 298.675 308.166 300.195C308.166 300.228 308.133 300.253 308.113 300.224C307.291 299.415 306.614 298.472 306.108 297.436C305.567 296.419 305.204 295.316 305.035 294.176C305.035 294.143 305.072 294.114 305.089 294.147H305.093Z" fill="#BF9AEF"/>
</g>
<g style="mix-blend-mode:screen">
<path d="M310.759 313.894C310.494 315.551 309.91 318.919 309.591 320.575C309.591 320.613 309.529 320.604 309.533 320.575C309.362 319.436 309.386 318.277 309.604 317.146C309.777 316.007 310.147 314.907 310.697 313.894C310.697 313.861 310.764 313.865 310.759 313.894Z" fill="#BF9AEF"/>
</g>
<g style="mix-blend-mode:screen">
<path d="M317.892 303.692C315.821 304.235 313.626 304.045 311.679 303.153C311.674 303.151 311.669 303.148 311.666 303.143C311.663 303.138 311.661 303.132 311.661 303.127C311.661 303.121 311.663 303.115 311.666 303.11C311.669 303.105 311.674 303.102 311.679 303.1C312.711 303.162 313.75 303.257 314.773 303.336C315.796 303.414 316.844 303.518 317.859 303.634C317.867 303.634 317.874 303.637 317.88 303.642C317.885 303.648 317.888 303.655 317.888 303.663C317.888 303.671 317.885 303.678 317.88 303.683C317.874 303.689 317.867 303.692 317.859 303.692H317.892Z" fill="#BF9AEF"/>
</g>
<path d="M10.0188 204.411L13.3514 208.102C13.5153 208.286 13.733 208.412 13.9733 208.464C14.2135 208.515 14.464 208.489 14.6886 208.39L19.2293 206.369C19.6143 206.201 20.0425 206.158 20.453 206.248C20.8636 206.337 21.2355 206.554 21.5157 206.867C21.796 207.18 21.9702 207.573 22.0137 207.991C22.0572 208.409 21.9677 208.83 21.758 209.194L19.2585 213.493C19.1366 213.706 19.0851 213.953 19.1113 214.198C19.1375 214.442 19.24 214.672 19.4043 214.855L22.7369 218.55C23.0173 218.864 23.1915 219.258 23.2346 219.676C23.2776 220.095 23.1874 220.516 22.9767 220.88C22.7661 221.244 22.4458 221.532 22.0615 221.703C21.6773 221.874 21.2489 221.92 20.8373 221.833L15.9759 220.8C15.7353 220.749 15.4849 220.776 15.2605 220.876C15.0361 220.976 14.849 221.145 14.7261 221.358L12.2266 225.657C12.0159 226.022 11.6953 226.31 11.3106 226.481C10.9259 226.653 10.497 226.698 10.0851 226.61C9.67316 226.523 9.29947 226.308 9.01744 225.995C8.73541 225.682 8.55952 225.288 8.51493 224.87L7.99837 219.929C7.97178 219.684 7.86901 219.454 7.70456 219.271C7.54012 219.088 7.32232 218.961 7.08189 218.908L2.24125 217.871C1.82806 217.786 1.45245 217.572 1.16835 217.261C0.884246 216.949 0.706276 216.555 0.659996 216.136C0.613717 215.716 0.701508 215.293 0.910764 214.927C1.12002 214.561 1.43997 214.27 1.82467 214.097L6.36538 212.081C6.59031 211.981 6.77768 211.812 6.90046 211.598C7.02324 211.385 7.0751 211.138 7.04857 210.893L6.53201 205.953C6.48271 205.53 6.57021 205.102 6.78168 204.732C6.99316 204.362 7.31751 204.069 7.70725 203.897C8.097 203.725 8.53165 203.682 8.9476 203.774C9.36354 203.867 9.73892 204.09 10.0188 204.411Z" fill="#EF948B"/>
<g style="mix-blend-mode:multiply">
<path d="M7.83577 218.358L7.9774 219.716C7.92196 219.51 7.81103 219.324 7.65675 219.177C7.50247 219.03 7.31076 218.928 7.10259 218.883L2.24111 217.871C1.74362 217.773 1.30248 217.489 1.00871 217.076C0.714936 216.662 0.590933 216.152 0.66228 215.65C0.950265 215.922 1.30792 216.108 1.6954 216.188L6.84848 217.283C7.1049 217.337 7.33815 217.469 7.5153 217.662C7.69245 217.855 7.80455 218.098 7.83577 218.358Z" fill="#EF948B"/>
</g>
<g style="mix-blend-mode:multiply">
<path d="M23.2573 219.92C23.251 220.214 23.1797 220.503 23.0486 220.766C22.9175 221.03 22.7298 221.261 22.4989 221.443C22.268 221.625 21.9996 221.755 21.713 221.821C21.4264 221.887 21.1287 221.89 20.8411 221.828L15.9796 220.794C15.7391 220.744 15.4887 220.771 15.2643 220.871C15.0398 220.971 14.8528 221.14 14.7299 221.353L12.2304 225.652C12.0197 226.016 11.699 226.305 11.3144 226.476C10.9297 226.647 10.5007 226.692 10.0888 226.605C9.67693 226.518 9.30323 226.302 9.02121 225.99C8.73918 225.677 8.56329 225.283 8.5187 224.864L8.41455 223.89C8.51108 224.306 8.73159 224.684 9.04704 224.973C9.36248 225.262 9.75804 225.448 10.1816 225.508C10.6051 225.567 11.0368 225.497 11.4196 225.306C11.8025 225.116 12.1186 224.813 12.3262 224.44L14.9632 219.878C15.095 219.654 15.2934 219.476 15.5309 219.37C15.7684 219.264 16.033 219.235 16.2879 219.286L21.441 220.382C21.7587 220.454 22.089 220.45 22.4048 220.37C22.7206 220.289 23.0127 220.135 23.2573 219.92Z" fill="#EF948B"/>
</g>
<g style="mix-blend-mode:screen">
<path d="M18.808 215.943C19.6411 216.805 21.3533 218.567 22.1781 219.459C22.1781 219.479 22.1781 219.509 22.1489 219.488C21.4163 219.102 20.7543 218.595 20.191 217.988C19.6068 217.403 19.129 216.721 18.7788 215.972C18.7788 215.951 18.7788 215.922 18.808 215.943Z" fill="#EF948B"/>
</g>
<g style="mix-blend-mode:screen">
<path d="M20.4255 208.359C19.9339 209.354 18.905 211.337 18.3759 212.316C18.3759 212.316 18.3301 212.316 18.3343 212.316C18.4287 211.56 18.6647 210.828 19.0299 210.158C19.3651 209.473 19.8273 208.858 20.3922 208.346C20.3955 208.342 20.4004 208.339 20.4059 208.338C20.4113 208.337 20.4169 208.339 20.4213 208.342C20.4257 208.345 20.4287 208.35 20.4294 208.356C20.4302 208.361 20.4288 208.367 20.4255 208.371V208.359Z" fill="#EF948B"/>
</g>
<defs>
<filter id="filter0_d_2719_19834" x="59.0581" y="104.215" width="33.541" height="23.6446" filterUnits="userSpaceOnUse" color-interpolation-filters="sRGB">
<feFlood flood-opacity="0" result="BackgroundImageFix"/>
<feColorMatrix in="SourceAlpha" type="matrix" values="0 0 0 0 0 0 0 0 0 0 0 0 0 0 0 0 0 0 127 0" result="hardAlpha"/>
<feOffset dx="0.677758" dy="0.677758"/>
<feColorMatrix type="matrix" values="0 0 0 0 0.988235 0 0 0 0 0.690196 0 0 0 0 0.0235294 0 0 0 1 0"/>
<feBlend mode="normal" in2="BackgroundImageFix" result="effect1_dropShadow_2719_19834"/>
<feBlend mode="normal" in="SourceGraphic" in2="effect1_dropShadow_2719_19834" result="shape"/>
</filter>
<filter id="filter1_d_2719_19834" x="68.0381" y="111.109" width="16.5846" height="11.4449" filterUnits="userSpaceOnUse" color-interpolation-filters="sRGB">
<feFlood flood-opacity="0" result="BackgroundImageFix"/>
<feColorMatrix in="SourceAlpha" type="matrix" values="0 0 0 0 0 0 0 0 0 0 0 0 0 0 0 0 0 0 127 0" result="hardAlpha"/>
<feOffset dx="0.271103" dy="0.271103"/>
<feColorMatrix type="matrix" values="0 0 0 0 0.988235 0 0 0 0 0.690196 0 0 0 0 0.0235294 0 0 0 1 0"/>
<feBlend mode="normal" in2="BackgroundImageFix" result="effect1_dropShadow_2719_19834"/>
<feBlend mode="normal" in="SourceGraphic" in2="effect1_dropShadow_2719_19834" result="shape"/>
</filter>
<filter id="filter2_d_2719_19834" x="233.492" y="239.451" width="23.6426" height="33.543" filterUnits="userSpaceOnUse" color-interpolation-filters="sRGB">
<feFlood flood-opacity="0" result="BackgroundImageFix"/>
<feColorMatrix in="SourceAlpha" type="matrix" values="0 0 0 0 0 0 0 0 0 0 0 0 0 0 0 0 0 0 127 0" result="hardAlpha"/>
<feOffset dx="0.677758" dy="0.677758"/>
<feColorMatrix type="matrix" values="0 0 0 0 0.988235 0 0 0 0 0.690196 0 0 0 0 0.0235294 0 0 0 1 0"/>
<feBlend mode="normal" in2="BackgroundImageFix" result="effect1_dropShadow_2719_19834"/>
<feBlend mode="normal" in="SourceGraphic" in2="effect1_dropShadow_2719_19834" result="shape"/>
</filter>
<filter id="filter3_d_2719_19834" x="238.387" y="248.453" width="11.3966" height="16.5406" filterUnits="userSpaceOnUse" color-interpolation-filters="sRGB">
<feFlood flood-opacity="0" result="BackgroundImageFix"/>
<feColorMatrix in="SourceAlpha" type="matrix" values="0 0 0 0 0 0 0 0 0 0 0 0 0 0 0 0 0 0 127 0" result="hardAlpha"/>
<feOffset dx="0.271103" dy="0.271103"/>
<feColorMatrix type="matrix" values="0 0 0 0 0.988235 0 0 0 0 0.690196 0 0 0 0 0.0235294 0 0 0 1 0"/>
<feBlend mode="normal" in2="BackgroundImageFix" result="effect1_dropShadow_2719_19834"/>
<feBlend mode="normal" in="SourceGraphic" in2="effect1_dropShadow_2719_19834" result="shape"/>
</filter>
<filter id="filter4_d_2719_19834" x="108.319" y="291.172" width="33.6136" height="34.122" filterUnits="userSpaceOnUse" color-interpolation-filters="sRGB">
<feFlood flood-opacity="0" result="BackgroundImageFix"/>
<feColorMatrix in="SourceAlpha" type="matrix" values="0 0 0 0 0 0 0 0 0 0 0 0 0 0 0 0 0 0 127 0" result="hardAlpha"/>
<feOffset dx="-0.288421" dy="0.868092"/>
<feColorMatrix type="matrix" values="0 0 0 0 0.988235 0 0 0 0 0.690196 0 0 0 0 0.0235294 0 0 0 1 0"/>
<feBlend mode="normal" in2="BackgroundImageFix" result="effect1_dropShadow_2719_19834"/>
<feBlend mode="normal" in="SourceGraphic" in2="effect1_dropShadow_2719_19834" result="shape"/>
</filter>
<filter id="filter5_d_2719_19834" x="114.789" y="298.305" width="17.5109" height="18.7551" filterUnits="userSpaceOnUse" color-interpolation-filters="sRGB">
<feFlood flood-opacity="0" result="BackgroundImageFix"/>
<feColorMatrix in="SourceAlpha" type="matrix" values="0 0 0 0 0 0 0 0 0 0 0 0 0 0 0 0 0 0 127 0" result="hardAlpha"/>
<feOffset dx="0.282399" dy="0.282399"/>
<feColorMatrix type="matrix" values="0 0 0 0 0.988235 0 0 0 0 0.690196 0 0 0 0 0.0235294 0 0 0 1 0"/>
<feBlend mode="normal" in2="BackgroundImageFix" result="effect1_dropShadow_2719_19834"/>
<feBlend mode="normal" in="SourceGraphic" in2="effect1_dropShadow_2719_19834" result="shape"/>
</filter>
</defs>
</svg>
