<svg width="278" height="181" viewBox="0 0 278 181" fill="none" xmlns="http://www.w3.org/2000/svg">
<path d="M124.274 88.65C100.259 99.7094 87.7911 123.224 72.4048 143.913C62.9362 132.743 60.9806 117.565 64.9725 103.307C72.5023 76.3944 92.9878 58.365 120.396 50.3261C143.279 44.2173 182.192 47.7129 188.954 78.2015C166.878 71.1171 143.639 75.8768 124.439 88.5567L124.274 88.65Z" fill="#FACBC1"/>
<g style="mix-blend-mode:multiply" opacity="0.5">
<path d="M189.294 76.6705C171.633 71.2575 152.768 74.944 135.868 81.2436C129.322 83.7804 122.734 86.6015 116.824 90.3982C110.474 95.0816 104.7 100.643 99.0922 106.222C88.474 117.205 77.9831 128.816 72.252 143.235C74.0761 130.648 81.1393 119.436 88.6098 109.412C95.4185 100.605 102.991 92.3921 111.679 85.3755C112.994 84.3277 114.504 83.3902 115.951 82.5544C136.733 70.8502 167.718 63.5155 189.298 76.6748L189.294 76.6705Z" fill="#FACBC1"/>
</g>
<path d="M122.437 86.0997C144.276 73.4198 168.392 69.5128 192.348 77.2972C197.897 78.9644 204.286 84.2035 203.883 90.8001C203.454 97.8336 192.505 97.9482 187.02 99.6663C179.405 101.698 170.543 103.934 163.31 106.259C133.666 114.904 112.332 130.146 92.08 153.313C90.0692 155.485 88.7371 158.671 85.7421 160.122C77.1517 164.279 67.3311 153.724 71.2721 144.943C79.2516 127.156 97.2172 99.5729 122.441 86.104L122.437 86.0997Z" fill="white"/>
<mask id="mask0_3275_28912" style="mask-type:luminance" maskUnits="userSpaceOnUse" x="70" y="73" width="134" height="89">
<path d="M122.437 86.1037C144.276 73.4237 168.393 69.5167 192.349 77.3011C197.897 78.9683 204.286 84.2074 203.883 90.804C203.455 97.8375 192.505 97.9521 187.02 99.6702C179.406 101.702 170.544 103.938 163.311 106.263C133.666 114.908 112.333 130.15 92.0804 153.317C90.0697 155.489 88.7376 158.675 85.7426 160.126C77.1522 164.283 67.3316 153.728 71.2726 144.947C79.2521 127.16 97.2177 99.5768 122.442 86.1079L122.437 86.1037Z" fill="white"/>
</mask>
<g mask="url(#mask0_3275_28912)">
<path d="M68.2944 156.629C79.078 142.214 99.0502 125.156 131.596 112.09C143.572 107.283 194.919 90.4589 250.797 95.6428C263.536 96.8222 275.834 100.975 282.045 104.106" fill="#E5E5E5"/>
<path d="M127.672 113.913C124.41 117.506 97.4469 131.849 84.9198 136.193C80.0667 137.877 59.6152 136.023 50.9526 121.333C46.7062 114.129 47.0159 106.468 47.525 102.408C44.8185 106.561 40.8648 113.052 36.9195 121.43C29.4872 137.228 25.4911 145.717 28.1891 155.508C31.4386 167.314 42.2095 173.011 42.9052 173.367C42.9052 173.367 49.4636 176.71 58.2237 176.333C73.9071 175.658 101.833 150.192 127.672 113.913Z" fill="#E5E5E5"/>
</g>
<path d="M124.558 180.628C20.3191 181.129 142.519 74.8324 200.943 94.9319C212.575 99.6535 211.077 114.654 207.738 124.156C199.975 144.103 181.955 156.087 162.95 166.739C149.196 173.951 134.743 178.965 124.706 180.62C124.668 180.624 124.558 180.628 124.558 180.628Z" fill="#FACBC1"/>
<mask id="mask1_3275_28912" style="mask-type:luminance" maskUnits="userSpaceOnUse" x="83" y="92" width="128" height="89">
<path d="M124.558 180.632C20.3191 181.133 142.519 74.8363 200.943 94.9358C212.575 99.6574 211.077 114.658 207.738 124.16C199.975 144.107 181.955 156.091 162.95 166.743C149.196 173.955 134.743 178.969 124.706 180.624C124.668 180.628 124.558 180.632 124.558 180.632Z" fill="white"/>
</mask>
<g mask="url(#mask1_3275_28912)">
<g style="mix-blend-mode:multiply">
<path d="M80.9103 174.394C94.1034 155.775 110.618 139.285 130.276 127.7C149.935 116.115 172.842 109.594 195.623 110.922C204.705 111.452 215.281 114.477 218.23 123.085C220.397 129.41 217.466 136.295 214.051 142.043C202.652 161.213 184.928 176.549 164.32 185.076C143.711 193.602 120.333 195.27 98.7232 189.759C94.6168 188.711 90.4976 187.375 87.0657 184.889C83.6338 182.403 80.9527 178.585 80.7236 174.356" fill="#FACBC1"/>
</g>
</g>
<g style="mix-blend-mode:multiply">
<path d="M167.875 158.957C156.345 165.965 146.172 169.045 136.95 170.127C131.044 170.818 118.869 172.244 116.515 167.433C113.66 161.604 126.849 149.913 131.104 146.141C139.461 138.734 158.211 124.875 182.625 125.91C188.513 126.161 194.52 126.415 195.979 129.75C199.034 136.741 179.723 151.758 167.875 158.961V158.957Z" fill="#FACBC1"/>
</g>
<g style="mix-blend-mode:screen" opacity="0.5">
<path d="M183.999 73.0415C149.68 57.0272 110.809 77.3812 89.5429 105.38C82.2252 114.899 76.4134 125.653 72.833 137.319C73.8639 131.304 75.7559 125.42 78.1951 119.782C85.691 102.817 98.2479 88.2158 113.783 78.0388C134.323 64.3577 162.19 59.5344 183.999 73.0457V73.0415Z" fill="#FACBC1"/>
</g>
<g style="mix-blend-mode:screen" opacity="0.5">
<path d="M167.765 106.985C175.948 100.656 188.763 97.2915 198.902 99.7986C194.333 101.114 188.025 102.463 183.406 103.6C178.743 104.669 172.512 106.349 167.765 106.985Z" fill="#FACBC1"/>
</g>
<path d="M218.335 80.8465C228.888 80.8465 237.442 72.292 237.442 61.7396C237.442 51.1872 228.888 42.6328 218.335 42.6328C207.783 42.6328 199.229 51.1872 199.229 61.7396C199.229 72.292 207.783 80.8465 218.335 80.8465Z" fill="#FACBC1"/>
<mask id="mask2_3275_28912" style="mask-type:luminance" maskUnits="userSpaceOnUse" x="199" y="42" width="39" height="39">
<path d="M237.4 62.8651C238.021 52.3286 229.986 43.2843 219.454 42.6642C208.922 42.044 199.882 50.0828 199.261 60.6193C198.641 71.1558 206.675 80.2 217.207 80.8202C227.739 81.4404 236.78 73.4016 237.4 62.8651Z" fill="white"/>
</mask>
<g mask="url(#mask2_3275_28912)">
<g style="mix-blend-mode:multiply">
<path d="M241.96 69.7071C239.194 71.5482 233.489 74.7426 225.92 74.7596C209.376 74.7978 199.823 59.6107 199.165 58.5332C199.051 60.7731 199.114 65.554 201.812 70.581C202.16 71.2301 206.932 79.8035 216.537 81.9246C225.891 83.9906 236.263 79.146 241.96 69.7071Z" fill="#FACBC1"/>
</g>
<g style="mix-blend-mode:screen" opacity="0.5">
<path d="M228.076 48.423C229.84 49.3012 231.55 51.1507 231.139 51.9398C230.782 52.6228 228.827 52.5337 227.469 51.7531C225.759 50.769 224.801 48.563 225.339 47.9437C225.878 47.3243 227.876 48.3212 228.08 48.423H228.076Z" fill="#FACBC1"/>
</g>
</g>
<path d="M62.6683 149.409C73.2207 149.409 81.775 140.855 81.775 130.302C81.775 119.75 73.2207 111.195 62.6683 111.195C52.1159 111.195 43.5615 119.75 43.5615 130.302C43.5615 140.855 52.1159 149.409 62.6683 149.409Z" fill="#FACBC1"/>
<mask id="mask3_3275_28912" style="mask-type:luminance" maskUnits="userSpaceOnUse" x="43" y="111" width="39" height="39">
<path d="M80.301 137.645C84.3538 127.899 79.7423 116.715 70.0009 112.664C60.2596 108.613 49.0774 113.229 45.0246 122.975C40.9719 132.721 45.5834 143.905 55.3247 147.956C65.066 152.007 76.2483 147.39 80.301 137.645Z" fill="white"/>
</mask>
<g mask="url(#mask3_3275_28912)">
<g style="mix-blend-mode:multiply">
<path d="M82.3518 145.593C79.132 146.425 72.6924 147.561 65.54 145.088C49.9034 139.684 45.8776 122.197 45.6145 120.963C44.7661 123.042 43.2601 127.576 44.151 133.21C44.2655 133.94 45.9539 143.603 54.3237 148.766C62.4772 153.793 73.8674 152.631 82.3475 145.593H82.3518Z" fill="#FACBC1"/>
</g>
<g style="mix-blend-mode:screen" opacity="0.5">
<path d="M76.239 120.929C77.6177 122.338 78.6231 124.65 77.9741 125.256C77.4098 125.782 75.5942 125.057 74.5718 123.873C73.2822 122.38 73.0998 119.983 73.8125 119.576C74.5209 119.169 76.0863 120.768 76.2432 120.929H76.239Z" fill="#FACBC1"/>
</g>
</g>
<path d="M255.879 25.2865L247.547 30.0165L232.517 38.5518L227.168 41.5892L220.079 45.615L213.542 49.327L208.642 52.1098L197.298 33.6266L238.617 5.01728L247.089 0.630859L253.27 5.16576L255.879 25.2865Z" fill="#FF664D"/>
<g style="mix-blend-mode:screen" opacity="0.5">
<path d="M253.269 5.16576C253.269 5.20818 248.921 7.68138 244.696 10.0825H244.692L238.621 5.01728L247.093 0.630859L253.269 5.16576Z" fill="#FF664D"/>
</g>
<g style="mix-blend-mode:multiply" opacity="0.5">
<path d="M255.879 25.2867L247.547 30.0168L244.696 10.0827C248.921 7.68588 253.27 5.20844 253.27 5.16602L255.879 25.2825V25.2867Z" fill="#FF664D"/>
</g>
<path d="M228.427 48.7278C226.688 49.7035 223.422 50.7131 221.754 51.1713C223.184 54.2511 225.292 56.508 227.931 57.4667C228.856 57.8061 230.044 58.0479 231.528 57.9715C231.6 58.6121 231.74 60.6059 230.51 62.5998C228.877 65.2384 226.107 65.8153 225.632 65.9087C223.969 64.9033 222.064 63.5161 220.227 61.5901C216.214 57.4031 214.394 52.69 213.542 49.3217L220.079 45.6098C220.265 46.7 220.516 47.7436 220.825 48.7278C222.009 48.6599 224.414 48.3205 225.857 47.1879C226.879 46.3819 227.401 45.4274 227.651 44.8716C227.782 44.5789 228.046 43.9044 227.906 43.073C227.795 42.4451 227.498 41.953 227.172 41.5882L232.521 38.5508L232.534 45.754C231.545 46.6661 230.184 47.7478 228.427 48.7278Z" fill="#FF664D"/>
<g style="mix-blend-mode:multiply">
<mask id="mask4_3275_28912" style="mask-type:luminance" maskUnits="userSpaceOnUse" x="213" y="38" width="20" height="28">
<path d="M228.428 48.7278C226.689 49.7035 223.423 50.7131 221.755 51.1713C223.185 54.2511 225.293 56.508 227.932 57.4667C228.857 57.8061 230.045 58.0479 231.529 57.9715C231.601 58.6121 231.741 60.6059 230.511 62.5998C228.878 65.2384 226.108 65.8153 225.633 65.9087C223.97 64.9033 222.065 63.5161 220.228 61.5901C216.215 57.4031 214.395 52.69 213.542 49.3217L220.08 45.6098C220.266 46.7 220.517 47.7436 220.826 48.7278C222.01 48.6599 224.415 48.3205 225.858 47.1879C226.88 46.3819 227.402 45.4274 227.652 44.8716C227.783 44.5789 228.046 43.9044 227.906 43.073C227.796 42.4451 227.499 41.953 227.173 41.5882L232.522 38.5508L232.535 45.754C231.546 46.6661 230.185 47.7478 228.428 48.7278Z" fill="white"/>
</mask>
<g mask="url(#mask4_3275_28912)">
<path d="M210.191 54.6752L248.184 32.4971L246.504 29.0566L208.447 51.9729L210.191 54.6752Z" fill="#FF664D"/>
</g>
</g>
<path d="M30.8646 81.1973L64.5177 89.9871L68.8278 104.928L49.5853 118.164L23.6274 115.135L12.9244 106.086L12.0972 96.2104L30.8646 81.1973Z" fill="#FF664D"/>
<g style="mix-blend-mode:screen" opacity="0.5">
<path d="M30.8646 81.1914L32.4978 91.4405L12.9244 106.085L12.0972 96.2088L30.8646 81.1914Z" fill="#FF664D"/>
</g>
<g style="mix-blend-mode:multiply" opacity="0.5">
<path d="M41.9323 101.211L23.6273 115.134L12.9243 106.085L32.4977 91.4414L41.9323 101.211Z" fill="#FF664D"/>
</g>
<g style="mix-blend-mode:multiply">
<path d="M68.8278 104.927L49.5853 118.163L23.6274 115.134L41.9324 101.211L68.8278 104.927Z" fill="#FF664D"/>
</g>
<path d="M42.6369 113.801L43.0781 114.882C43.5405 115.828 44.4653 117.288 46.3021 118.391C49.7213 120.444 53.8362 119.769 55.0622 119.532C55.8004 120.317 57.4251 122.31 57.5482 125.611C57.7009 129.615 55.5458 132.941 54.8204 133.976C56.7167 134.922 59.2153 134.727 61.2431 133.45C63.0672 132.305 63.8647 130.697 64.0896 130.192C64.2465 127.113 64.132 123.273 63.2411 119.095C62.2061 114.254 60.4625 110.504 58.876 107.819C58.8081 107.781 57.7009 107.191 56.3391 107.862C55.3677 108.337 54.9095 109.134 54.8119 109.317C55.0198 109.592 55.2234 109.885 55.4186 110.199C56.5215 111.955 57.0561 113.779 57.2979 115.396C55.987 115.311 53.6326 114.98 51.414 113.572C49.6153 112.426 48.6311 111.03 48.1136 110.101L48.0881 110.046C47.8251 110.034 46.0731 109.987 44.4229 111.298C43.1672 112.295 42.7387 113.461 42.6284 113.805L42.6369 113.801Z" fill="#FF664D"/>
<g style="mix-blend-mode:multiply" opacity="0.5">
<mask id="mask5_3275_28912" style="mask-type:luminance" maskUnits="userSpaceOnUse" x="42" y="107" width="23" height="28">
<path d="M42.6369 113.801L43.0781 114.882C43.5405 115.828 44.4653 117.288 46.3021 118.391C49.7213 120.444 53.8362 119.769 55.0622 119.532C55.8004 120.317 57.4251 122.31 57.5482 125.611C57.7009 129.615 55.5458 132.941 54.8204 133.976C56.7167 134.922 59.2153 134.727 61.2431 133.45C63.0672 132.305 63.8647 130.697 64.0896 130.192C64.2465 127.113 64.132 123.273 63.2411 119.095C62.2061 114.254 60.4625 110.504 58.876 107.819C58.8081 107.781 57.7009 107.191 56.3391 107.862C55.3677 108.337 54.9095 109.134 54.8119 109.317C55.0198 109.592 55.2234 109.885 55.4186 110.199C56.5215 111.955 57.0561 113.779 57.2979 115.396C55.987 115.311 53.6326 114.98 51.414 113.572C49.6153 112.426 48.6311 111.03 48.1136 110.101L48.0881 110.046C47.8251 110.034 46.0731 109.987 44.4229 111.298C43.1672 112.295 42.7387 113.461 42.6284 113.805L42.6369 113.801Z" fill="white"/>
</mask>
<g mask="url(#mask5_3275_28912)">
<path d="M40.1383 115.125L66.9743 114.701L61.4637 105.975L38.9717 111.243L40.1383 115.125Z" fill="#FF664D"/>
</g>
</g>
<path d="M143.47 61.404C139.703 62.7742 139.855 65.5316 135.783 67.4788C132.385 69.1035 130.005 68.06 124.418 70.5119C123.069 71.1059 122.39 71.3986 121.745 71.8694C117.355 75.0723 116.579 82.8694 120.244 87.6546C124.643 93.4028 134.383 93.4155 140.339 92.1132C148.009 90.4375 154.822 85.4105 157.668 79.1066C158.283 77.7449 161.77 70.0199 156.637 64.7383C153.239 61.2385 147.996 59.7538 143.461 61.404H143.47Z" fill="#624E5B"/>
<path d="M108.883 77.7498C109.783 77.4953 110.559 76.8377 110.932 75.9044C111.573 74.3009 110.797 72.481 109.193 71.8404C106.856 70.9029 103.135 69.9696 98.6894 70.852C93.391 71.9041 89.9887 74.9881 88.4318 76.7359C87.2822 78.0255 87.3968 80.0024 88.6864 81.152C89.976 82.3017 91.9529 82.1871 93.1025 80.8975C94.1376 79.7351 96.3944 77.6862 99.9069 76.9904C103.004 76.3753 105.6 77.1389 106.868 77.648C107.534 77.9152 108.243 77.9364 108.883 77.754V77.7498Z" fill="#624E5B"/>
<path d="M170.386 64.62C172.668 63.4838 172.753 59.0178 170.575 54.645C168.398 50.2722 164.783 47.6483 162.501 48.7845C160.219 49.9207 160.135 54.3867 162.312 58.7595C164.489 63.1324 168.104 65.7562 170.386 64.62Z" fill="#624E5B"/>
<path d="M17.1672 102.797C17.2139 101.753 17.4133 95.0506 12.1106 89.8964C7.39327 85.3105 1.62815 85.1578 0.410645 85.1536C3.04504 82.2477 5.68367 79.3375 8.31806 76.4316C9.67556 76.5504 16.5139 77.2758 21.5452 83.2191C25.9019 88.3649 26.114 94.1258 26.1182 95.7294C23.1317 98.088 20.1495 100.442 17.163 102.801L17.1672 102.797Z" fill="#96E25A"/>
<path d="M244.883 10.0957C245.706 10.3757 250.953 12.2593 253.333 17.9311C255.45 22.975 253.817 27.4887 253.448 28.4305C256.502 27.2724 259.552 26.1185 262.607 24.9604C262.929 23.8744 264.443 18.3595 261.372 12.6538C258.712 7.71587 254.317 5.7984 253.079 5.31055C250.347 6.90561 247.615 8.50067 244.883 10.0957Z" fill="#96E25A"/>
<path d="M35.9177 148.537L51.4143 150.455C52.8906 154.086 52.5385 156.453 51.9828 157.917C50.2732 162.426 45.0129 162.698 43.053 167.309C41.9118 169.994 42.4633 172.802 43.053 174.661C38.8448 175.119 34.6365 175.577 30.4283 176.035C28.1205 171.029 28.4896 167.775 29.2532 165.731C30.9289 161.234 35.3831 160.229 36.6006 155.435C37.2921 152.716 36.5794 150.183 35.9177 148.537Z" fill="#96E25A"/>
<path d="M266.442 73.1228L251.42 77.3735C248.65 74.6033 248.056 72.2829 247.997 70.7175C247.818 65.8984 252.561 63.6076 252.578 58.5975C252.587 55.6789 250.987 53.3075 249.719 51.8228C253.418 49.7653 257.117 47.7079 260.816 45.6504C264.889 49.3665 265.814 52.51 265.903 54.6905C266.106 59.4842 262.39 62.144 263.128 67.031C263.548 69.8054 265.186 71.8629 266.437 73.1228H266.442Z" fill="#96E25A"/>
<path d="M5.47987 132.88L19.4112 132.643C19.0676 134.772 18.5627 139.706 20.8069 145.297C22.8601 150.413 26.1732 153.489 27.8404 154.85C23.0213 156.658 18.2022 158.465 13.383 160.272C11.8856 159.313 6.69738 155.729 4.4363 148.67C1.93765 140.864 4.7884 134.344 5.47563 132.88H5.47987Z" fill="#96E25A"/>
<path d="M273.742 41.8888L277.484 33.3111C276.076 32.976 272.885 32.0172 269.997 29.1792C267.354 26.5872 266.302 23.7407 265.886 22.3535C263.523 24.8776 261.16 27.3975 258.793 29.9216C259.001 31.0967 259.887 35.237 263.68 38.4611C267.875 42.0245 272.652 41.9355 273.738 41.8888H273.742Z" fill="#96E25A"/>
<path d="M15.8691 114.522C16.9594 113.258 18.6308 111.595 21.0022 110.119C23.8359 108.35 26.5043 107.565 28.2902 107.191C29.4908 107.62 35.3619 109.855 38.4418 116.265C42.0094 123.689 38.9254 130.663 38.4842 131.609C34.1911 132.411 29.898 133.213 25.6049 134.011C25.7407 131.957 25.817 126.544 22.4275 121.131C20.2598 117.661 17.549 115.599 15.8691 114.522Z" fill="#96E25A"/>
<path d="M179.596 35.1008C180.682 34.4433 182.663 33.4421 185.331 33.1494C188.793 32.7676 191.487 33.79 192.692 34.3372C192.687 31.2743 192.984 27.1849 194.202 22.5397C195.513 17.5424 197.447 13.6056 199.068 10.8482C195.597 10.1567 192.123 9.46101 188.653 8.76953C186.731 10.2161 183.295 13.2238 181 18.2126C177.496 25.8316 179.028 32.8991 179.6 35.0966L179.596 35.1008Z" fill="#96E25A"/>
</svg>
