<svg width="196" height="171" viewBox="0 0 196 171" fill="none" xmlns="http://www.w3.org/2000/svg">
<path d="M127.314 146.669C116.159 146.628 110.154 144.633 100.512 144.09C84.3686 142.787 68.4993 144.999 53.7998 145.706C15.7073 147.059 -21.8502 120.549 16.0161 87.4593C28.5368 76.7557 8.60986 67.2528 26.9363 52.2931C30.8504 48.9254 34.5992 46.4828 40.5268 43.0123C41.1878 42.6381 41.7619 42.3214 42.149 42.3173C42.6708 42.3132 42.7926 42.8396 42.91 43.2508C43.1884 44.5049 43.6276 46.7295 43.8798 47.8891C44.0103 48.4525 44.1147 49.094 44.2321 48.0536C45.5455 37.8064 61.5931 27.0987 74.7791 22.8304C75.4576 22.6248 76.8927 22.0162 76.8058 23.0072C76.7362 25.9637 76.5666 29.6728 76.4709 32.7733C76.3665 34.3153 76.4578 36.2315 76.1926 37.6378C75.2836 40.9192 79.189 42.8272 81.9419 43.6126C85.8951 44.5913 88.6479 42.1282 89.8744 38.2464C90.1744 37.2636 90.1614 36.1986 89.8874 35.1542C83.1857 16.0249 100.973 9.79108 124.522 1.29971C125.357 1.06532 127.754 -0.143618 127.31 0.896729C126.458 4.06711 122.148 15.9221 121.287 19.7546C121.404 20.1658 122.348 20.5441 122.892 20.7826C133.02 25.129 145.945 31.8357 149.703 44.0074C150.103 45.0559 150.742 45.7714 151.773 46.2197C185.303 59.2713 167.642 72.4298 178.671 67.1458C179.054 66.9978 179.402 66.858 179.767 66.7223C181.154 66.2206 181.181 66.1014 181.281 66.932C181.715 70.6575 182.172 78.7911 180.846 83.4419C180.593 84.2643 180.276 85.0785 180.659 85.905C180.985 86.6451 181.811 87.4347 182.603 88.1419C195.189 97.2624 199.846 115.368 192.392 127.609C184.329 144.238 144.484 147.08 127.384 146.66H127.301L127.314 146.669Z" fill="#FF694D"/>
<path d="M95.2757 132.08C92.9534 132.006 90.6876 131.952 88.2391 131.965C71.7827 131.533 57.9965 135.649 43.3058 132.873C11.7628 127.676 2.24732 111.117 28.4541 88.6648C30.011 86.6992 31.1418 84.7049 32.0855 81.041C34.0512 72.8005 29.7457 71.1516 30.4285 65.6826C30.9113 61.2909 37.6608 56.081 43.4362 53.2807C43.645 53.1655 43.9451 53.038 44.1451 52.9805C44.393 52.9147 44.4452 53.0093 44.38 53.1902C40.7225 58.5029 41.3357 60.4973 47.4503 62.6109C48.6724 63.0755 50.1032 63.643 51.3992 64.1241C56.3004 65.9869 58.1226 66.7435 56.9006 71.0159C56.7658 71.5792 56.47 72.2084 56.6005 72.7512C56.8658 73.2323 57.8617 72.3194 58.2749 71.9863C71.3739 60.082 37.626 53.7371 68.0252 36.1417C69.0603 35.5619 70.1344 34.9204 69.4778 36.4624C67.6034 42.1165 71.6392 48.4243 77.8886 50.7476C80.3632 51.714 83.8815 52.2896 86.8605 51.899C93.9232 51.1588 98.2591 43.1732 98.781 37.8687C98.8288 37.3629 98.8506 36.7297 98.8419 36.1787C98.7897 32.5025 97.011 30.5287 96.9457 27.6051C96.2412 20.5036 108.714 14.1628 117.347 11.1898C122.187 9.30647 109.218 17.362 111.993 24.5169C113.398 28.0574 117.873 29.0731 121.622 30.8083C127.88 33.6744 138.465 40.3565 139.57 47.3017C140.287 51.385 137.461 54.0373 137.421 58.2686C137.465 61.4225 137.726 67.2493 142.349 66.7681C147.333 66.0979 151.342 60.193 149.064 55.8589C148.69 54.9584 149.385 55.238 150.081 55.5793C168.438 64.486 161.397 65.37 159.184 82.7804C159.297 87.0734 161.254 83.7385 162.832 82.1636C164.376 80.4983 166.211 79.1043 168.208 77.994C170.178 76.8509 170.126 77.2621 169.256 78.8781C167.268 82.7434 168.229 86.58 170.565 89.7175C172.148 91.9709 174.427 93.3196 176.479 95.2852C180.75 99.5123 183.12 105.639 183.125 111.273C183.111 114.727 182.385 117.988 180.598 120.71C160.423 141.377 121.717 133.383 95.3453 132.08H95.2757Z" fill="#FCB006"/>
<path d="M125.81 116.367C112.889 116.005 102.573 113.057 87.2129 113.592C84.3557 113.604 81.281 113.653 78.5846 113.789C68.7429 114.192 61.1279 115.639 51.6211 115.475C46.659 115.294 40.5182 113.851 35.8475 112.469C32.4988 111.384 25.1534 109.064 24.9186 105.849C24.5228 102.81 27.4801 98.2908 30.4896 95.6262C34.5471 91.7279 50.2468 82.9898 58.7708 78.2117C60.0407 77.5085 60.8974 77.015 62.2412 76.2543C69.8084 72.1012 74.6314 63.4618 72.9745 55.949C72.4613 54.0493 73.3615 54.3865 74.901 54.9745C91.9794 61.2865 108.271 48.3418 110.284 33.1766C110.467 31.8648 111.38 31.9059 112.385 32.3829C117.09 34.369 121.913 36.7211 125.771 40.4261C126.693 41.2649 126.801 42.4163 126.297 43.4896C121.709 55.5173 128.363 74.7945 145.124 70.8593C146.672 70.5262 147.085 71.1184 146.837 72.4671C145.363 80.9626 150.116 89.5527 159.379 89.7089C160.384 89.8487 161.258 90.3422 162.015 91.033C189.309 115.076 146.646 115.676 125.888 116.367H125.806H125.81Z" fill="#FFE001"/>
<path d="M36.2789 48.7331C35.9957 48.1572 35.734 47.5663 35.4936 46.9551C35.1357 47.3642 34.8365 47.7329 34.5801 48.0613C34.6549 48.0916 35.8088 48.5512 36.2735 48.7331H36.2789Z" fill="#FF664D"/>
<path d="M20.2358 92.4286C26.9117 91.5212 31.5456 85.6686 30.586 79.3564C29.6264 73.0441 23.4366 68.6626 16.7606 69.57C10.0847 70.4773 5.45079 76.33 6.41042 82.6422C7.37006 88.9544 13.5599 93.336 20.2358 92.4286Z" fill="#E0C7FA"/>
<mask id="mask0_3277_20879" style="mask-type:luminance" maskUnits="userSpaceOnUse" x="6" y="69" width="25" height="24">
<path d="M20.2416 92.4298C26.9234 91.5217 31.5611 85.6617 30.6002 79.3412C29.6393 73.0206 23.4437 68.633 16.7619 69.5412C10.0802 70.4493 5.44253 76.3093 6.40343 82.6299C7.36432 88.9504 13.5599 93.338 20.2416 92.4298Z" fill="white"/>
</mask>
<g mask="url(#mask0_3277_20879)">
<g style="mix-blend-mode:multiply">
<path d="M33.1748 82.0165C31.679 83.4409 28.5111 86.0271 23.7673 86.9565C13.4037 88.982 5.47065 81.1427 4.92041 80.582C5.13409 81.9256 5.79117 84.7492 8.12567 87.401C8.42483 87.7445 12.5169 92.245 18.8099 92.341C24.9373 92.4319 30.8189 88.3051 33.1801 82.0216L33.1748 82.0165Z" fill="#E0C7FA"/>
</g>
<g style="mix-blend-mode:screen" opacity="0.5">
<path d="M22.9021 71.9049C24.1201 72.213 25.429 73.102 25.2687 73.6172C25.1298 74.0667 23.8958 74.2486 22.9449 73.9505C21.7482 73.5717 20.8615 72.3847 21.1232 71.9503C21.3796 71.521 22.7632 71.8644 22.9021 71.8998V71.9049Z" fill="#E0C7FA"/>
</g>
</g>
<g style="mix-blend-mode:multiply" opacity="0.5">
<path d="M21.669 90.6136C27.4191 89.832 31.4105 84.791 30.5839 79.3541C29.7574 73.9172 24.4259 70.1432 18.6757 70.9248C12.9256 71.7063 8.93422 76.7473 9.76078 82.1843C10.5873 87.6212 15.9188 91.3951 21.669 90.6136Z" fill="#BF9AEF"/>
</g>
<path d="M175.869 92.4852C182.545 91.5779 187.179 85.7252 186.219 79.413C185.26 73.1008 179.07 68.7193 172.394 69.6266C165.718 70.534 161.084 76.3866 162.044 82.6988C163.003 89.0111 169.193 93.3926 175.869 92.4852Z" fill="#E0C7FA"/>
<mask id="mask1_3277_20879" style="mask-type:luminance" maskUnits="userSpaceOnUse" x="161" y="69" width="26" height="24">
<path d="M175.86 92.4884C182.542 91.5803 187.18 85.7203 186.219 79.3997C185.258 73.0792 179.062 68.6916 172.381 69.5998C165.699 70.5079 161.061 76.3679 162.022 82.6885C162.983 89.009 169.179 93.3966 175.86 92.4884Z" fill="white"/>
</mask>
<g mask="url(#mask1_3277_20879)">
<g style="mix-blend-mode:multiply">
<path d="M188.786 82.0693C187.29 83.4937 184.122 86.0798 179.379 87.0092C169.015 89.0347 161.082 81.1954 160.532 80.6348C160.745 81.9784 161.403 84.8019 163.737 87.4537C164.036 87.7972 168.128 92.2977 174.421 92.3937C180.549 92.4846 186.43 88.3579 188.791 82.0743L188.786 82.0693Z" fill="#E0C7FA"/>
</g>
<g style="mix-blend-mode:screen" opacity="0.5">
<path d="M178.519 71.9576C179.737 72.2657 181.046 73.1547 180.885 73.6699C180.746 74.1195 179.512 74.3013 178.562 74.0033C177.365 73.6245 176.478 72.4374 176.74 72.003C176.996 71.5737 178.38 71.9172 178.519 71.9525V71.9576Z" fill="#E0C7FA"/>
</g>
</g>
<g style="mix-blend-mode:multiply" opacity="0.5">
<path d="M174.072 91.2132C179.88 90.4238 183.912 85.3315 183.077 79.8394C182.242 74.3472 176.857 70.535 171.048 71.3244C165.24 72.1139 161.208 77.2062 162.043 82.6983C162.878 88.1905 168.263 92.0027 174.072 91.2132Z" fill="#BF9AEF"/>
</g>
<path d="M170.686 126.73C170.627 126.887 170.569 127.049 170.515 127.205H170.51C170.574 127.049 170.633 126.887 170.686 126.73Z" fill="white"/>
<path d="M36.2857 103.632C32.8027 103.47 30.0622 100.763 30.0408 97.4697C30.0355 96.6009 30.0568 95.919 30.1316 95.6765C39.6192 64.6275 89.1565 54.5101 113.858 60.5967C133.261 65.5468 142.481 70.2796 152.252 80.5586C157.632 86.2209 161.681 92.5246 162.418 100.546C162.525 101.187 162.642 102.167 162.755 103.213C163.038 105.925 160.81 108.284 157.931 108.294C139.805 108.385 59.0751 104.693 36.2857 103.632Z" fill="#E0C7FA"/>
<g style="mix-blend-mode:multiply" opacity="0.5">
<path d="M160.473 107.11C147.326 95.9722 130.745 90.6433 113.869 87.249C105.444 85.5569 97.1428 84.7285 88.7076 84.7588C68.6854 84.5669 48.3106 89.3402 33.123 102.397C35.8635 97.2653 39.8755 92.6537 44.646 88.8047C59.0963 77.1367 79.3269 73.2726 97.7518 73.9444C110.413 74.4142 122.747 77.561 134.094 82.8243C145.088 88.0521 155.794 96.1187 160.473 107.105V107.11Z" fill="#E0C7FA"/>
</g>
<g style="mix-blend-mode:screen" opacity="0.5">
<path d="M159.394 97.714C146.722 85.3539 129.916 77.6813 112.169 74.6507C94.3695 71.5139 76.0247 72.6757 58.5347 77.156C71.1848 72.1049 85.2024 69.9885 98.9476 70.4583C121.758 71.2513 145.509 80.0402 159.394 97.714Z" fill="#E0C7FA"/>
</g>
<path d="M26.3648 116.872C25.4619 111.619 27.1821 107.911 30.1256 104.193C61.4303 64.6687 141.044 73.6091 164.073 111.144C166.595 115.255 166.312 123.473 164.725 126.464C163.459 128.848 161.055 130.308 157.476 130.075C147.876 128.818 145.638 126.933 136.519 124.135C112.041 116.346 79.727 113.296 55.7997 117.963C46.5739 119.71 29.3991 130.954 26.3861 116.973L26.3701 116.877L26.3648 116.872Z" fill="white"/>
<mask id="mask2_3277_20879" style="mask-type:luminance" maskUnits="userSpaceOnUse" x="26" y="78" width="140" height="53">
<path d="M26.3652 116.87C25.4624 111.617 27.1826 107.909 30.1261 104.192C61.4308 64.6667 141.044 73.6072 164.074 111.142C166.595 115.253 166.312 123.472 164.726 126.462C163.46 128.846 161.056 130.306 157.476 130.073C147.877 128.816 145.638 126.932 136.519 124.133C112.042 116.344 79.7275 113.294 55.8002 117.961C46.5744 119.708 29.3996 130.952 26.3866 116.971L26.3706 116.875L26.3652 116.87Z" fill="white"/>
</mask>
<g mask="url(#mask2_3277_20879)">
<path d="M163.058 133.681C141.898 98.9044 62.21 93.3634 33.9771 123.746Z" fill="#E5E5E5"/>
<path d="M142.481 115.28C143.405 116.24 151.028 120.074 154.57 121.236C155.943 121.685 161.723 121.19 164.17 117.26C165.372 115.336 165.281 113.285 165.137 112.199C165.901 113.31 167.023 115.043 168.134 117.286C170.238 121.508 171.366 123.776 170.607 126.393C169.688 129.55 166.643 131.07 166.446 131.166C166.446 131.166 164.592 132.06 162.113 131.959C157.679 131.777 149.784 124.973 142.476 115.275L142.481 115.28Z" fill="#E5E5E5"/>
</g>
<path d="M162.529 145.849C152.027 181.02 28.0687 180.924 30.9054 129.595C48.2084 90.7165 181.478 105.683 162.561 145.773L162.535 145.849H162.529Z" fill="#E0C7FA"/>
<g style="mix-blend-mode:multiply">
<path d="M161.862 147.427C148.239 177.794 59.6566 178.572 35.4195 147.321C34.8265 146.285 34.7464 144.987 34.6716 143.84C34.5861 140.279 36.2635 137.087 38.8438 134.375C40.6601 132.465 42.9251 130.798 45.3344 129.419C82.5528 109.847 138.666 115.585 161.846 147.361L161.856 147.432L161.862 147.427Z" fill="#E0C7FA"/>
</g>
<g style="mix-blend-mode:multiply">
<path d="M59.2136 156.082C66.388 163.148 80.6461 165.174 83.237 165.522C90.358 166.472 100.508 167.729 113.041 164.482C119.691 162.759 130.712 159.9 131.22 154.864C131.898 148.06 112.934 141.656 110.631 140.898C110.631 140.898 85.7745 132.69 61.9808 145.272C57.0714 147.869 56.6868 150.298 56.6227 150.899C56.4624 152.505 57.2797 154.182 59.2136 156.087V156.082Z" fill="#E0C7FA"/>
</g>
<g style="mix-blend-mode:screen" opacity="0.5">
<path d="M80.2347 112.806C77.9162 113.776 75.758 114.902 73.3327 115.66L73.2846 115.675C73.2686 115.675 73.322 115.675 73.338 115.675C73.3914 115.67 73.4556 115.655 73.5197 115.635C73.6532 115.594 73.7654 115.529 73.728 115.564C73.6425 115.66 73.1404 115.943 72.8893 115.983C64.3793 119.08 55.864 122.009 47.5891 125.57C46.0452 126.212 43.7481 127.247 42.2203 127.879C40.5429 128.556 38.9029 129.687 37.1079 130.717C37.5193 129.808 37.9733 128.924 38.5289 128.071C39.5492 126.389 41.2587 124.939 42.7919 123.631C49.8221 117.862 58.8235 114.392 67.9692 113.104C69.2246 112.938 70.5441 112.801 71.8369 112.71C71.9224 112.72 72.2696 112.635 71.8476 112.781C71.7194 112.842 71.6232 112.922 71.698 112.887C71.8476 112.781 72.4886 112.503 72.7825 112.528C75.2345 112.569 77.6918 112.316 80.224 112.801L80.2347 112.806Z" fill="#E0C7FA"/>
</g>
<g style="mix-blend-mode:multiply" opacity="0.5">
<path d="M160.066 117.331C159.067 115.316 157.993 113.699 157.021 112.305C154.36 109.007 155.301 104.153 154.558 100.122C150.717 81.5644 136.069 71.7147 116.747 65.8959C95.3676 59.0517 65.6923 64.2694 47.449 81.5997C43.5012 85.7366 39.9434 90.5957 38.6613 96.2277C38.3568 97.9754 38.5277 99.6372 38.4529 101.339C38.4422 103.703 37.4486 105.835 36.4443 107.946C34.2006 112.922 34.1044 118.887 38.0255 121.801C39.142 122.781 40.2425 123.842 40.109 125.383C40.0662 126.767 39.1901 128.681 39.0138 130.656C38.2713 139.42 43.9072 147.668 50.3177 152.967C68.5343 168.175 121.886 172.257 144.878 156.366C151.85 151.588 156.129 144.976 156.043 136.318C156.059 135.066 156.134 133.702 156.593 132.585C157.379 130.459 159.489 129.353 160.814 127.509C162.78 124.489 161.61 120.746 160.103 117.422L160.06 117.326L160.066 117.331Z" fill="#BF9AEF"/>
</g>
<path d="M109.509 81.2406C105.213 80.6805 103.686 83.3265 98.7638 83.1542C94.6539 83.0106 93.0916 80.878 86.4652 80.4328C84.8629 80.3251 84.064 80.2713 83.1852 80.3969C77.2068 81.237 71.7875 88.1375 72.2713 94.3917C72.8527 101.906 81.8138 106.67 88.0896 108.368C96.1674 110.551 105.479 109.187 111.901 104.699C113.291 103.726 121.164 98.2261 119.629 90.7907C118.612 85.8649 114.68 81.9192 109.509 81.2442V81.2406Z" fill="#624E5B"/>
<path d="M66.7289 81.8569C67.9721 76.6284 66.6416 71.893 63.7574 71.2799C60.8731 70.6668 57.5272 74.4082 56.2841 79.6367C55.0409 84.8651 56.3714 89.6005 59.2556 90.2136C62.1399 90.8267 65.4858 87.0853 66.7289 81.8569Z" fill="#624E5B"/>
<path d="M124.045 80.893C125.84 85.6663 129.553 88.7727 132.341 87.8383C135.13 86.9038 135.931 82.272 134.136 77.5038C132.341 72.7305 128.628 69.6241 125.84 70.5585C123.051 71.493 122.25 76.1248 124.045 80.893Z" fill="#624E5B"/>
</svg>
