<svg width="48" height="48" viewBox="0 0 48 48" fill="none" xmlns="http://www.w3.org/2000/svg">
<path fill-rule="evenodd" clip-rule="evenodd" d="M24 48C10.7452 48 0 37.2548 0 24C0 10.7452 10.7452 0 24 0C37.2548 0 48 10.7452 48 24C48 37.2548 37.2548 48 24 48Z" fill="#24282B"/>
<path d="M21.3884 24.7128C22.9714 25.6626 23.7629 26.1375 24.7127 26.1375C25.6624 26.1375 26.4539 25.6626 28.0369 24.7128L38.1681 18.8557C38.643 18.5391 38.9596 18.0642 38.9596 17.5893C38.9596 17.1144 38.643 16.4812 38.1681 16.1646L27.8786 10.3075C26.2956 9.35771 25.5042 8.88281 24.5544 8.88281C23.6046 8.88281 22.8131 9.35771 21.2301 10.3075L12.5236 15.3731C12.5236 15.3731 12.3653 15.3731 12.3653 15.5314C9.3576 17.2727 7.45801 20.597 7.45801 24.0796V24.3962C7.45801 27.8787 9.3576 31.0447 12.3653 32.9443L12.5236 33.1026L18.0641 36.2686C21.2301 38.1682 22.9714 39.118 24.7127 39.118C26.4539 39.118 28.0369 38.1682 31.3612 36.2686L37.2183 32.9443C38.8013 31.9945 39.5928 31.5196 40.0677 30.7281C40.5426 29.9366 40.5426 28.9868 40.5426 27.0873V23.4464C40.5426 22.9715 40.226 22.4966 39.7511 22.18C39.2762 21.8634 38.8013 21.8634 38.3264 22.18L26.2956 29.1451C25.5042 29.62 25.0293 29.7783 24.7127 29.7783C24.2378 29.7783 23.9212 29.62 23.1297 29.1451L15.0564 24.3962C14.4232 24.0796 14.2649 24.0796 14.1066 23.9213C13.79 23.9213 13.3151 24.0796 13.1568 24.3962V25.8209C13.1568 26.1375 13.4734 26.4541 13.6317 26.7707C13.79 27.0873 13.9483 27.0873 14.2649 27.4039L22.9714 32.4694C23.7629 32.9443 24.2378 33.1026 24.5544 33.1026C25.0293 33.1026 25.3459 32.9443 26.1373 32.4694L36.7434 26.2958C37.06 26.1375 37.2183 25.9792 37.2183 26.1375C37.3766 26.1375 37.3766 26.2958 37.3766 26.6124V28.1953C37.3766 28.6702 37.3766 28.8285 37.2183 29.1451C37.06 29.3034 36.9017 29.4617 36.4268 29.62L27.7203 34.6856C26.1373 35.6354 25.3458 36.1103 24.3961 36.1103C23.4463 36.1103 22.6548 35.6354 21.0718 34.6856L12.8402 29.9366C11.2572 28.9868 10.3074 27.0873 10.3074 25.0294V23.4464C10.3074 22.3383 10.9406 21.3885 11.8904 20.7553C12.6819 20.2804 13.79 20.2804 14.5815 20.7553L21.3884 24.7128Z" fill="white"/>
</svg>
