<svg width="48" height="48" viewBox="0 0 48 48" fill="none" xmlns="http://www.w3.org/2000/svg">
<path fill-rule="evenodd" clip-rule="evenodd" d="M0 24C0 37.2548 10.7452 48 24 48C37.2548 48 48 37.2548 48 24C48 10.7452 37.2548 0 24 0C10.7452 0 0 10.7452 0 24ZM12.3344 16.0389C12.5195 16.2241 12.7047 16.5944 12.7047 16.9648V29.9266C12.8899 30.4821 12.7047 30.8524 12.3344 31.2227L9.18652 34.9261V35.4816H17.8895V34.9261L14.7416 31.2227C14.5564 30.8524 14.3712 30.4821 14.3712 29.9266V18.6313L22.1483 35.4816H22.889L29.5551 18.6313V32.1486C29.5551 32.5189 29.5551 32.7041 29.3699 32.8893L26.9627 35.2964V35.852H38.6283V35.2964L36.4063 33.0744C36.2211 32.8893 36.2211 32.5189 36.2211 32.3337V15.6686C36.036 15.2983 36.2211 15.1131 36.4063 14.9279L36.4063 14.9279L38.8135 12.7059V12.1504H30.6661L24.7407 26.7787L18.0746 12.1504H9.55688V12.7059L12.3344 16.0389Z" fill="#24282B"/>
</svg>
