<svg width="48" height="48" viewBox="0 0 48 48" fill="none" xmlns="http://www.w3.org/2000/svg">
<g clip-path="url(#clip0_602_8764)">
<path fill-rule="evenodd" clip-rule="evenodd" d="M24 48C37.2548 48 48 37.2548 48 24C48 10.7452 37.2548 0 24 0C10.7452 0 0 10.7452 0 24C0 37.2548 10.7452 48 24 48ZM7.46122 23.2924C16.5758 19.3213 22.6536 16.7033 25.6946 15.4385C34.3774 11.827 36.1817 11.1996 37.3576 11.1789C37.6163 11.1744 38.1946 11.2385 38.5692 11.5424C38.8855 11.7991 38.9725 12.1458 39.0141 12.3891C39.0558 12.6325 39.1076 13.1868 39.0664 13.62C38.5959 18.5638 36.5599 30.5612 35.5242 36.0983C35.0859 38.4413 34.2229 39.2269 33.3874 39.3038C31.9497 39.4361 30.7859 38.6064 29.4905 37.6829C29.15 37.4402 28.8005 37.191 28.4345 36.9511C26.9981 36.0096 25.888 35.2535 24.7749 34.4956L24.7747 34.4954L24.7746 34.4953L24.7745 34.4953C23.7553 33.8012 22.7337 33.1055 21.4571 32.2642C18.8003 30.5134 19.9124 29.4413 21.3955 28.0116C21.6356 27.7802 21.8854 27.5394 22.1305 27.2848C22.2399 27.1711 22.7752 26.6735 23.5297 25.972L23.5297 25.972L23.5298 25.972C25.9503 23.7216 30.6275 19.3733 30.7455 18.8701C30.7649 18.7875 30.7829 18.4798 30.6001 18.3173C30.4172 18.1548 30.1474 18.2104 29.9527 18.2546C29.6767 18.3172 25.2807 21.2228 16.7647 26.9713C15.5169 27.8282 14.3867 28.2457 13.3741 28.2238C12.2577 28.1997 10.1103 27.5926 8.51394 27.0737C8.27949 26.9975 8.05081 26.9255 7.83009 26.8561C6.20751 26.3459 5.01597 25.9713 5.13525 25.0198C5.20583 24.4567 5.98115 23.881 7.46122 23.2924Z" fill="#24282B"/>
</g>
<defs>
<clipPath id="clip0_602_8764">
<rect width="48" height="48" fill="white"/>
</clipPath>
</defs>
</svg>
